<?xml version="1.0" encoding="utf-8"?>
<!-- Generator: Adobe Illustrator 23.0.3, SVG Export Plug-In . SVG Version: 6.00 Build 0)  -->
<svg version="1.1" id="Ebene_1" xmlns="http://www.w3.org/2000/svg" xmlns:xlink="http://www.w3.org/1999/xlink" x="0px" y="0px"
	 viewBox="0 0 595.28 595.28" style="enable-background:new 0 0 595.28 595.28;" xml:space="preserve">
<style type="text/css">
	.st0{fill:#E5E5E4;}
	.st1{fill:#8A8A8A;}
	.st2{filter:url(#Adobe_OpacityMaskFilter);}
	.st3{filter:url(#Adobe_OpacityMaskFilter_1_);}
	.st4{mask:url(#SVGID_1_);fill:url(#SVGID_2_);}
	.st5{fill:url(#SVGID_3_);}
	.st6{opacity:0.8;fill:url(#SVGID_4_);}
	.st7{opacity:0.8;fill:url(#SVGID_5_);}
	.st8{fill:#E9E8E8;}
	.st9{fill:#FFFFFF;}
	.st10{fill:#C8C7C7;}
	.st11{fill:#6D6D6C;}
	.st12{fill:#555454;}
	.st13{clip-path:url(#SVGID_7_);}
	.st14{fill:#5C5C5C;}
	.st15{fill:#50504F;}
	.st16{fill:#878787;}
	.st17{fill:none;}
	.st18{fill:#919191;}
	.st19{fill:#666666;}
	.st20{fill:url(#SVGID_8_);}
	.st21{fill:url(#SVGID_9_);}
	.st22{fill:url(#SVGID_10_);}
	.st23{fill:url(#SVGID_11_);}
	.st24{fill:url(#SVGID_12_);}
	.st25{fill:url(#SVGID_13_);}
	.st26{fill:url(#SVGID_14_);}
	.st27{fill:url(#SVGID_15_);}
	.st28{fill:url(#SVGID_16_);}
	.st29{filter:url(#Adobe_OpacityMaskFilter_2_);}
	.st30{filter:url(#Adobe_OpacityMaskFilter_3_);}
	.st31{mask:url(#SVGID_17_);fill:url(#SVGID_18_);}
	.st32{fill:url(#SVGID_19_);}
	.st33{fill:url(#SVGID_20_);}
	.st34{fill:url(#SVGID_21_);}
	.st35{filter:url(#Adobe_OpacityMaskFilter_4_);}
	.st36{filter:url(#Adobe_OpacityMaskFilter_5_);}
	.st37{mask:url(#SVGID_22_);fill:url(#SVGID_23_);}
	.st38{fill:url(#SVGID_24_);}
	.st39{opacity:0.4;fill:url(#SVGID_25_);}
	.st40{opacity:0.8;fill:url(#SVGID_26_);}
	.st41{fill:#BDBDBC;}
	.st42{fill:#DEDED0;}
	.st43{fill:#717171;}
	.st44{fill:#A1A1A1;}
	.st45{opacity:0.5;}
	.st46{opacity:0.5;fill:#BDBDBC;}
	.st47{filter:url(#Adobe_OpacityMaskFilter_6_);}
	.st48{filter:url(#Adobe_OpacityMaskFilter_7_);}
	.st49{mask:url(#SVGID_27_);fill:url(#SVGID_28_);}
	.st50{fill:url(#SVGID_29_);}
	.st51{filter:url(#Adobe_OpacityMaskFilter_8_);}
	.st52{filter:url(#Adobe_OpacityMaskFilter_9_);}
	.st53{mask:url(#SVGID_30_);fill:url(#SVGID_31_);}
	.st54{fill:url(#SVGID_32_);}
	.st55{filter:url(#Adobe_OpacityMaskFilter_10_);}
	.st56{filter:url(#Adobe_OpacityMaskFilter_11_);}
	.st57{mask:url(#SVGID_33_);fill:url(#SVGID_34_);}
	.st58{fill:url(#SVGID_35_);}
	.st59{filter:url(#Adobe_OpacityMaskFilter_12_);}
	.st60{filter:url(#Adobe_OpacityMaskFilter_13_);}
	.st61{mask:url(#SVGID_36_);fill:url(#SVGID_37_);}
	.st62{fill:url(#SVGID_38_);}
	.st63{fill:#D1D1D1;}
	.st64{fill:#A6A6A6;}
	.st65{fill:#E0E0E0;}
	.st66{fill:#A2A2A1;}
	.st67{fill:#B8B8B8;}
	.st68{fill:#9C9B9B;}
</style>
<g>
	<g>
		<g>
			<g>
				<path class="st0" d="M158.14,407.53v90.65c0,31.32,64.1,56.7,143.17,56.7c79.07,0,143.17-25.38,143.17-56.7v-90.65H158.14z"/>
				<path class="st1" d="M301.31,555.97c-79.55,0-144.26-25.92-144.26-57.79v-90.65c0-0.6,0.49-1.09,1.09-1.09h286.34
					c0.61,0,1.09,0.49,1.09,1.09v90.65C445.57,530.05,380.86,555.97,301.31,555.97z M159.23,408.63v89.56
					c0,30.66,63.74,55.61,142.08,55.61c78.34,0,142.08-24.94,142.08-55.61v-89.56H159.23z"/>
			</g>
			<defs>
				<filter id="Adobe_OpacityMaskFilter" filterUnits="userSpaceOnUse" x="200.87" y="407.53" width="107.75" height="147.35">
					<feFlood  style="flood-color:white;flood-opacity:1" result="back"/>
					<feBlend  in="SourceGraphic" in2="back" mode="normal"/>
				</filter>
			</defs>
			<mask maskUnits="userSpaceOnUse" x="200.87" y="407.53" width="107.75" height="147.35" id="SVGID_1_">
				<g class="st2">
					<defs>
						<filter id="Adobe_OpacityMaskFilter_1_" filterUnits="userSpaceOnUse" x="200.87" y="407.53" width="107.75" height="147.35">
							<feFlood  style="flood-color:white;flood-opacity:1" result="back"/>
							<feBlend  in="SourceGraphic" in2="back" mode="normal"/>
						</filter>
					</defs>
					<mask maskUnits="userSpaceOnUse" x="200.87" y="407.53" width="107.75" height="147.35" id="SVGID_1_">
						<g class="st3">
						</g>
					</mask>
					<linearGradient id="SVGID_2_" gradientUnits="userSpaceOnUse" x1="305.3353" y1="481.2065" x2="195.3465" y2="481.2065">
						<stop  offset="0" style="stop-color:#515151"/>
						<stop  offset="0.0977" style="stop-color:#6E6E6E"/>
						<stop  offset="0.3077" style="stop-color:#B6B6B6"/>
						<stop  offset="0.5055" style="stop-color:#FFFFFF"/>
						<stop  offset="0.6216" style="stop-color:#FDFDFD"/>
						<stop  offset="0.689" style="stop-color:#F4F4F4"/>
						<stop  offset="0.7439" style="stop-color:#E6E6E6"/>
						<stop  offset="0.7921" style="stop-color:#D2D2D2"/>
						<stop  offset="0.836" style="stop-color:#B8B8B8"/>
						<stop  offset="0.8766" style="stop-color:#999999"/>
						<stop  offset="0.9148" style="stop-color:#737373"/>
						<stop  offset="0.9511" style="stop-color:#474747"/>
						<stop  offset="0.9846" style="stop-color:#161616"/>
						<stop  offset="0.9985" style="stop-color:#000000"/>
					</linearGradient>
					<path class="st4" d="M308.61,407.53H200.87v131.05c25.85,10.07,61.3,16.3,100.44,16.3c2.45,0,4.88-0.03,7.3-0.07V407.53z"/>
				</g>
			</mask>
			<linearGradient id="SVGID_3_" gradientUnits="userSpaceOnUse" x1="305.3353" y1="481.2065" x2="195.3465" y2="481.2065">
				<stop  offset="0" style="stop-color:#828485"/>
				<stop  offset="0.1323" style="stop-color:#9C9C9E"/>
				<stop  offset="0.4172" style="stop-color:#E5E4E6"/>
				<stop  offset="0.5055" style="stop-color:#FFFFFF"/>
				<stop  offset="0.6382" style="stop-color:#FCFCFC"/>
				<stop  offset="0.7151" style="stop-color:#F1F0F1"/>
				<stop  offset="0.7778" style="stop-color:#DEDCDE"/>
				<stop  offset="0.8329" style="stop-color:#C5C3C4"/>
				<stop  offset="0.8829" style="stop-color:#A7A4A6"/>
				<stop  offset="0.9293" style="stop-color:#838283"/>
				<stop  offset="0.9721" style="stop-color:#605F61"/>
				<stop  offset="0.9985" style="stop-color:#484A4C"/>
			</linearGradient>
			<path class="st5" d="M308.61,407.53H200.87v131.05c25.85,10.07,61.3,16.3,100.44,16.3c2.45,0,4.88-0.03,7.3-0.07V407.53z"/>
			<linearGradient id="SVGID_4_" gradientUnits="userSpaceOnUse" x1="185.0344" y1="468.7828" x2="152.7049" y2="468.7828">
				<stop  offset="0.0235" style="stop-color:#FFFFFF"/>
				<stop  offset="0.1144" style="stop-color:#F5F4F5"/>
				<stop  offset="0.255" style="stop-color:#D9D7D8"/>
				<stop  offset="0.4276" style="stop-color:#AFADAD"/>
				<stop  offset="0.6237" style="stop-color:#7B7A7A"/>
				<stop  offset="0.7741" style="stop-color:#545656"/>
				<stop  offset="1" style="stop-color:#484A4C"/>
			</linearGradient>
			<path class="st6" d="M182.85,407.53h-24.71v90.65c0,11.81,9.12,22.77,24.71,31.85V407.53z"/>
			<linearGradient id="SVGID_5_" gradientUnits="userSpaceOnUse" x1="335.1811" y1="480.3747" x2="462.9856" y2="480.3747">
				<stop  offset="0.0235" style="stop-color:#FFFFFF"/>
				<stop  offset="0.1144" style="stop-color:#F5F4F5"/>
				<stop  offset="0.255" style="stop-color:#D9D7D8"/>
				<stop  offset="0.4276" style="stop-color:#AFADAD"/>
				<stop  offset="0.6237" style="stop-color:#7B7A7A"/>
				<stop  offset="0.7741" style="stop-color:#545656"/>
				<stop  offset="1" style="stop-color:#484A4C"/>
			</linearGradient>
			<path class="st7" d="M335.73,407.53v145.69c62.44-6.1,108.75-28.42,108.75-55.04v-90.65H335.73z"/>
			<g>
				<ellipse class="st8" cx="301.31" cy="407.53" rx="143.17" ry="56.69"/>
				<path class="st1" d="M301.31,465.32c-79.55,0-144.26-25.92-144.26-57.79c0-31.86,64.71-57.78,144.26-57.78
					s144.27,25.92,144.27,57.78C445.57,439.4,380.86,465.32,301.31,465.32z M301.31,351.94c-78.34,0-142.08,24.94-142.08,55.59
					c0,30.66,63.74,55.6,142.08,55.6c78.34,0,142.08-24.94,142.08-55.6C443.39,376.88,379.65,351.94,301.31,351.94z"/>
			</g>
			<g>
				<path class="st9" d="M165.78,408.85c0-29.19,62.94-52.85,140.56-52.85c58.94,0,109.37,13.64,130.26,32.98
					c-19.4-22.2-72.63-38.15-135.29-38.15c-79.07,0-143.17,25.38-143.17,56.69s64.1,56.69,143.17,56.69
					c42.29,0,80.28-7.26,106.5-18.81c-25.59,10.04-61.57,16.3-101.47,16.3C228.71,461.71,165.78,438.05,165.78,408.85z"/>
			</g>
			<ellipse class="st10" cx="301.31" cy="406.2" rx="83.65" ry="33.12"/>
		</g>
		<g>
			<g>
				<path class="st10" d="M378.44,350.42H224.25c0,0-0.08,54.23-0.08,54.7c0,16.87,34.53,30.55,77.13,30.55
					c42.6,0,77.13-13.68,77.13-30.55C378.44,404.79,378.44,350.42,378.44,350.42z"/>
				<path class="st1" d="M301.31,436.75c-43.86,0-78.23-13.9-78.23-31.64c0-0.46,0.09-54.7,0.09-54.7c0-0.61,0.49-1.09,1.09-1.09
					h154.19c0.61,0,1.09,0.49,1.09,1.09v54.7C379.54,422.85,345.17,436.75,301.31,436.75z M225.35,351.51
					c-0.01,7.67-0.08,53.18-0.08,53.61c0,16.24,34.11,29.45,76.04,29.45c41.93,0,76.05-13.21,76.05-29.45v-53.61H225.35z"/>
			</g>
			<path class="st10" d="M230.9,350.6c0-0.07,0.03-0.12,0.04-0.18h-6.68c0,0-0.08,54.23-0.08,54.7c0,4.44,2.42,8.66,6.72,12.47
				V350.6z"/>
			<path class="st10" d="M320.17,350.42v84.32c33.48-3.33,58.28-15.32,58.28-29.62c0-0.32,0-54.7,0-54.7H320.17z"/>
			<g>
				<path class="st8" d="M378.44,350.42c0,16.87-34.53,30.54-77.13,30.54c-42.6,0-77.13-13.67-77.13-30.54
					c0-16.87,34.53-30.54,77.13-30.54C343.91,319.87,378.44,333.54,378.44,350.42z"/>
				<path class="st1" d="M301.31,382.05c-43.86,0-78.23-13.9-78.23-31.63c0-17.74,34.36-31.64,78.23-31.64
					c43.87,0,78.23,13.9,78.23,31.64C379.54,368.15,345.17,382.05,301.31,382.05z M301.31,320.97c-41.93,0-76.04,13.21-76.04,29.45
					s34.11,29.45,76.04,29.45c41.93,0,76.05-13.21,76.05-29.45S343.24,320.97,301.31,320.97z"/>
			</g>
			<g>
				<path class="st11" d="M369.41,349.94c0,13.84-30.67,25.06-68.52,25.06c-37.85,0-68.52-11.22-68.52-25.06
					c0-13.84,30.67-25.06,68.52-25.06C338.74,324.88,369.41,336.1,369.41,349.94z"/>
				<path class="st12" d="M300.9,376.08c-39.03,0-69.61-11.48-69.61-26.14c0-14.66,30.58-26.15,69.61-26.15
					c39.03,0,69.61,11.48,69.61,26.15C370.51,364.6,339.93,376.08,300.9,376.08z M300.9,325.97c-36.55,0-67.43,10.97-67.43,23.96
					c0,12.99,30.88,23.96,67.43,23.96c36.55,0,67.42-10.98,67.42-23.96C368.32,336.94,337.45,325.97,300.9,325.97z"/>
			</g>
			<g>
				<path class="st11" d="M369.41,349.94c0,13.84-30.67,25.06-68.52,25.06c-37.85,0-68.52-11.22-68.52-25.06
					c0-13.84,30.67-25.06,68.52-25.06C338.74,324.88,369.41,336.1,369.41,349.94z"/>
				<path class="st12" d="M300.9,376.08c-39.03,0-69.61-11.48-69.61-26.14c0-14.66,30.58-26.15,69.61-26.15
					c39.03,0,69.61,11.48,69.61,26.15C370.51,364.6,339.93,376.08,300.9,376.08z M300.9,325.97c-36.55,0-67.43,10.97-67.43,23.96
					c0,12.99,30.88,23.96,67.43,23.96c36.55,0,67.42-10.98,67.42-23.96C368.32,336.94,337.45,325.97,300.9,325.97z"/>
			</g>
			<path class="st11" d="M335.73,339.14c-12.46-0.55-25.63-1.52-38.09-2c-21.93-0.85-47.56,2.68-62.7,19.58
				c8.09,10.54,34.55,18.27,65.96,18.27c28.67,0,58.13-5.56,67.26-19.53C360.85,342.72,348.78,339.71,335.73,339.14z"/>
		</g>
		<g>
			<g>
				<defs>
					<path id="SVGID_6_" d="M369.41,350.66c0,13.84-30.67,25.05-68.52,25.05c-37.85,0-68.52-11.21-68.52-25.05
						c0-13.84,30.67-25.05,68.52-25.05C338.74,325.61,369.41,336.82,369.41,350.66z"/>
				</defs>
				<clipPath id="SVGID_7_">
					<use xlink:href="#SVGID_6_"  style="overflow:visible;"/>
				</clipPath>
				<g class="st13">
					<g>
						<g>
							<polygon class="st14" points="266.42,428.66 278.26,441.22 290.74,441.22 305.01,441.22 317.5,441.22 329.34,428.66 							
								"/>
							<path class="st15" d="M317.5,442.31h-39.24c-0.3,0-0.59-0.12-0.8-0.34l-11.84-12.56c-0.3-0.31-0.38-0.78-0.21-1.18
								c0.17-0.4,0.57-0.66,1-0.66h62.92c0.43,0,0.83,0.26,1,0.66c0.17,0.4,0.09,0.87-0.2,1.18l-11.85,12.56
								C318.08,442.19,317.8,442.31,317.5,442.31z M278.73,440.13h38.29l9.78-10.37h-57.86L278.73,440.13z"/>
						</g>
						<g>
							<path class="st16" d="M293.94,410.45h-45.87c0,0,8.74,11.11,18.12,18.21h18.23h26.4h18.23c9.38-7.1,23.56-23.98,23.56-23.98
								L293.94,410.45z"/>
							<path class="st15" d="M329.04,429.76h-62.86c-0.23,0-0.47-0.08-0.66-0.22c-9.38-7.11-17.96-17.95-18.32-18.41
								c-0.26-0.33-0.3-0.78-0.12-1.15c0.18-0.37,0.57-0.61,0.98-0.61h45.87l58.55-5.76c0.46-0.05,0.87,0.19,1.07,0.58
								c0.21,0.39,0.16,0.87-0.13,1.21c-0.58,0.7-14.37,17.05-23.74,24.15C329.51,429.68,329.28,429.76,329.04,429.76z
								 M266.56,427.57h62.11c7.23-5.57,17.31-16.89,21.33-21.53l-55.95,5.49l-43.67,0.01C253.19,414.9,259.72,422.33,266.56,427.57
								z"/>
						</g>
					</g>
					<path class="st17" d="M300.27,382.85c0.02,0.02,0.04,0.03,0.05,0.04c0.03,0.01,0.06,0.01,0.09,0.01
						c-0.01-0.02-0.03-0.04-0.04-0.06C300.33,382.84,300.3,382.85,300.27,382.85z"/>
					<path class="st17" d="M300.06,382.6c0.05,0.1,0.08,0.26,0.16,0.27c0.12,0.03,0.25,0,0.39-0.03c-0.1-0.08-0.19-0.17-0.3-0.24
						C300.26,382.58,300.15,382.6,300.06,382.6z"/>
					<path class="st17" d="M300.9,383.05c-0.43-0.06-0.78-0.1-1.12-0.15C300,383.28,300.31,383.43,300.9,383.05z"/>
					<g>
						<path class="st16" d="M246.37,335.46v68.26c0,5.35,24.16,2.8,53.96,2.8c29.81,0,53.96-4.33,53.96-9.68v-60.36L246.37,335.46z"
							/>
						<path class="st15" d="M262.91,408.22L262.91,408.22c-11.17,0-17.64-0.74-17.64-4.5v-68.26c0-0.29,0.12-0.58,0.32-0.78
							c0.21-0.2,0.47-0.33,0.78-0.31l107.92,1.03c0.6,0,1.08,0.49,1.08,1.09v60.36c0,7.9-32.93,10.77-55.06,10.77
							c-7.98,0-15.63,0.19-22.38,0.34C272.47,408.09,267.29,408.22,262.91,408.22z M247.46,336.56v67.16
							c0,1.06,2.68,2.32,15.45,2.32l0,0c4.35,0,9.52-0.13,14.99-0.26c6.76-0.17,14.42-0.35,22.43-0.35c32.76,0,52.88-5,52.88-8.58
							v-59.28L247.46,336.56z"/>
					</g>
					<g>
						<g>
							<path class="st18" d="M355.44,343.48c0,0-13.33,5.87-42.38,7.82c-31.97,2.14-65.54-0.3-65.54-0.3s-6.38,3.64-5.56,7.27
								c0.81,3.64,5.56,4.19,5.56,4.19s41.69,4.48,85.09-2.37c25.92-4.09,23.87-7.16,23.87-7.16s2.38-2.5,2.32-5.34
								C358.74,344.86,355.8,342.89,355.44,343.48z"/>
							<path class="st19" d="M280.41,364.99L280.41,364.99c-19.34,0-32.89-1.44-33.02-1.45c-0.23-0.03-5.53-0.69-6.5-5.03
								c-0.97-4.3,5.36-8.05,6.08-8.46c0.19-0.1,0.41-0.16,0.62-0.14c0.16,0.01,16.42,1.18,36.76,1.18c10.3,0,19.93-0.29,28.63-0.88
								c26.79-1.8,40.24-7.01,41.85-7.66c0.23-0.17,0.52-0.26,0.84-0.26c1.54,0,4.16,2.47,4.22,5.28c0.05,2.59-1.58,4.87-2.29,5.74
								c-0.02,0.15-0.06,0.31-0.14,0.48c-0.41,0.93-1.64,3.74-24.68,7.37C316.71,363.7,299.09,364.99,280.41,364.99z M247.78,352.12
								c-1.65,1.01-5.25,3.73-4.76,5.92c0.64,2.84,4.58,3.33,4.62,3.34c0.12,0.01,13.56,1.43,32.78,1.43
								c18.56,0,36.06-1.27,52.02-3.79c19.37-3.06,22.48-5.45,22.96-6.01c-0.02-0.3,0.08-0.6,0.3-0.83
								c0.02-0.02,2.07-2.22,2.02-4.56c-0.04-1.58-1.38-2.78-1.95-3.08c-1.49,0.63-14.84,6-42.63,7.86
								c-8.74,0.58-18.42,0.88-28.78,0.88C265.56,353.28,250.23,352.28,247.78,352.12z"/>
						</g>
						<g>
							<path class="st16" d="M355.44,343.48c0,0-13.33,5.87-42.38,7.82c-31.97,2.14-65.54-0.3-65.54-0.3s-6.38,3.64-5.56,7.27
								c0.81,3.64,5.56,4.19,5.56,4.19s41.84,5.14,85.09-2.37c23.55-4.09,23.87-7.16,23.87-7.16s2.38-2.5,2.32-5.34
								C358.74,344.86,355.8,342.89,355.44,343.48z"/>
							<path class="st15" d="M281.64,365.27L281.64,365.27c-19.98,0-34.12-1.71-34.26-1.73c-0.22-0.03-5.51-0.69-6.49-5.03
								c-0.97-4.3,5.36-8.05,6.08-8.46c0.19-0.1,0.41-0.16,0.62-0.14c0.16,0.01,16.42,1.18,36.76,1.18c10.3,0,19.93-0.29,28.63-0.88
								c26.79-1.8,40.24-7.01,41.85-7.66c0.23-0.17,0.52-0.26,0.84-0.26c1.54,0,4.16,2.47,4.22,5.28c0.06,2.85-1.92,5.32-2.48,5.96
								c-1.26,2.39-9.91,5.08-24.62,7.64C317.12,363.89,299.9,365.27,281.64,365.27z M247.78,352.12c-1.65,1.01-5.25,3.73-4.76,5.92
								c0.64,2.84,4.58,3.33,4.62,3.34c0.15,0.02,14.16,1.71,34,1.71h0.01c18.14,0,35.22-1.37,50.77-4.07
								c19.96-3.46,22.76-6.14,23.05-6.47c0.05-0.14,0.13-0.25,0.22-0.36c0.02-0.02,2.07-2.22,2.02-4.56
								c-0.04-1.58-1.38-2.78-1.95-3.08c-1.49,0.63-14.84,6-42.63,7.86c-8.74,0.58-18.42,0.88-28.78,0.88
								C265.56,353.28,250.23,352.28,247.78,352.12z"/>
						</g>
						<g>
							<linearGradient id="SVGID_8_" gradientUnits="userSpaceOnUse" x1="247.5117" y1="353.676" x2="248.5069" y2="353.676">
								<stop  offset="0.0199" style="stop-color:#ACB3B7"/>
								<stop  offset="0.0837" style="stop-color:#93989D"/>
								<stop  offset="0.2254" style="stop-color:#65696E"/>
								<stop  offset="0.3495" style="stop-color:#474D51"/>
								<stop  offset="0.4501" style="stop-color:#373D42"/>
								<stop  offset="0.5144" style="stop-color:#32383C"/>
								<stop  offset="0.58" style="stop-color:#363C40"/>
								<stop  offset="0.6683" style="stop-color:#42484C"/>
								<stop  offset="0.7695" style="stop-color:#585D62"/>
								<stop  offset="0.8804" style="stop-color:#7A7F84"/>
								<stop  offset="0.9978" style="stop-color:#ABB2B6"/>
								<stop  offset="1" style="stop-color:#ACB3B7"/>
							</linearGradient>
							<path class="st20" d="M247.51,353.64c0,0,0.29,0.03,0.82,0.08c0.11-0.05,0.18-0.08,0.18-0.08H247.51z"/>
							<linearGradient id="SVGID_9_" gradientUnits="userSpaceOnUse" x1="244.8598" y1="353.5967" x2="355.5287" y2="353.5967">
								<stop  offset="0.0199" style="stop-color:#ACB3B7"/>
								<stop  offset="0.0837" style="stop-color:#93989D"/>
								<stop  offset="0.2254" style="stop-color:#65696E"/>
								<stop  offset="0.3495" style="stop-color:#474D51"/>
								<stop  offset="0.4501" style="stop-color:#373D42"/>
								<stop  offset="0.5144" style="stop-color:#32383C"/>
								<stop  offset="0.58" style="stop-color:#363C40"/>
								<stop  offset="0.6683" style="stop-color:#42484C"/>
								<stop  offset="0.7695" style="stop-color:#585D62"/>
								<stop  offset="0.8804" style="stop-color:#7A7F84"/>
								<stop  offset="0.9978" style="stop-color:#ABB2B6"/>
								<stop  offset="1" style="stop-color:#ACB3B7"/>
							</linearGradient>
							<path class="st21" d="M348.57,348.2c-4.7,1.37-17.12,4.5-45.65,6.21c-27.2,1.63-50.07-0.28-54.59-0.69
								c-0.74,0.35-3.62,1.8-3.47,3.12c0.18,1.51,19.07,5.45,59.31,2.27c40.24-3.18,48.79-8.78,50.79-10.91
								C356.98,346.08,353.27,346.84,348.57,348.2z"/>
						</g>
					</g>
					<g>
						<g>
							<path class="st16" d="M355.44,360.69c0,0-13.33,5.88-42.38,7.83c-31.97,2.13-65.54-0.3-65.54-0.3s-6.38,3.64-5.56,7.28
								c0.81,3.64,5.56,4.18,5.56,4.18s41.69,4.48,85.09-2.37c25.92-4.09,23.87-7.16,23.87-7.16s2.38-2.5,2.32-5.34
								C358.74,362.08,355.8,360.1,355.44,360.69z"/>
							<path class="st15" d="M280.4,382.2L280.4,382.2c-19.33,0-32.87-1.43-33.01-1.45c-0.23-0.03-5.53-0.69-6.5-5.03
								c-0.97-4.3,5.36-8.05,6.08-8.47c0.19-0.11,0.41-0.15,0.62-0.14c0.16,0.01,16.42,1.18,36.77,1.18
								c10.31,0,19.93-0.3,28.63-0.88c26.84-1.79,40.25-7,41.85-7.66c0.23-0.17,0.52-0.26,0.84-0.26c1.54,0,4.16,2.47,4.22,5.29
								c0.05,2.6-1.58,4.87-2.29,5.74c-0.02,0.15-0.06,0.31-0.14,0.48c-0.41,0.93-1.64,3.74-24.68,7.37
								C316.7,380.91,299.08,382.2,280.4,382.2z M247.78,369.32c-1.65,1.01-5.25,3.74-4.76,5.92c0.64,2.85,4.58,3.34,4.62,3.34
								c0.12,0.01,13.55,1.43,32.76,1.43c18.56,0,36.07-1.27,52.03-3.8c19.37-3.05,22.48-5.44,22.96-6c-0.02-0.3,0.08-0.6,0.3-0.82
								c0.02-0.03,2.07-2.23,2.02-4.57c-0.04-1.57-1.38-2.78-1.95-3.09c-1.51,0.64-14.86,6-42.63,7.86
								c-8.74,0.58-18.42,0.88-28.77,0.88C265.56,370.48,250.23,369.5,247.78,369.32z"/>
						</g>
						<g>
							<path class="st16" d="M355.44,360.69c0,0-13.33,5.88-42.38,7.83c-31.97,2.13-65.54-0.3-65.54-0.3s-6.38,3.64-5.56,7.28
								c0.81,3.64,5.56,4.18,5.56,4.18s41.84,5.14,85.09-2.37c23.55-4.09,23.87-7.16,23.87-7.16s2.38-2.5,2.32-5.34
								C358.74,362.08,355.8,360.1,355.44,360.69z"/>
							<path class="st15" d="M281.62,382.48C281.62,382.48,281.62,382.48,281.62,382.48c-19.98,0-34.11-1.71-34.25-1.73
								c-0.22-0.03-5.51-0.69-6.49-5.03c-0.97-4.3,5.36-8.05,6.08-8.47c0.19-0.11,0.41-0.15,0.62-0.14
								c0.16,0.01,16.42,1.18,36.77,1.18c10.31,0,19.93-0.3,28.63-0.88c26.84-1.79,40.25-7,41.85-7.66
								c0.23-0.17,0.52-0.26,0.84-0.26c1.54,0,4.16,2.47,4.22,5.29c0.06,2.86-1.92,5.32-2.48,5.96c-1.26,2.39-9.91,5.08-24.62,7.64
								C317.11,381.1,299.9,382.48,281.62,382.48z M247.78,369.32c-1.65,1.01-5.25,3.74-4.76,5.92c0.64,2.85,4.58,3.34,4.62,3.34
								c0.15,0.02,14.16,1.71,33.98,1.71c18.15,0,35.24-1.37,50.79-4.07c19.96-3.46,22.76-6.14,23.05-6.47
								c0.05-0.13,0.13-0.25,0.22-0.35c0.02-0.03,2.07-2.23,2.02-4.57c-0.04-1.57-1.38-2.78-1.95-3.09
								c-1.51,0.64-14.86,6-42.63,7.86c-8.74,0.58-18.42,0.88-28.77,0.88C265.56,370.48,250.23,369.5,247.78,369.32z"/>
						</g>
						<g>
							<linearGradient id="SVGID_10_" gradientUnits="userSpaceOnUse" x1="247.5117" y1="370.8864" x2="248.5069" y2="370.8864">
								<stop  offset="0.0199" style="stop-color:#ACB3B7"/>
								<stop  offset="0.0837" style="stop-color:#93989D"/>
								<stop  offset="0.2254" style="stop-color:#65696E"/>
								<stop  offset="0.3495" style="stop-color:#474D51"/>
								<stop  offset="0.4501" style="stop-color:#373D42"/>
								<stop  offset="0.5144" style="stop-color:#32383C"/>
								<stop  offset="0.58" style="stop-color:#363C40"/>
								<stop  offset="0.6683" style="stop-color:#42484C"/>
								<stop  offset="0.7695" style="stop-color:#585D62"/>
								<stop  offset="0.8804" style="stop-color:#7A7F84"/>
								<stop  offset="0.9978" style="stop-color:#ABB2B6"/>
								<stop  offset="1" style="stop-color:#ACB3B7"/>
							</linearGradient>
							<path class="st22" d="M247.51,370.84c0,0,0.29,0.03,0.82,0.08c0.11-0.05,0.18-0.08,0.18-0.08H247.51z"/>
							<linearGradient id="SVGID_11_" gradientUnits="userSpaceOnUse" x1="244.8598" y1="370.8068" x2="355.5287" y2="370.8068">
								<stop  offset="0.0199" style="stop-color:#ACB3B7"/>
								<stop  offset="0.0837" style="stop-color:#93989D"/>
								<stop  offset="0.2254" style="stop-color:#65696E"/>
								<stop  offset="0.3495" style="stop-color:#474D51"/>
								<stop  offset="0.4501" style="stop-color:#373D42"/>
								<stop  offset="0.5144" style="stop-color:#32383C"/>
								<stop  offset="0.58" style="stop-color:#363C40"/>
								<stop  offset="0.6683" style="stop-color:#42484C"/>
								<stop  offset="0.7695" style="stop-color:#585D62"/>
								<stop  offset="0.8804" style="stop-color:#7A7F84"/>
								<stop  offset="0.9978" style="stop-color:#ABB2B6"/>
								<stop  offset="1" style="stop-color:#ACB3B7"/>
							</linearGradient>
							<path class="st23" d="M348.57,365.41c-4.7,1.37-17.12,4.5-45.65,6.21c-27.2,1.63-50.07-0.28-54.59-0.69
								c-0.74,0.35-3.62,1.79-3.47,3.12c0.18,1.51,19.07,5.45,59.31,2.27c40.24-3.18,48.79-8.79,50.79-10.91
								C356.98,363.29,353.27,364.05,348.57,365.41z"/>
						</g>
					</g>
					<g>
						<g>
							<path class="st16" d="M355.44,377.63c0,0-13.33,5.87-42.38,7.82c-31.97,2.14-65.54-0.3-65.54-0.3s-6.38,3.64-5.56,7.27
								c0.81,3.63,5.56,4.18,5.56,4.18s41.69,4.48,85.09-2.36c25.92-4.09,23.87-7.16,23.87-7.16s2.38-2.5,2.32-5.34
								C358.74,379.01,355.8,377.04,355.44,377.63z"/>
							<path class="st15" d="M280.41,399.14L280.41,399.14c-19.34,0-32.89-1.43-33.02-1.44c-0.23-0.03-5.53-0.69-6.5-5.03
								c-0.97-4.3,5.36-8.05,6.08-8.46c0.19-0.11,0.41-0.16,0.62-0.14c0.16,0.01,16.42,1.17,36.76,1.17c10.3,0,19.93-0.3,28.63-0.88
								c26.79-1.79,40.24-7.01,41.85-7.66c0.23-0.17,0.52-0.27,0.84-0.27c1.54,0,4.16,2.47,4.22,5.29c0.05,2.6-1.58,4.87-2.29,5.74
								c-0.02,0.15-0.06,0.31-0.14,0.48c-0.41,0.92-1.64,3.74-24.68,7.38C316.7,397.86,299.09,399.14,280.41,399.14z M247.78,386.26
								c-1.65,1.01-5.25,3.74-4.76,5.92c0.64,2.85,4.58,3.34,4.62,3.35c0.12,0.01,13.56,1.43,32.77,1.43
								c18.56,0,36.06-1.28,52.02-3.79c19.37-3.06,22.48-5.45,22.96-6.01c-0.02-0.29,0.08-0.59,0.3-0.82
								c0.02-0.03,2.07-2.22,2.02-4.57c-0.04-1.57-1.38-2.78-1.95-3.08c-1.5,0.63-14.85,6-42.63,7.86
								c-8.74,0.58-18.42,0.88-28.78,0.88C265.56,387.42,250.23,386.43,247.78,386.26z"/>
						</g>
						<g>
							<path class="st16" d="M355.44,377.63c0,0-13.33,5.87-42.38,7.82c-31.97,2.14-65.54-0.3-65.54-0.3s-6.38,3.64-5.56,7.27
								c0.81,3.63,5.56,4.18,5.56,4.18s41.84,5.14,85.09-2.36c23.55-4.09,23.87-7.16,23.87-7.16s2.38-2.5,2.32-5.34
								C358.74,379.01,355.8,377.04,355.44,377.63z"/>
							<path class="st15" d="M281.64,399.42L281.64,399.42c-19.98,0-34.12-1.71-34.26-1.72c-0.22-0.03-5.51-0.69-6.49-5.03
								c-0.97-4.3,5.36-8.05,6.08-8.46c0.19-0.11,0.41-0.16,0.62-0.14c0.16,0.01,16.42,1.17,36.76,1.17c10.3,0,19.93-0.3,28.63-0.88
								c26.79-1.79,40.24-7.01,41.85-7.66c0.23-0.17,0.52-0.27,0.84-0.27c1.54,0,4.16,2.47,4.22,5.29c0.06,2.85-1.92,5.32-2.48,5.96
								c-1.26,2.39-9.91,5.08-24.62,7.64C317.12,398.04,299.9,399.42,281.64,399.42z M247.78,386.26c-1.65,1.01-5.25,3.74-4.76,5.92
								c0.64,2.85,4.58,3.34,4.62,3.35c0.15,0.01,14.16,1.71,34,1.71h0.01c18.14,0,35.22-1.37,50.77-4.07
								c19.96-3.47,22.76-6.14,23.05-6.48c0.05-0.13,0.13-0.25,0.22-0.35c0.02-0.03,2.07-2.22,2.02-4.57
								c-0.04-1.57-1.38-2.78-1.95-3.08c-1.5,0.63-14.85,6-42.63,7.86c-8.74,0.58-18.42,0.88-28.78,0.88
								C265.56,387.42,250.23,386.43,247.78,386.26z"/>
						</g>
						<g>
							<linearGradient id="SVGID_12_" gradientUnits="userSpaceOnUse" x1="247.5117" y1="387.8288" x2="248.5069" y2="387.8288">
								<stop  offset="0.0199" style="stop-color:#ACB3B7"/>
								<stop  offset="0.0837" style="stop-color:#93989D"/>
								<stop  offset="0.2254" style="stop-color:#65696E"/>
								<stop  offset="0.3495" style="stop-color:#474D51"/>
								<stop  offset="0.4501" style="stop-color:#373D42"/>
								<stop  offset="0.5144" style="stop-color:#32383C"/>
								<stop  offset="0.58" style="stop-color:#363C40"/>
								<stop  offset="0.6683" style="stop-color:#42484C"/>
								<stop  offset="0.7695" style="stop-color:#585D62"/>
								<stop  offset="0.8804" style="stop-color:#7A7F84"/>
								<stop  offset="0.9978" style="stop-color:#ABB2B6"/>
								<stop  offset="1" style="stop-color:#ACB3B7"/>
							</linearGradient>
							<path class="st24" d="M247.51,387.79c0,0,0.29,0.03,0.82,0.08c0.11-0.05,0.18-0.08,0.18-0.08H247.51z"/>
							<linearGradient id="SVGID_13_" gradientUnits="userSpaceOnUse" x1="244.8598" y1="387.745" x2="355.5287" y2="387.745">
								<stop  offset="0.0199" style="stop-color:#ACB3B7"/>
								<stop  offset="0.0837" style="stop-color:#93989D"/>
								<stop  offset="0.2254" style="stop-color:#65696E"/>
								<stop  offset="0.3495" style="stop-color:#474D51"/>
								<stop  offset="0.4501" style="stop-color:#373D42"/>
								<stop  offset="0.5144" style="stop-color:#32383C"/>
								<stop  offset="0.58" style="stop-color:#363C40"/>
								<stop  offset="0.6683" style="stop-color:#42484C"/>
								<stop  offset="0.7695" style="stop-color:#585D62"/>
								<stop  offset="0.8804" style="stop-color:#7A7F84"/>
								<stop  offset="0.9978" style="stop-color:#ABB2B6"/>
								<stop  offset="1" style="stop-color:#ACB3B7"/>
							</linearGradient>
							<path class="st25" d="M348.57,382.35c-4.7,1.36-17.12,4.5-45.65,6.2c-27.2,1.63-50.07-0.27-54.59-0.69
								c-0.74,0.34-3.62,1.79-3.47,3.11c0.18,1.51,19.07,5.45,59.31,2.27c40.24-3.17,48.79-8.78,50.79-10.9
								C356.98,380.23,353.27,380.99,348.57,382.35z"/>
						</g>
					</g>
					<g>
						<g>
							<path class="st16" d="M355.44,394.57c0,0-13.33,5.88-42.38,7.82c-31.97,2.14-65.54-0.3-65.54-0.3s-6.38,3.63-5.56,7.27
								c0.81,3.64,5.56,4.19,5.56,4.19s41.69,4.47,85.09-2.37c25.92-4.09,23.87-7.16,23.87-7.16s2.38-2.49,2.32-5.34
								C358.74,395.95,355.8,393.98,355.44,394.57z"/>
							<path class="st15" d="M280.41,416.08L280.41,416.08c-19.34,0-32.89-1.43-33.02-1.45c-0.23-0.02-5.53-0.69-6.5-5.03
								c-0.97-4.3,5.36-8.05,6.08-8.46c0.19-0.11,0.41-0.16,0.62-0.14c0.16,0.01,16.42,1.17,36.76,1.17
								c10.3,0,19.93-0.29,28.63-0.88c26.79-1.79,40.24-7.01,41.85-7.67c0.23-0.18,0.52-0.26,0.84-0.26c1.54,0,4.16,2.47,4.22,5.28
								c0.05,2.6-1.58,4.88-2.29,5.75c-0.02,0.15-0.06,0.31-0.14,0.48c-0.41,0.93-1.64,3.74-24.68,7.38
								C316.7,414.79,299.09,416.08,280.41,416.08z M247.78,403.2c-1.65,1.02-5.25,3.74-4.76,5.92c0.64,2.85,4.58,3.34,4.62,3.34
								c0.12,0.01,13.56,1.43,32.77,1.43c18.56,0,36.06-1.27,52.02-3.79c19.37-3.06,22.48-5.45,22.96-6.01
								c-0.02-0.3,0.08-0.6,0.3-0.83c0.02-0.02,2.07-2.22,2.02-4.56c-0.04-1.58-1.38-2.78-1.95-3.09
								c-1.51,0.63-14.86,6.01-42.63,7.86c-8.74,0.59-18.42,0.88-28.78,0.88C265.56,404.36,250.23,403.37,247.78,403.2z"/>
						</g>
						<g>
							<path class="st16" d="M355.44,394.57c0,0-13.33,5.88-42.38,7.82c-31.97,2.14-65.54-0.3-65.54-0.3s-6.38,3.63-5.56,7.27
								c0.81,3.64,5.56,4.19,5.56,4.19s41.84,5.14,85.09-2.37c23.55-4.09,23.87-7.16,23.87-7.16s2.38-2.49,2.32-5.34
								C358.74,395.95,355.8,393.98,355.44,394.57z"/>
							<path class="st15" d="M281.64,416.36L281.64,416.36c-19.98,0-34.12-1.71-34.26-1.73c-0.22-0.02-5.51-0.69-6.49-5.03
								c-0.97-4.3,5.36-8.05,6.08-8.46c0.19-0.11,0.41-0.16,0.62-0.14c0.16,0.01,16.42,1.17,36.76,1.17
								c10.3,0,19.93-0.29,28.63-0.88c26.84-1.79,40.25-7.01,41.85-7.67c0.23-0.18,0.52-0.26,0.84-0.26c1.54,0,4.16,2.47,4.22,5.28
								c0.06,2.86-1.92,5.32-2.48,5.96c-1.26,2.39-9.91,5.09-24.62,7.64C317.12,414.98,299.9,416.36,281.64,416.36z M247.78,403.2
								c-1.65,1.02-5.25,3.74-4.76,5.92c0.64,2.85,4.58,3.34,4.62,3.34c0.15,0.02,14.16,1.71,34,1.71h0.01
								c18.14,0,35.22-1.37,50.77-4.07c19.96-3.47,22.76-6.15,23.05-6.48c0.05-0.13,0.13-0.25,0.22-0.35
								c0.02-0.02,2.07-2.22,2.02-4.56c-0.04-1.58-1.38-2.78-1.95-3.09c-1.51,0.63-14.86,6.01-42.63,7.86
								c-8.74,0.59-18.42,0.88-28.78,0.88C265.56,404.36,250.23,403.37,247.78,403.2z"/>
						</g>
						<g>
							<linearGradient id="SVGID_14_" gradientUnits="userSpaceOnUse" x1="247.5117" y1="404.7662" x2="248.5069" y2="404.7662">
								<stop  offset="0.0199" style="stop-color:#ACB3B7"/>
								<stop  offset="0.0837" style="stop-color:#93989D"/>
								<stop  offset="0.2254" style="stop-color:#65696E"/>
								<stop  offset="0.3495" style="stop-color:#474D51"/>
								<stop  offset="0.4501" style="stop-color:#373D42"/>
								<stop  offset="0.5144" style="stop-color:#32383C"/>
								<stop  offset="0.58" style="stop-color:#363C40"/>
								<stop  offset="0.6683" style="stop-color:#42484C"/>
								<stop  offset="0.7695" style="stop-color:#585D62"/>
								<stop  offset="0.8804" style="stop-color:#7A7F84"/>
								<stop  offset="0.9978" style="stop-color:#ABB2B6"/>
								<stop  offset="1" style="stop-color:#ACB3B7"/>
							</linearGradient>
							<path class="st26" d="M247.51,404.73c0,0,0.29,0.03,0.82,0.08c0.11-0.05,0.18-0.08,0.18-0.08H247.51z"/>
							<linearGradient id="SVGID_15_" gradientUnits="userSpaceOnUse" x1="244.8598" y1="404.6855" x2="355.5287" y2="404.6855">
								<stop  offset="0.0199" style="stop-color:#ACB3B7"/>
								<stop  offset="0.0837" style="stop-color:#93989D"/>
								<stop  offset="0.2254" style="stop-color:#65696E"/>
								<stop  offset="0.3495" style="stop-color:#474D51"/>
								<stop  offset="0.4501" style="stop-color:#373D42"/>
								<stop  offset="0.5144" style="stop-color:#32383C"/>
								<stop  offset="0.58" style="stop-color:#363C40"/>
								<stop  offset="0.6683" style="stop-color:#42484C"/>
								<stop  offset="0.7695" style="stop-color:#585D62"/>
								<stop  offset="0.8804" style="stop-color:#7A7F84"/>
								<stop  offset="0.9978" style="stop-color:#ABB2B6"/>
								<stop  offset="1" style="stop-color:#ACB3B7"/>
							</linearGradient>
							<path class="st27" d="M348.57,399.29c-4.7,1.36-17.12,4.5-45.65,6.21c-27.2,1.63-50.07-0.27-54.59-0.69
								c-0.74,0.35-3.62,1.79-3.47,3.12c0.18,1.5,19.07,5.45,59.31,2.27c40.24-3.18,48.79-8.78,50.79-10.9
								C356.98,397.17,353.27,397.93,348.57,399.29z"/>
						</g>
					</g>
					<linearGradient id="SVGID_16_" gradientUnits="userSpaceOnUse" x1="257.8562" y1="386.1176" x2="222.706" y2="386.1176">
						<stop  offset="0.0199" style="stop-color:#ACB3B7"/>
						<stop  offset="0.0837" style="stop-color:#93989D"/>
						<stop  offset="0.2254" style="stop-color:#65696E"/>
						<stop  offset="0.3495" style="stop-color:#474D51"/>
						<stop  offset="0.4501" style="stop-color:#373D42"/>
						<stop  offset="0.5144" style="stop-color:#32383C"/>
						<stop  offset="0.58" style="stop-color:#363C40"/>
						<stop  offset="0.6683" style="stop-color:#42484C"/>
						<stop  offset="0.7695" style="stop-color:#585D62"/>
						<stop  offset="0.8804" style="stop-color:#7A7F84"/>
						<stop  offset="0.9978" style="stop-color:#ABB2B6"/>
						<stop  offset="1" style="stop-color:#ACB3B7"/>
					</linearGradient>
					<path class="st28" d="M258.95,414.34c-2.85-0.28-5.95-1.17-6.95-3.92c-1.02-2.79,1.2-6.9,4.18-7.67
						c-0.06-1.75-0.15-3.51-0.06-5.27c-1.93-0.57-3.56-1.75-3.83-3.94c-0.4-3.21,1.95-6.65,5.03-7.68
						c-0.04-1.58,0.04-3.17,0.21-4.74c-2.67-0.62-4.88-2.55-5.2-5.49c-0.3-2.8,1.24-5.03,3.6-6.11c0.04-2.31,0.09-4.62,0.1-6.93
						c-3.01-2-5.64-5.05-2.53-8.39c1.48-1.6,4.79-2.92,4.76-5.47c-0.02-1.79-0.26-3.55-0.35-5.33c-0.12-2.6-0.05-5.22,0.09-7.84
						l-11.61-0.11v16.28c-1.8,1.24-5.02,3.88-4.42,6.53c0.56,2.51,2.96,3.53,4.42,3.94v6.74c-1.8,1.24-5.02,3.89-4.42,6.54
						c0.56,2.5,2.96,3.53,4.42,3.94v6.46c-1.8,1.24-5.02,3.89-4.42,6.54c0.56,2.5,2.96,3.53,4.42,3.93v6.47
						c-1.8,1.24-5.02,3.89-4.42,6.54c0.81,3.64,5.56,4.19,5.56,4.19s1.23,0.15,3.44,0.36c3.34,3.86,9.14,10.15,15.24,14.76h0.23
						l7.66,8.12C268.73,429.54,264.01,421.82,258.95,414.34z"/>
					<defs>
						<filter id="Adobe_OpacityMaskFilter_2_" filterUnits="userSpaceOnUse" x="276.93" y="335.31" width="32.04" height="105.43">
							<feFlood  style="flood-color:white;flood-opacity:1" result="back"/>
							<feBlend  in="SourceGraphic" in2="back" mode="normal"/>
						</filter>
					</defs>
					<mask maskUnits="userSpaceOnUse" x="276.93" y="335.31" width="32.04" height="105.43" id="SVGID_17_">
						<g class="st29">
							<defs>
								
									<filter id="Adobe_OpacityMaskFilter_3_" filterUnits="userSpaceOnUse" x="276.93" y="335.31" width="32.04" height="105.43">
									<feFlood  style="flood-color:white;flood-opacity:1" result="back"/>
									<feBlend  in="SourceGraphic" in2="back" mode="normal"/>
								</filter>
							</defs>
							<mask maskUnits="userSpaceOnUse" x="276.93" y="335.31" width="32.04" height="105.43" id="SVGID_17_">
								<g class="st30">
								</g>
							</mask>
							<linearGradient id="SVGID_18_" gradientUnits="userSpaceOnUse" x1="276.9333" y1="388.0255" x2="308.9684" y2="388.0255">
								<stop  offset="0" style="stop-color:#000000"/>
								<stop  offset="0.0726" style="stop-color:#353535"/>
								<stop  offset="0.1651" style="stop-color:#727272"/>
								<stop  offset="0.2541" style="stop-color:#A4A4A4"/>
								<stop  offset="0.3372" style="stop-color:#CCCCCC"/>
								<stop  offset="0.413" style="stop-color:#E8E8E8"/>
								<stop  offset="0.4791" style="stop-color:#F9F9F9"/>
								<stop  offset="0.5282" style="stop-color:#FFFFFF"/>
								<stop  offset="0.5668" style="stop-color:#F7F7F7"/>
								<stop  offset="0.6272" style="stop-color:#E1E1E1"/>
								<stop  offset="0.7019" style="stop-color:#BCBCBC"/>
								<stop  offset="0.7879" style="stop-color:#8A8A8A"/>
								<stop  offset="0.8836" style="stop-color:#494949"/>
								<stop  offset="0.9801" style="stop-color:#000000"/>
							</linearGradient>
							<path class="st31" d="M304.63,413.2c0.01-0.07,0.04-0.11,0.05-0.17c-0.01-0.45,0.2-0.9,0.75-1.07c3.21-1,3.43-5.27,1.78-7.77
								c-0.18-0.13-0.29-0.33-0.34-0.58c-0.2-0.33-0.21-0.69-0.07-1.01c-0.04-1.74-0.2-3.54-0.85-5.14
								c-0.2-0.47-0.04-0.84,0.26-1.07c-0.12-0.43-0.04-0.93,0.42-1.26c2.91-2.1,1.7-5.85,0.34-8.51c-0.13-0.25-0.14-0.48-0.09-0.69
								c-0.02-0.07-0.05-0.14-0.06-0.22c-0.1-2.25-0.48-4.45,0.19-6.65c0.57-1.89,2.1-3.18,1.96-5.39
								c-0.12-1.84-0.66-3.42-1.32-5.08c-0.33-0.16-0.61-0.45-0.65-0.91c-0.11-1.61-0.34-3.22-0.69-4.81
								c-0.11-0.47,0.06-0.99,0.51-1.23c4.63-2.59-0.75-8.66-0.73-12.09c0.03-4.67,0.16-9.35,0.48-14.02l-24.85-0.24v16.01
								c0,0.86-0.82,1.19-1.46,1c-2.37,1.63-4.86,6.33-2.08,8.76c1,0.87,2.18,1.46,3.17,2.34c1.75,1.56,0.75,4.67,0.92,6.66
								c0.06,0.69-0.45,1.04-0.99,1.04c-2.67,1.82-5.14,6.18-0.75,7.95c0.82,0.33,1.67,0.76,2.14,1.55c0.99,1.69,0.44,4.1,0.22,6.07
								c0.19,0.29,0.22,0.65-0.04,1.03c-0.04,0.06-0.08,0.12-0.12,0.18c-0.07,0.18-0.17,0.33-0.31,0.44
								c-1.77,2.51-3.28,4.87-0.42,7.59c0.93,0.89,1.68,1.81,1.7,3.17c0.04,2.3,0.42,3.77-0.85,5.73c-1.34,2.07-10.2,4.52,0.81,8.41
								c0.52,0.18,0.74,0.63,0.74,1.07c0,0.02,0.02,0.03,0.03,0.05c2.05,8.78,4.16,17.55,5.98,26.38h10.73
								C302.08,431.54,303.66,422.41,304.63,413.2z"/>
						</g>
					</mask>
					<linearGradient id="SVGID_19_" gradientUnits="userSpaceOnUse" x1="276.9333" y1="388.0255" x2="308.9684" y2="388.0255">
						<stop  offset="0" style="stop-color:#020203"/>
						<stop  offset="0.1142" style="stop-color:#161A1E"/>
						<stop  offset="0.2389" style="stop-color:#292F34"/>
						<stop  offset="0.3537" style="stop-color:#383F44"/>
						<stop  offset="0.4538" style="stop-color:#41494E"/>
						<stop  offset="0.5282" style="stop-color:#454D52"/>
						<stop  offset="0.5898" style="stop-color:#40484D"/>
						<stop  offset="0.686" style="stop-color:#343B40"/>
						<stop  offset="0.8049" style="stop-color:#22262C"/>
						<stop  offset="0.9405" style="stop-color:#080A0D"/>
						<stop  offset="0.9801" style="stop-color:#020203"/>
					</linearGradient>
					<path class="st32" d="M304.63,413.2c0.01-0.07,0.04-0.11,0.05-0.17c-0.01-0.45,0.2-0.9,0.75-1.07c3.21-1,3.43-5.27,1.78-7.77
						c-0.18-0.13-0.29-0.33-0.34-0.58c-0.2-0.33-0.21-0.69-0.07-1.01c-0.04-1.74-0.2-3.54-0.85-5.14c-0.2-0.47-0.04-0.84,0.26-1.07
						c-0.12-0.43-0.04-0.93,0.42-1.26c2.91-2.1,1.7-5.85,0.34-8.51c-0.13-0.25-0.14-0.48-0.09-0.69c-0.02-0.07-0.05-0.14-0.06-0.22
						c-0.1-2.25-0.48-4.45,0.19-6.65c0.57-1.89,2.1-3.18,1.96-5.39c-0.12-1.84-0.66-3.42-1.32-5.08c-0.33-0.16-0.61-0.45-0.65-0.91
						c-0.11-1.61-0.34-3.22-0.69-4.81c-0.11-0.47,0.06-0.99,0.51-1.23c4.63-2.59-0.75-8.66-0.73-12.09
						c0.03-4.67,0.16-9.35,0.48-14.02l-24.85-0.24v16.01c0,0.86-0.82,1.19-1.46,1c-2.37,1.63-4.86,6.33-2.08,8.76
						c1,0.87,2.18,1.46,3.17,2.34c1.75,1.56,0.75,4.67,0.92,6.66c0.06,0.69-0.45,1.04-0.99,1.04c-2.67,1.82-5.14,6.18-0.75,7.95
						c0.82,0.33,1.67,0.76,2.14,1.55c0.99,1.69,0.44,4.1,0.22,6.07c0.19,0.29,0.22,0.65-0.04,1.03c-0.04,0.06-0.08,0.12-0.12,0.18
						c-0.07,0.18-0.17,0.33-0.31,0.44c-1.77,2.51-3.28,4.87-0.42,7.59c0.93,0.89,1.68,1.81,1.7,3.17c0.04,2.3,0.42,3.77-0.85,5.73
						c-1.34,2.07-10.2,4.52,0.81,8.41c0.52,0.18,0.74,0.63,0.74,1.07c0,0.02,0.02,0.03,0.03,0.05c2.05,8.78,4.16,17.55,5.98,26.38
						h10.73C302.08,431.54,303.66,422.41,304.63,413.2z"/>
					<linearGradient id="SVGID_20_" gradientUnits="userSpaceOnUse" x1="347.3977" y1="388.7811" x2="364.8768" y2="388.7811">
						<stop  offset="0.0199" style="stop-color:#ACB3B7"/>
						<stop  offset="0.0837" style="stop-color:#93989D"/>
						<stop  offset="0.2254" style="stop-color:#65696E"/>
						<stop  offset="0.3495" style="stop-color:#474D51"/>
						<stop  offset="0.4501" style="stop-color:#373D42"/>
						<stop  offset="0.5144" style="stop-color:#32383C"/>
						<stop  offset="0.58" style="stop-color:#363C40"/>
						<stop  offset="0.6683" style="stop-color:#42484C"/>
						<stop  offset="0.7695" style="stop-color:#585D62"/>
						<stop  offset="0.8804" style="stop-color:#7A7F84"/>
						<stop  offset="0.9978" style="stop-color:#ABB2B6"/>
						<stop  offset="1" style="stop-color:#ACB3B7"/>
					</linearGradient>
					<path class="st33" d="M355.44,360.69c0,0-0.4,0.17-1.14,0.45v-6.18c2.68-1.27,2.18-2.02,2.18-2.02s2.38-2.5,2.32-5.34
						c-0.06-2.73-3-4.7-3.36-4.11c0,0-0.4,0.17-1.14,0.44v-7.44l-15.06-0.15c-0.15,3.96-0.29,7.92,0.15,11.88
						c3.11,2.67,3.68,8.92-0.55,10.32v6.24c0,0.03-0.01,0.04-0.01,0.07c2.44,1.68,4.32,3.74,3.59,7.15
						c-0.49,2.34-1.94,4.36-3.95,5.37v5.69c1.8,1.57,3.41,3.6,3.65,5.99c0.25,2.56-1.25,4.23-3.28,5.26v5.78
						c0,0.07-0.03,0.12-0.04,0.18c1.96,1.48,2.62,4.46,2.06,6.89c-0.54,2.32-2.09,3.32-3.94,3.99c-3.36,6.42-7.67,12.23-11.7,18.25
						c-2.63,3.92-5.19,7.91-7.83,11.82h0.09l11.84-12.56h-0.29c6.98-5.29,16.62-15.98,21.09-21.11c7.25-2.15,6.34-3.54,6.34-3.54
						s2.38-2.49,2.32-5.34c-0.06-2.73-3-4.7-3.36-4.11c0,0-0.4,0.17-1.14,0.45v-5.91c2.68-1.26,2.18-2.02,2.18-2.02
						s2.38-2.5,2.32-5.34c-0.06-2.73-3-4.7-3.36-4.11c0,0-0.4,0.17-1.14,0.44v-5.91c2.68-1.27,2.18-2.02,2.18-2.02
						s2.38-2.5,2.32-5.34C358.74,362.08,355.8,360.1,355.44,360.69z"/>
				</g>
			</g>
			<g>
				<linearGradient id="SVGID_21_" gradientUnits="userSpaceOnUse" x1="300.3363" y1="294.3709" x2="300.3363" y2="342.4672">
					<stop  offset="0.0199" style="stop-color:#ACB3B7"/>
					<stop  offset="0.0837" style="stop-color:#93989D"/>
					<stop  offset="0.2254" style="stop-color:#65696E"/>
					<stop  offset="0.3495" style="stop-color:#474D51"/>
					<stop  offset="0.4501" style="stop-color:#373D42"/>
					<stop  offset="0.5144" style="stop-color:#32383C"/>
					<stop  offset="0.58" style="stop-color:#363C40"/>
					<stop  offset="0.6683" style="stop-color:#42484C"/>
					<stop  offset="0.7695" style="stop-color:#585D62"/>
					<stop  offset="0.8804" style="stop-color:#7A7F84"/>
					<stop  offset="0.9978" style="stop-color:#ABB2B6"/>
					<stop  offset="1" style="stop-color:#ACB3B7"/>
				</linearGradient>
				<path class="st34" d="M352.15,333.74c0,5.29-23.2,9.58-51.81,9.58c-28.61,0-51.81-4.29-51.81-9.58s23.2-9.58,51.81-9.58
					C328.95,324.15,352.15,328.45,352.15,333.74z"/>
				<defs>
					<filter id="Adobe_OpacityMaskFilter_4_" filterUnits="userSpaceOnUse" x="248.53" y="324.15" width="103.62" height="14.99">
						<feFlood  style="flood-color:white;flood-opacity:1" result="back"/>
						<feBlend  in="SourceGraphic" in2="back" mode="normal"/>
					</filter>
				</defs>
				<mask maskUnits="userSpaceOnUse" x="248.53" y="324.15" width="103.62" height="14.99" id="SVGID_22_">
					<g class="st35">
						<defs>
							<filter id="Adobe_OpacityMaskFilter_5_" filterUnits="userSpaceOnUse" x="248.53" y="324.15" width="103.62" height="14.99">
								<feFlood  style="flood-color:white;flood-opacity:1" result="back"/>
								<feBlend  in="SourceGraphic" in2="back" mode="normal"/>
							</filter>
						</defs>
						<mask maskUnits="userSpaceOnUse" x="248.53" y="324.15" width="103.62" height="14.99" id="SVGID_22_">
							<g class="st36">
							</g>
						</mask>
						<linearGradient id="SVGID_23_" gradientUnits="userSpaceOnUse" x1="258.1989" y1="331.6463" x2="340.4028" y2="331.6463">
							<stop  offset="0" style="stop-color:#000000"/>
							<stop  offset="0.0726" style="stop-color:#353535"/>
							<stop  offset="0.1651" style="stop-color:#727272"/>
							<stop  offset="0.2541" style="stop-color:#A4A4A4"/>
							<stop  offset="0.3372" style="stop-color:#CCCCCC"/>
							<stop  offset="0.413" style="stop-color:#E8E8E8"/>
							<stop  offset="0.4791" style="stop-color:#F9F9F9"/>
							<stop  offset="0.5282" style="stop-color:#FFFFFF"/>
							<stop  offset="0.5668" style="stop-color:#F7F7F7"/>
							<stop  offset="0.6272" style="stop-color:#E1E1E1"/>
							<stop  offset="0.7019" style="stop-color:#BCBCBC"/>
							<stop  offset="0.7879" style="stop-color:#8A8A8A"/>
							<stop  offset="0.8836" style="stop-color:#494949"/>
							<stop  offset="0.9801" style="stop-color:#000000"/>
						</linearGradient>
						<path class="st37" d="M257.54,339.14c30.44-5.88,62.4-7.79,93.16-3.16c0.94-0.72,1.45-1.47,1.45-2.25
							c0-5.29-23.2-9.58-51.81-9.58c-28.61,0-51.81,4.29-51.81,9.58C248.53,335.74,251.85,337.6,257.54,339.14z"/>
					</g>
				</mask>
				<linearGradient id="SVGID_24_" gradientUnits="userSpaceOnUse" x1="258.1989" y1="331.6463" x2="340.4028" y2="331.6463">
					<stop  offset="0" style="stop-color:#020203"/>
					<stop  offset="0.1142" style="stop-color:#161A1E"/>
					<stop  offset="0.2389" style="stop-color:#292F34"/>
					<stop  offset="0.3537" style="stop-color:#383F44"/>
					<stop  offset="0.4538" style="stop-color:#41494E"/>
					<stop  offset="0.5282" style="stop-color:#454D52"/>
					<stop  offset="0.5898" style="stop-color:#40484D"/>
					<stop  offset="0.686" style="stop-color:#343B40"/>
					<stop  offset="0.8049" style="stop-color:#22262C"/>
					<stop  offset="0.9405" style="stop-color:#080A0D"/>
					<stop  offset="0.9801" style="stop-color:#020203"/>
				</linearGradient>
				<path class="st38" d="M257.54,339.14c30.44-5.88,62.4-7.79,93.16-3.16c0.94-0.72,1.45-1.47,1.45-2.25
					c0-5.29-23.2-9.58-51.81-9.58c-28.61,0-51.81,4.29-51.81,9.58C248.53,335.74,251.85,337.6,257.54,339.14z"/>
			</g>
		</g>
		<g>
			<radialGradient id="SVGID_25_" cx="300.3363" cy="186.7075" r="143.8933" gradientUnits="userSpaceOnUse">
				<stop  offset="0.0235" style="stop-color:#FFFFFF"/>
				<stop  offset="0.2581" style="stop-color:#FCFCFC"/>
				<stop  offset="0.3941" style="stop-color:#F1F0F1"/>
				<stop  offset="0.5049" style="stop-color:#DFDDDE"/>
				<stop  offset="0.6022" style="stop-color:#C6C4C5"/>
				<stop  offset="0.6907" style="stop-color:#A9A7A7"/>
				<stop  offset="0.7727" style="stop-color:#868585"/>
				<stop  offset="0.8483" style="stop-color:#636363"/>
				<stop  offset="0.8785" style="stop-color:#545656"/>
				<stop  offset="1" style="stop-color:#484A4C"/>
			</radialGradient>
			<path class="st39" d="M418.19,170.76c0-61.86-50.46-112.01-112.71-112.01c-1.73,0-8.56,0-10.29,0
				c-62.24,0-112.71,50.15-112.71,112.01c0,8.18-3.52,53.65,35.29,96.76c15.65,21.68,13.92,30.51,21.8,60.69
				c0,0,2.15,6.13,9.87,10.88c1.47,1.44,4.69,2.77,9.22,3.91c0.14,0.04,0.3,0.07,0.44,0.1c9.46,2.3,24.4,3.78,41.22,3.78
				c16.82,0,31.77-1.48,41.23-3.78c0.14-0.03,0.3-0.07,0.44-0.1c4.54-1.13,7.75-2.46,9.23-3.91c7.72-4.75,9.87-10.88,9.87-10.88
				c7.88-30.18,6.15-39.01,21.8-60.69C421.71,224.41,418.19,178.94,418.19,170.76z"/>
			<radialGradient id="SVGID_26_" cx="289.8649" cy="232.3894" r="150.2231" gradientUnits="userSpaceOnUse">
				<stop  offset="0.0235" style="stop-color:#FFFFFF"/>
				<stop  offset="0.2576" style="stop-color:#FDFDFD"/>
				<stop  offset="0.3933" style="stop-color:#F4F5F7"/>
				<stop  offset="0.504" style="stop-color:#E6E7EB"/>
				<stop  offset="0.6011" style="stop-color:#D2D5DA"/>
				<stop  offset="0.6894" style="stop-color:#BABEC6"/>
				<stop  offset="0.7712" style="stop-color:#9BA4AF"/>
				<stop  offset="0.8466" style="stop-color:#798795"/>
				<stop  offset="0.8785" style="stop-color:#687B8A"/>
				<stop  offset="0.9211" style="stop-color:#5E6B75"/>
				<stop  offset="1" style="stop-color:#484A4C"/>
			</radialGradient>
			<path class="st40" d="M372.87,259.72c-11.45,8.38-26.54,14.45-30.24,29.6c-2.96,12.15-2.44,25.09-11.64,34.72
				c-14.41,15.1-38.98,17.71-58.1,11.28c-9.74-3.27-18.73-8.65-23.53-18.09c-5.2-10.24-6.22-21.83-10.55-32.37
				c-4.31-10.51-12.75-18.93-20.29-27.63c-9.68-9.74-17.64-21.3-23.66-33.59c-6.57-13.42-11.45-27.93-12.41-42.93
				c0.46,17.53,4.79,52.89,35.33,86.8c15.65,21.68,13.92,30.51,21.8,60.69c0,0,2.15,6.13,9.87,10.88c1.47,1.44,4.69,2.77,9.22,3.91
				c0.14,0.04,0.3,0.07,0.44,0.1c9.46,2.3,24.4,3.78,41.22,3.78c16.82,0,31.77-1.48,41.23-3.78c0.14-0.03,0.3-0.07,0.44-0.1
				c4.54-1.13,7.75-2.46,9.23-3.91c7.72-4.75,9.87-10.88,9.87-10.88c7.88-30.18,6.15-39.01,21.8-60.69
				c19.7-21.87,28.48-44.35,32.37-62.26c-0.83,1.87-1.7,3.71-2.59,5.54C405.35,230.62,389.51,247.55,372.87,259.72z"/>
			<g>
				<path class="st41" d="M311.16,295.18c0,0-2.19,0.73,0,3.82c0,0,5.1,9.65,3.28,21.11c-1.82,11.47-11.46,14.29-16.2,13.1
					c-4.73-1.18-14.56,1.28-13.1,3.64c0,0,7.55,3.83,19.34,2.19c11.79-1.64,14.15-2.37,15.06-10.73c0.91-8.37,0-29.3,0-29.3
					S316.26,292.63,311.16,295.18z"/>
				<path class="st42" d="M300.33,347.24c-16.37,0-31.49-1.39-41.48-3.81l-0.47-0.11c-4.74-1.19-7.98-2.57-9.61-4.09
					c-7.88-4.89-10.14-11.13-10.23-11.39c-2.02-7.71-3.39-13.94-4.6-19.43c-3.54-16.09-5.49-24.95-17.06-40.98
					c-24.3-26.98-36.28-59.14-35.53-95.51c0.02-0.76,0.03-1.4,0.03-1.89c0-62.36,51.05-113.1,113.8-113.1h10.29
					c62.75,0,113.8,50.74,113.8,113.1c0,0.49,0.01,1.12,0.03,1.89c0.75,36.37-11.23,68.53-35.6,95.59
					c-11.49,15.94-13.44,24.8-16.98,40.89c-1.21,5.49-2.58,11.72-4.57,19.35c-0.12,0.35-2.37,6.59-10.25,11.48
					c-1.63,1.52-4.87,2.9-9.63,4.09l-0.23,0.05C331.83,345.86,316.71,347.24,300.33,347.24z M240.64,327.2
					c0.01,0,2.15,5.77,9.38,10.23c0.07,0.04,0.13,0.09,0.19,0.15c0.91,0.89,3.15,2.23,8.73,3.63c0.01,0,0.45,0.11,0.46,0.11
					c9.8,2.37,24.73,3.74,40.94,3.74c16.21,0,31.15-1.37,40.97-3.75l0.23-0.06c5.77-1.45,8.02-2.79,8.93-3.68
					c0.06-0.05,0.12-0.1,0.19-0.15c7.26-4.47,9.39-10.26,9.41-10.32c1.95-7.5,3.32-13.71,4.52-19.18
					c3.6-16.37,5.59-25.4,17.42-41.79c24.07-26.73,35.86-58.39,35.12-94.18c-0.02-0.78-0.03-1.43-0.03-1.93
					c0-61.16-50.07-110.92-111.61-110.92h-10.29c-61.55,0-111.61,49.76-111.61,110.92c0,0.51-0.01,1.15-0.03,1.93
					c-0.74,35.79,11.05,67.45,35.04,94.09c11.91,16.48,13.9,25.51,17.5,41.88C237.29,313.41,238.66,319.61,240.64,327.2
					L240.64,327.2z"/>
				<g>
					<g>
						<path class="st43" d="M283.61,340.94c0.72,0.1,1.45,0.19,2.18,0.26v-49.91c-0.01-0.27-1-27.29-5.49-50.4
							c-4.53-23.29-13.02-67.34-13.05-67.45c-0.3-0.96-1.16-3.18-2.81-3.19c0,0-0.01,0-0.02,0c-1.52,0-2.3,1.81-2.74,3.17
							c-1.81,5.47,3.97,10.23,5.56,11.41c2.81,14.57,7.8,40.44,10.93,56.48c4.46,22.94,5.45,49.79,5.46,50.03V340.94z M263.74,174.1
							c0.29-0.89,0.54-1.33,0.69-1.54c0.24,0.31,0.54,0.92,0.7,1.4c0,0,0.54,2.81,1.43,7.39C264.8,179.6,262.82,176.87,263.74,174.1
							z"/>
						<path class="st43" d="M340.13,173.41c-0.45-1.36-1.23-3.17-2.74-3.17c-0.01,0-0.01,0-0.02,0c-1.65,0.01-2.52,2.24-2.84,3.31
							c0,0-8.49,44.04-13.02,67.34c-4.49,23.11-5.48,50.13-5.49,50.44v49.68c0.73-0.1,1.46-0.22,2.19-0.35v-49.29
							c0.01-0.27,0.99-27.12,5.45-50.06c3.01-15.49,7.78-40.15,10.62-54.9C335.72,185.06,341.95,178.91,340.13,173.41z
							 M335.04,182.42c0.99-5.13,1.6-8.33,1.6-8.33c0.18-0.58,0.49-1.21,0.73-1.52c0.15,0.21,0.39,0.65,0.69,1.54
							C338.94,176.75,336.99,180.04,335.04,182.42z"/>
					</g>
					<path class="st44" d="M273.8,174.67c-5.4,0-9.44-2.21-9.51-2.26l1.07-1.9c0.48,0.27,11.82,6.42,21.28-4.06l0.63-0.7l0.78,0.52
						c0.53,0.35,13.15,8.56,25.66,0l0.79-0.53l0.64,0.7c0.36,0.39,8.98,9.59,21.51,3.96l0.9,1.99c-11.92,5.36-20.89-1.57-23.35-3.82
						c-11.64,7.39-23.42,1.76-26.56-0.01C283.03,173.33,278.01,174.67,273.8,174.67z"/>
				</g>
				<g class="st45">
					<path class="st9" d="M323.03,293c0.29-2.91-2.68-2.96-2.68-2.96c-8.76,1.04-10.35-7.23-10.35-7.23v-53.51h3.47v-2.16
						c0.29-3.25-2.6-2.57-2.6-2.57h-7.21h-5.54h-7.21c0,0-2.89-0.69-2.61,2.57v2.16h3.48v53.51c0,0-1.6,8.27-10.35,7.23
						c0,0-2.97,0.05-2.68,2.96c0.29,2.91,0,48.23,0,48.23s10.93,1.73,22.14,1.47c11.2,0.25,22.13-1.47,22.13-1.47
						S322.73,295.91,323.03,293z M301.2,329.58c-5.96,0-10.79-7.15-10.79-15.97c0-8.82,4.83-15.97,10.79-15.97
						c5.96,0,10.8,7.15,10.8,15.97C312,322.43,307.16,329.58,301.2,329.58z"/>
					<path class="st41" d="M303.16,343.82L303.16,343.82c-0.76,0-1.52-0.01-2.29-0.03c-0.71,0.01-1.48,0.03-2.24,0.03
						c-10.33,0-19.94-1.5-20.04-1.51c-0.53-0.08-0.93-0.55-0.92-1.08c0.1-15.65,0.23-45.85,0.01-48.11
						c-0.15-1.45,0.36-2.37,0.82-2.88c1.08-1.21,2.73-1.28,2.92-1.28c0.62,0.06,1.07,0.09,1.5,0.09c6.48,0,7.74-6.17,7.8-6.44
						l-0.02-52.2h-2.38c-0.6,0-1.09-0.49-1.09-1.09v-2.16c-0.11-1.14,0.15-2.11,0.77-2.79c0.56-0.61,1.36-0.93,2.31-0.93
						c0.31,0,0.56,0.03,0.71,0.06h19.73c0.15-0.03,0.41-0.06,0.71-0.06c0.96,0,1.76,0.32,2.31,0.93c0.62,0.68,0.88,1.65,0.77,2.89
						l0,2.06c0,0.61-0.49,1.09-1.09,1.09h-2.38v52.42c0.03,0.05,1.51,7.05,9.13,6.14c0.33,0.02,1.98,0.06,3.06,1.27
						c0.46,0.52,0.97,1.43,0.82,2.88c-0.22,2.26-0.09,32.46,0.01,48.11c0,0.54-0.39,1-0.92,1.08
						C323.1,342.32,313.49,343.82,303.16,343.82z M300.87,341.61c0.8,0.02,1.54,0.02,2.29,0.02c8.31,0,16.14-0.99,18.77-1.35
						c-0.04-6.71-0.26-44.66,0.01-47.39c0.05-0.54-0.04-0.94-0.28-1.21c-0.44-0.5-1.31-0.55-1.32-0.55
						c-0.42,0.06-0.95,0.09-1.46,0.09c-6.62,0-9.4-5.37-9.95-8.21l-0.02-53.72c0-0.6,0.49-1.09,1.09-1.09h2.38v-1.07
						c0.06-0.68-0.02-1.11-0.2-1.31c-0.36-0.4-1.06-0.18-1.06-0.18c-0.08,0.01-0.17,0.02-0.24,0.02h-19.95
						c-0.08,0-0.17-0.01-0.25-0.03l0,0c0-0.01-0.69-0.21-1.05,0.19c-0.19,0.2-0.26,0.64-0.21,1.22l0,1.16h2.38
						c0.6,0,1.09,0.49,1.09,1.09v53.51c-0.61,3.27-3.71,9.25-11.57,8.31c-0.09,0.01-0.81,0.13-1.18,0.56
						c-0.24,0.27-0.33,0.67-0.27,1.21c0.27,2.74,0.05,40.68,0.01,47.39C282.72,340.68,291.75,341.81,300.87,341.61z M301.2,330.67
						c-6.55,0-11.88-7.65-11.88-17.06c0-9.4,5.33-17.06,11.88-17.06c6.56,0,11.89,7.66,11.89,17.06
						C313.09,323.02,307.76,330.67,301.2,330.67z M301.2,298.73c-5.35,0-9.7,6.67-9.7,14.87c0,8.21,4.35,14.88,9.7,14.88
						c5.35,0,9.7-6.68,9.7-14.88C310.9,305.4,306.55,298.73,301.2,298.73z"/>
				</g>
				<path class="st46" d="M323.03,293c0.29-2.91-2.68-2.96-2.68-2.96c-8.76,1.04-10.35-7.23-10.35-7.23v-53.51h3.47v-2.16
					c0.29-3.25-2.6-2.57-2.6-2.57h-7.21h-5.54h-7.21c0,0-2.89-0.69-2.61,2.57v2.16h3.48v53.51c0,0-1.6,8.27-10.35,7.23
					c0,0-2.97,0.05-2.68,2.96c0.29,2.91,0,48.23,0,48.23s10.93,1.73,22.14,1.47c11.2,0.25,22.13-1.47,22.13-1.47
					S322.73,295.91,323.03,293z M301.2,329.58c-5.96,0-10.79-7.15-10.79-15.97c0-8.82,4.83-15.97,10.79-15.97
					c5.96,0,10.8,7.15,10.8,15.97C312,322.43,307.16,329.58,301.2,329.58z"/>
				<path class="st46" d="M294.23,231.66v53.51c0,0-1.45,5.82-7.82,8.19c-6.37,2.37-4.91,20.56-4.91,20.56s0,14.2,12.01,18.11
					c0,0,0.9,0.4,0.73-1.12c-0.18-1.52-13.65-11.04-6.43-28.82c4.38-10.79,12.98-4.37,15.53-12.01c2.55-7.64,0-58.42,0-58.42H294.23
					z"/>
				<path class="st16" d="M293.14,224.6c-0.03-0.38-2.84-36.25-5.04-51.3c-1.06-0.07-3.54-0.48-4.74-2.65
					c-0.81-1.46-0.4-4.07,0.52-5.44c0.49-0.74,1.12-1.09,1.76-1.02c0.91,0.11,1.67,1.02,2.32,2.78c0.28,0.77,0.59,2.18,0.94,4.31
					c2.23,13.74,5.3,52.83,5.33,53.22L293.14,224.6z M285.48,165.29c-0.29,0-0.58,0.38-0.69,0.54c-0.71,1.06-1.07,3.21-0.47,4.3
					c0.86,1.55,2.67,1.96,3.62,2.07c-0.04-0.25-0.08-0.49-0.12-0.73c-0.33-2.03-0.62-3.41-0.88-4.1c-0.69-1.85-1.27-2.06-1.43-2.08
					C285.5,165.29,285.49,165.29,285.48,165.29z"/>
				<path class="st16" d="M307.43,224.6l-1.09-0.09c0.03-0.39,3.09-39.49,5.33-53.22c0.35-2.13,0.65-3.54,0.94-4.31
					c0.65-1.77,1.41-2.68,2.32-2.78c0.64-0.07,1.27,0.28,1.76,1.02c0.92,1.36,1.33,3.98,0.52,5.44c-1.21,2.17-3.68,2.57-4.74,2.65
					C310.27,188.35,307.46,224.23,307.43,224.6z M315.1,165.29c-0.01,0-0.03,0-0.04,0c-0.17,0.02-0.74,0.23-1.43,2.08
					c-0.25,0.69-0.56,2.07-0.88,4.1c-0.04,0.23-0.08,0.48-0.12,0.73c0.95-0.11,2.75-0.52,3.62-2.07c0.61-1.08,0.24-3.24-0.47-4.3
					C315.67,165.66,315.39,165.29,315.1,165.29z"/>
				<defs>
					<filter id="Adobe_OpacityMaskFilter_6_" filterUnits="userSpaceOnUse" x="189.02" y="67.48" width="186.42" height="172.3">
						<feFlood  style="flood-color:white;flood-opacity:1" result="back"/>
						<feBlend  in="SourceGraphic" in2="back" mode="normal"/>
					</filter>
				</defs>
				<mask maskUnits="userSpaceOnUse" x="189.02" y="67.48" width="186.42" height="172.3" id="SVGID_27_">
					<g class="st47">
						<defs>
							<filter id="Adobe_OpacityMaskFilter_7_" filterUnits="userSpaceOnUse" x="189.02" y="67.48" width="186.42" height="172.3">
								<feFlood  style="flood-color:white;flood-opacity:1" result="back"/>
								<feBlend  in="SourceGraphic" in2="back" mode="normal"/>
							</filter>
						</defs>
						<mask maskUnits="userSpaceOnUse" x="189.02" y="67.48" width="186.42" height="172.3" id="SVGID_27_">
							<g class="st48">
							</g>
						</mask>
						<radialGradient id="SVGID_28_" cx="232.5351" cy="40.091" r="105.4849" gradientUnits="userSpaceOnUse">
							<stop  offset="0.0235" style="stop-color:#FFFFFF"/>
							<stop  offset="0.253" style="stop-color:#FDFDFD"/>
							<stop  offset="0.3862" style="stop-color:#F4F4F4"/>
							<stop  offset="0.4947" style="stop-color:#E6E6E6"/>
							<stop  offset="0.5899" style="stop-color:#D2D2D2"/>
							<stop  offset="0.6766" style="stop-color:#B8B8B8"/>
							<stop  offset="0.7569" style="stop-color:#999999"/>
							<stop  offset="0.8324" style="stop-color:#737373"/>
							<stop  offset="0.9041" style="stop-color:#474747"/>
							<stop  offset="0.9703" style="stop-color:#161616"/>
							<stop  offset="0.9978" style="stop-color:#000000"/>
						</radialGradient>
						<path class="st49" d="M340.46,71.26c0,0-72.44-18.07-116.29,24.84c-42.3,41.38-41.7,94.99-22.92,137.06
							c0,0,5.15,11.67,5.51,4.03c0.36-7.64-17.38-92.16,44.71-125.47c62.09-33.31,93.78-18.13,109.07-11.58
							c0,0,13.91,8.74,14.87,1.64C376.37,94.69,359.52,75.1,340.46,71.26z"/>
					</g>
				</mask>
				<radialGradient id="SVGID_29_" cx="232.5351" cy="40.091" r="105.4849" gradientUnits="userSpaceOnUse">
					<stop  offset="0.0235" style="stop-color:#FFFFFF"/>
					<stop  offset="0.8612" style="stop-color:#FFFFFF"/>
					<stop  offset="0.9978" style="stop-color:#FFFFFF"/>
				</radialGradient>
				<path class="st50" d="M340.46,71.26c0,0-72.44-18.07-116.29,24.84c-42.3,41.38-41.7,94.99-22.92,137.06
					c0,0,5.15,11.67,5.51,4.03c0.36-7.64-17.38-92.16,44.71-125.47c62.09-33.31,93.78-18.13,109.07-11.58c0,0,13.91,8.74,14.87,1.64
					C376.37,94.69,359.52,75.1,340.46,71.26z"/>
				<defs>
					<filter id="Adobe_OpacityMaskFilter_8_" filterUnits="userSpaceOnUse" x="189.03" y="67.49" width="130.72" height="133.51">
						<feFlood  style="flood-color:white;flood-opacity:1" result="back"/>
						<feBlend  in="SourceGraphic" in2="back" mode="normal"/>
					</filter>
				</defs>
				<mask maskUnits="userSpaceOnUse" x="189.03" y="67.49" width="130.72" height="133.51" id="SVGID_30_">
					<g class="st51">
						<defs>
							<filter id="Adobe_OpacityMaskFilter_9_" filterUnits="userSpaceOnUse" x="189.03" y="67.49" width="130.72" height="133.51">
								<feFlood  style="flood-color:white;flood-opacity:1" result="back"/>
								<feBlend  in="SourceGraphic" in2="back" mode="normal"/>
							</filter>
						</defs>
						<mask maskUnits="userSpaceOnUse" x="189.03" y="67.49" width="130.72" height="133.51" id="SVGID_30_">
							<g class="st52">
							</g>
						</mask>
						<radialGradient id="SVGID_31_" cx="224.8932" cy="54.943" r="75.5172" gradientUnits="userSpaceOnUse">
							<stop  offset="0.0235" style="stop-color:#FFFFFF"/>
							<stop  offset="0.253" style="stop-color:#FDFDFD"/>
							<stop  offset="0.3862" style="stop-color:#F4F4F4"/>
							<stop  offset="0.4947" style="stop-color:#E6E6E6"/>
							<stop  offset="0.5899" style="stop-color:#D2D2D2"/>
							<stop  offset="0.6766" style="stop-color:#B8B8B8"/>
							<stop  offset="0.7569" style="stop-color:#999999"/>
							<stop  offset="0.8324" style="stop-color:#737373"/>
							<stop  offset="0.9041" style="stop-color:#474747"/>
							<stop  offset="0.9703" style="stop-color:#161616"/>
							<stop  offset="0.9978" style="stop-color:#000000"/>
						</radialGradient>
						<path class="st53" d="M198.17,150.09c7.89-21.28,22.82-40.05,40.87-53.68c24.16-18.22,51.91-26.18,80.72-28.27
							C295,66.01,253.3,67.61,224.17,96.1c-32.08,31.39-39.48,69.81-32.98,104.9C190.96,183.7,192.14,166.35,198.17,150.09z"/>
					</g>
				</mask>
				<radialGradient id="SVGID_32_" cx="224.8932" cy="54.943" r="75.5172" gradientUnits="userSpaceOnUse">
					<stop  offset="0.0235" style="stop-color:#FFFFFF"/>
					<stop  offset="0.8612" style="stop-color:#FFFFFF"/>
					<stop  offset="0.9978" style="stop-color:#FFFFFF"/>
				</radialGradient>
				<path class="st54" d="M198.17,150.09c7.89-21.28,22.82-40.05,40.87-53.68c24.16-18.22,51.91-26.18,80.72-28.27
					C295,66.01,253.3,67.61,224.17,96.1c-32.08,31.39-39.48,69.81-32.98,104.9C190.96,183.7,192.14,166.35,198.17,150.09z"/>
				<g>
					<defs>
						
							<filter id="Adobe_OpacityMaskFilter_10_" filterUnits="userSpaceOnUse" x="287.15" y="147.52" width="125.44" height="135.93">
							<feFlood  style="flood-color:white;flood-opacity:1" result="back"/>
							<feBlend  in="SourceGraphic" in2="back" mode="normal"/>
						</filter>
					</defs>
					<mask maskUnits="userSpaceOnUse" x="287.15" y="147.52" width="125.44" height="135.93" id="SVGID_33_">
						<g class="st55">
							<defs>
								
									<filter id="Adobe_OpacityMaskFilter_11_" filterUnits="userSpaceOnUse" x="287.15" y="147.52" width="125.44" height="135.93">
									<feFlood  style="flood-color:white;flood-opacity:1" result="back"/>
									<feBlend  in="SourceGraphic" in2="back" mode="normal"/>
								</filter>
							</defs>
							<mask maskUnits="userSpaceOnUse" x="287.15" y="147.52" width="125.44" height="135.93" id="SVGID_33_">
								<g class="st56">
								</g>
							</mask>
							<radialGradient id="SVGID_34_" cx="421.4515" cy="255.8681" r="81.9062" gradientUnits="userSpaceOnUse">
								<stop  offset="0.0235" style="stop-color:#FFFFFF"/>
								<stop  offset="0.253" style="stop-color:#FDFDFD"/>
								<stop  offset="0.3862" style="stop-color:#F4F4F4"/>
								<stop  offset="0.4947" style="stop-color:#E6E6E6"/>
								<stop  offset="0.5899" style="stop-color:#D2D2D2"/>
								<stop  offset="0.6766" style="stop-color:#B8B8B8"/>
								<stop  offset="0.7569" style="stop-color:#999999"/>
								<stop  offset="0.8324" style="stop-color:#737373"/>
								<stop  offset="0.9041" style="stop-color:#474747"/>
								<stop  offset="0.9703" style="stop-color:#161616"/>
								<stop  offset="0.9978" style="stop-color:#000000"/>
							</radialGradient>
							<path class="st57" d="M408.68,147.52c-2.91,15.89-8.39,31.32-15.4,45.94c-8.08,16.87-17.77,33.72-30.93,47.43
								c-19.73,20.54-46.41,36.96-75.2,42.44c24.57,0.92,58.1-3.06,84.44-25.72c18.05-15.54,28.7-33.62,34.7-50.87
								C413.27,181.6,414.98,164.63,408.68,147.52z"/>
						</g>
					</mask>
					<radialGradient id="SVGID_35_" cx="421.4515" cy="255.8681" r="81.9062" gradientUnits="userSpaceOnUse">
						<stop  offset="0.0235" style="stop-color:#FFFFFF"/>
						<stop  offset="0.8612" style="stop-color:#FFFFFF"/>
						<stop  offset="0.9978" style="stop-color:#FFFFFF"/>
					</radialGradient>
					<path class="st58" d="M408.68,147.52c-2.91,15.89-8.39,31.32-15.4,45.94c-8.08,16.87-17.77,33.72-30.93,47.43
						c-19.73,20.54-46.41,36.96-75.2,42.44c24.57,0.92,58.1-3.06,84.44-25.72c18.05-15.54,28.7-33.62,34.7-50.87
						C413.27,181.6,414.98,164.63,408.68,147.52z"/>
					<defs>
						<filter id="Adobe_OpacityMaskFilter_12_" filterUnits="userSpaceOnUse" x="199.92" y="196.12" width="91.87" height="87.34">
							<feFlood  style="flood-color:white;flood-opacity:1" result="back"/>
							<feBlend  in="SourceGraphic" in2="back" mode="normal"/>
						</filter>
					</defs>
					<mask maskUnits="userSpaceOnUse" x="199.92" y="196.12" width="91.87" height="87.34" id="SVGID_36_">
						<g class="st59">
							<defs>
								
									<filter id="Adobe_OpacityMaskFilter_13_" filterUnits="userSpaceOnUse" x="199.92" y="196.12" width="91.87" height="87.34">
									<feFlood  style="flood-color:white;flood-opacity:1" result="back"/>
									<feBlend  in="SourceGraphic" in2="back" mode="normal"/>
								</filter>
							</defs>
							<mask maskUnits="userSpaceOnUse" x="199.92" y="196.12" width="91.87" height="87.34" id="SVGID_36_">
								<g class="st60">
								</g>
							</mask>
							<radialGradient id="SVGID_37_" cx="211.2421" cy="279.8918" r="48.1255" gradientUnits="userSpaceOnUse">
								<stop  offset="0.0235" style="stop-color:#FFFFFF"/>
								<stop  offset="0.253" style="stop-color:#FDFDFD"/>
								<stop  offset="0.3862" style="stop-color:#F4F4F4"/>
								<stop  offset="0.4947" style="stop-color:#E6E6E6"/>
								<stop  offset="0.5899" style="stop-color:#D2D2D2"/>
								<stop  offset="0.6766" style="stop-color:#B8B8B8"/>
								<stop  offset="0.7569" style="stop-color:#999999"/>
								<stop  offset="0.8324" style="stop-color:#737373"/>
								<stop  offset="0.9041" style="stop-color:#474747"/>
								<stop  offset="0.9703" style="stop-color:#161616"/>
								<stop  offset="0.9978" style="stop-color:#000000"/>
							</radialGradient>
							<path class="st61" d="M202.78,196.12c2.13,10.21,6.14,20.13,11.27,29.52c5.91,10.83,13.02,21.66,22.66,30.47
								c14.45,13.2,33.99,23.75,55.08,27.27c-18,0.59-42.56-1.96-61.84-16.52c-13.22-9.98-21.02-21.61-25.42-32.69
								C199.41,218.02,198.16,207.11,202.78,196.12z"/>
						</g>
					</mask>
					<radialGradient id="SVGID_38_" cx="211.2421" cy="279.8918" r="48.1255" gradientUnits="userSpaceOnUse">
						<stop  offset="0.0235" style="stop-color:#FFFFFF"/>
						<stop  offset="0.8612" style="stop-color:#FFFFFF"/>
						<stop  offset="0.9978" style="stop-color:#FFFFFF"/>
					</radialGradient>
					<path class="st62" d="M202.78,196.12c2.13,10.21,6.14,20.13,11.27,29.52c5.91,10.83,13.02,21.66,22.66,30.47
						c14.45,13.2,33.99,23.75,55.08,27.27c-18,0.59-42.56-1.96-61.84-16.52c-13.22-9.98-21.02-21.61-25.42-32.69
						C199.41,218.02,198.16,207.11,202.78,196.12z"/>
				</g>
			</g>
		</g>
	</g>
</g>
<g>
	<g>
		<polygon class="st63" points="224.56,411.14 175.05,411.14 178.36,390.5 220.59,390.5 		"/>
		<path class="st64" d="M224.6,412.14c-0.01,0-0.02,0-0.04,0h-49.51c-0.29,0-0.57-0.13-0.76-0.35c-0.19-0.22-0.27-0.52-0.23-0.8
			l3.31-20.64c0.08-0.49,0.5-0.84,0.98-0.84h42.23c0.48,0,0.89,0.34,0.98,0.81l3.92,20.37c0.07,0.14,0.11,0.29,0.11,0.45
			C225.59,411.69,225.15,412.14,224.6,412.14z M176.21,410.15h47.14l-3.58-18.65H179.2L176.21,410.15z"/>
	</g>
	<g>
		<polygon class="st63" points="427.53,411.14 378.02,411.14 381.33,390.5 423.56,390.5 		"/>
		<path class="st64" d="M427.57,412.14c-0.01,0-0.02,0-0.04,0h-49.51c-0.29,0-0.57-0.13-0.76-0.35c-0.18-0.22-0.27-0.52-0.22-0.8
			l3.31-20.64c0.08-0.49,0.5-0.84,0.98-0.84h42.24c0.48,0,0.89,0.34,0.98,0.81l3.92,20.37c0.07,0.14,0.11,0.29,0.11,0.45
			C428.57,411.69,428.12,412.14,427.57,412.14z M379.18,410.15h47.14l-3.58-18.65h-40.57L379.18,410.15z"/>
	</g>
	<g>
		<g>
			<path class="st18" d="M220.59,399.96c0,5.77-9.22,10.44-20.6,10.44c-11.38,0-20.6-4.67-20.6-10.44c0-5.77,9.23-10.44,20.6-10.44
				C211.37,389.52,220.59,394.19,220.59,399.96z"/>
			<g>
				<g>
					<path class="st65" d="M216.82,396.64c0,5.59-7.54,10.12-16.83,10.12c-9.29,0-16.83-4.53-16.83-10.12
						c0-5.58,7.54-12.54,16.83-12.54C209.28,384.1,216.82,391.06,216.82,396.64z"/>
					<path class="st64" d="M199.99,407.76c-10,0-17.82-4.88-17.82-11.11c0-6.13,7.95-13.54,17.82-13.54
						c9.87,0,17.82,7.41,17.82,13.54C217.82,402.88,209.99,407.76,199.99,407.76z M199.99,385.1c-8.53,0-15.83,6.35-15.83,11.55
						c0,5.03,7.1,9.13,15.83,9.13c8.73,0,15.83-4.1,15.83-9.13C215.83,391.44,208.52,385.1,199.99,385.1z"/>
				</g>
				<g>
					<path class="st66" d="M211.62,394.77c-0.17-0.26-2.94-4.35-8.67-6.99c1.4-0.26,2.93-0.45,4.63-0.52
						c0.58-0.03,1.01-0.48,1.04-1.04c-1.17-0.42-2.45-0.58-3.65-0.95c-2.17,0.24-4.06,0.64-5.73,1.18c-1.57-0.43-3.31-0.72-5.2-0.83
						c-1.29,0.45-2.55,0.96-3.79,1.52c0.15,0.39,0.52,0.65,1.06,0.64c1.53-0.07,2.95,0,4.27,0.17c-6.23,3.26-7.67,8.14-7.75,8.43
						c-0.17,0.59,0.17,1.18,0.76,1.35c0.1,0.02,0.2,0.04,0.3,0.04c0.48,0,0.92-0.31,1.06-0.8c0.08-0.28,1.74-5.57,9.38-8.23
						c6.99,2.12,10.27,6.97,10.46,7.24c0.21,0.32,0.56,0.49,0.92,0.49c0.21,0,0.42-0.06,0.6-0.18
						C211.82,395.95,211.96,395.27,211.62,394.77z"/>
					<path class="st67" d="M188.89,398.5c-0.17,0-0.34-0.02-0.5-0.07c-0.98-0.28-1.55-1.3-1.28-2.27c0.05-0.18,1.19-4.31,6.08-7.67
						c-0.61-0.02-1.22-0.01-1.85,0.02h0c-0.86,0-1.5-0.41-1.78-1.11c-0.15-0.37,0.02-0.79,0.39-0.95c1.37-0.62,2.63-1.13,3.85-1.55
						c0.09-0.03,0.19-0.05,0.29-0.04c1.79,0.1,3.52,0.37,5.14,0.8c1.73-0.53,3.64-0.92,5.67-1.14c0.11-0.01,0.21,0,0.31,0.03
						c0.53,0.17,1.08,0.29,1.63,0.42c0.67,0.15,1.37,0.31,2.05,0.55c0.31,0.12,0.51,0.42,0.49,0.75c-0.05,0.95-0.8,1.71-1.75,1.75
						c-0.78,0.04-1.54,0.09-2.29,0.18c4.58,2.68,6.81,6.02,6.92,6.18c0.27,0.41,0.36,0.9,0.26,1.38c-0.1,0.49-0.38,0.9-0.79,1.18
						c-0.8,0.53-2.01,0.3-2.56-0.53c-0.33-0.49-3.39-4.83-9.81-6.87c-7.17,2.58-8.67,7.6-8.69,7.65
						C190.44,397.95,189.71,398.5,188.89,398.5z M192.49,386.99c1.07,0,2.14,0.06,3.19,0.19c0.33,0.04,0.59,0.29,0.64,0.61
						c0.06,0.33-0.1,0.64-0.39,0.79c-6.05,3.17-7.36,7.92-7.38,7.97c-0.05,0.2,0.05,0.39,0.24,0.44l0.09,0.01
						c0.16,0,0.3-0.1,0.34-0.26c0.07-0.23,1.76-5.91,9.86-8.73c0.15-0.05,0.31-0.05,0.46-0.01c7.07,2.16,10.49,7,10.86,7.54
						c0.11,0.17,0.34,0.2,0.48,0.11c0.11-0.08,0.15-0.18,0.16-0.23c0.01-0.05,0.02-0.15-0.05-0.26c-0.11-0.17-2.76-4.14-8.36-6.73
						c-0.29-0.14-0.47-0.45-0.42-0.77c0.04-0.33,0.29-0.58,0.6-0.64c1.39-0.25,2.78-0.42,4.21-0.5c-0.18-0.04-0.36-0.08-0.53-0.12
						c-0.54-0.12-1.07-0.24-1.6-0.4c-1.95,0.23-3.78,0.61-5.43,1.13c-0.14,0.04-0.28,0.04-0.42,0.01c-1.54-0.41-3.18-0.68-4.9-0.8
						c-0.55,0.19-1.11,0.41-1.67,0.64C192.48,386.99,192.48,386.99,192.49,386.99z"/>
				</g>
				<path class="st68" d="M199.99,384.1c-9.29,0-16.83,6.96-16.83,12.54c0,5.59,7.54,10.12,16.83,10.12
					c9.29,0,16.83-4.53,16.83-10.12C216.82,391.06,209.28,384.1,199.99,384.1z M208.83,394.73c-4.35,4.42-14.42,6.38-20.08,3.51
					c-2.56-1.29-2.51-3.31-1.4-5.26c-0.13-0.2-0.17-0.45-0.09-0.76c1.57-5.23,8.79-6.96,13.64-6.7
					C204.85,385.74,214.15,389.34,208.83,394.73z"/>
			</g>
		</g>
		<g>
			<path class="st18" d="M423.38,399.96c0,5.77-9.23,10.44-20.6,10.44c-11.38,0-20.6-4.67-20.6-10.44c0-5.77,9.23-10.44,20.6-10.44
				C414.15,389.52,423.38,394.19,423.38,399.96z"/>
			<g>
				<g>
					<path class="st65" d="M419.6,396.64c0,5.59-7.54,10.12-16.83,10.12c-9.29,0-16.83-4.53-16.83-10.12
						c0-5.58,7.53-12.54,16.83-12.54C412.07,384.1,419.6,391.06,419.6,396.64z"/>
					<path class="st64" d="M402.77,407.76c-9.99,0-17.82-4.88-17.82-11.11c0-6.13,7.95-13.54,17.82-13.54
						c9.87,0,17.82,7.41,17.82,13.54C420.6,402.88,412.77,407.76,402.77,407.76z M402.77,385.1c-8.53,0-15.83,6.35-15.83,11.55
						c0,5.03,7.1,9.13,15.83,9.13c8.73,0,15.84-4.1,15.84-9.13C418.61,391.44,411.3,385.1,402.77,385.1z"/>
				</g>
				<g>
					<path class="st66" d="M414.41,394.77c-0.17-0.26-2.94-4.35-8.67-6.99c1.4-0.26,2.92-0.45,4.63-0.52
						c0.57-0.03,1.01-0.48,1.04-1.04c-1.17-0.42-2.45-0.58-3.65-0.95c-2.16,0.24-4.06,0.64-5.73,1.18c-1.57-0.43-3.31-0.72-5.2-0.83
						c-1.29,0.45-2.55,0.96-3.79,1.52c0.16,0.39,0.52,0.65,1.06,0.64c1.53-0.07,2.95,0,4.27,0.17c-6.23,3.26-7.67,8.14-7.75,8.43
						c-0.17,0.59,0.17,1.18,0.76,1.35c0.1,0.02,0.2,0.04,0.3,0.04c0.48,0,0.92-0.31,1.05-0.8c0.08-0.28,1.74-5.57,9.39-8.23
						c6.98,2.12,10.27,6.97,10.45,7.24c0.21,0.32,0.56,0.49,0.92,0.49c0.21,0,0.42-0.06,0.6-0.18
						C414.6,395.95,414.74,395.27,414.41,394.77z"/>
					<path class="st67" d="M391.68,398.5c-0.18,0-0.34-0.02-0.5-0.07c-0.98-0.28-1.55-1.3-1.27-2.27c0.05-0.18,1.18-4.31,6.08-7.67
						c-0.61-0.02-1.22-0.01-1.85,0.02c0,0-0.01,0-0.01,0c-0.86,0-1.5-0.41-1.78-1.11c-0.15-0.37,0.02-0.79,0.39-0.95
						c1.37-0.62,2.63-1.13,3.85-1.55c0.09-0.03,0.19-0.05,0.29-0.04c1.79,0.1,3.52,0.37,5.13,0.8c1.73-0.53,3.64-0.92,5.67-1.14
						c0.11-0.01,0.21,0,0.31,0.03c0.53,0.17,1.08,0.29,1.62,0.42c0.67,0.15,1.37,0.31,2.05,0.55c0.31,0.12,0.52,0.42,0.49,0.75
						c-0.05,0.95-0.8,1.71-1.75,1.75c-0.78,0.04-1.54,0.09-2.29,0.18c4.58,2.68,6.82,6.02,6.92,6.18c0.27,0.41,0.36,0.9,0.27,1.38
						c-0.1,0.49-0.39,0.9-0.8,1.18c-0.79,0.53-2.01,0.3-2.55-0.53c-0.33-0.49-3.39-4.83-9.82-6.87c-7.17,2.58-8.67,7.6-8.69,7.65
						C393.22,397.95,392.49,398.5,391.68,398.5z M395.27,386.99c1.06,0,2.14,0.06,3.19,0.19c0.33,0.04,0.59,0.29,0.64,0.61
						c0.06,0.33-0.1,0.64-0.39,0.79c-6.05,3.17-7.36,7.92-7.38,7.97c-0.05,0.2,0.05,0.39,0.24,0.44l0.1,0.01
						c0.15,0,0.3-0.1,0.34-0.26c0.07-0.23,1.76-5.91,9.86-8.73c0.15-0.05,0.31-0.05,0.46-0.01c7.07,2.16,10.49,7,10.86,7.54
						c0.11,0.17,0.35,0.2,0.48,0.11c0.11-0.08,0.15-0.18,0.16-0.23c0.01-0.05,0.02-0.15-0.05-0.26c-0.11-0.17-2.76-4.14-8.36-6.73
						c-0.3-0.14-0.47-0.45-0.43-0.77c0.04-0.33,0.29-0.58,0.61-0.64c1.39-0.25,2.78-0.42,4.21-0.5c-0.18-0.04-0.36-0.08-0.54-0.12
						c-0.54-0.12-1.07-0.24-1.59-0.4c-1.96,0.23-3.79,0.61-5.43,1.13c-0.14,0.04-0.28,0.04-0.42,0.01c-1.54-0.41-3.18-0.68-4.9-0.8
						c-0.55,0.19-1.11,0.41-1.67,0.64C395.26,386.99,395.27,386.99,395.27,386.99z"/>
				</g>
				<path class="st68" d="M402.77,384.1c-9.29,0-16.83,6.96-16.83,12.54c0,5.59,7.53,10.12,16.83,10.12
					c9.29,0,16.83-4.53,16.83-10.12C419.6,391.06,412.07,384.1,402.77,384.1z M411.62,394.73c-4.35,4.42-14.42,6.38-20.09,3.51
					c-2.56-1.29-2.51-3.31-1.4-5.26c-0.13-0.2-0.17-0.45-0.09-0.76c1.58-5.23,8.79-6.96,13.64-6.7
					C407.63,385.74,416.93,389.34,411.62,394.73z"/>
			</g>
		</g>
	</g>
</g>
<g>
	<g>
		<polygon class="st63" points="224.56,411.14 175.05,411.14 178.36,390.5 220.59,390.5 		"/>
		<path class="st64" d="M224.6,412.14c-0.01,0-0.02,0-0.04,0h-49.51c-0.29,0-0.57-0.13-0.76-0.35c-0.19-0.22-0.27-0.52-0.23-0.8
			l3.31-20.64c0.08-0.49,0.5-0.84,0.98-0.84h42.23c0.48,0,0.89,0.34,0.98,0.81l3.92,20.37c0.07,0.14,0.11,0.29,0.11,0.45
			C225.59,411.69,225.15,412.14,224.6,412.14z M176.21,410.15h47.14l-3.58-18.65H179.2L176.21,410.15z"/>
	</g>
	<g>
		<polygon class="st63" points="427.53,411.14 378.02,411.14 381.33,390.5 423.56,390.5 		"/>
		<path class="st64" d="M427.57,412.14c-0.01,0-0.02,0-0.04,0h-49.51c-0.29,0-0.57-0.13-0.76-0.35c-0.18-0.22-0.27-0.52-0.22-0.8
			l3.31-20.64c0.08-0.49,0.5-0.84,0.98-0.84h42.24c0.48,0,0.89,0.34,0.98,0.81l3.92,20.37c0.07,0.14,0.11,0.29,0.11,0.45
			C428.57,411.69,428.12,412.14,427.57,412.14z M379.18,410.15h47.14l-3.58-18.65h-40.57L379.18,410.15z"/>
	</g>
	<g>
		<g>
			<path class="st18" d="M220.59,399.96c0,5.77-9.22,10.44-20.6,10.44c-11.38,0-20.6-4.67-20.6-10.44c0-5.77,9.23-10.44,20.6-10.44
				C211.37,389.52,220.59,394.19,220.59,399.96z"/>
			<g>
				<g>
					<path class="st65" d="M216.82,396.64c0,5.59-7.54,10.12-16.83,10.12c-9.29,0-16.83-4.53-16.83-10.12
						c0-5.58,7.54-12.54,16.83-12.54C209.28,384.1,216.82,391.06,216.82,396.64z"/>
					<path class="st64" d="M199.99,407.76c-10,0-17.82-4.88-17.82-11.11c0-6.13,7.95-13.54,17.82-13.54
						c9.87,0,17.82,7.41,17.82,13.54C217.82,402.88,209.99,407.76,199.99,407.76z M199.99,385.1c-8.53,0-15.83,6.35-15.83,11.55
						c0,5.03,7.1,9.13,15.83,9.13c8.73,0,15.83-4.1,15.83-9.13C215.83,391.44,208.52,385.1,199.99,385.1z"/>
				</g>
				<g>
					<path class="st66" d="M211.62,394.77c-0.17-0.26-2.94-4.35-8.67-6.99c1.4-0.26,2.93-0.45,4.63-0.52
						c0.58-0.03,1.01-0.48,1.04-1.04c-1.17-0.42-2.45-0.58-3.65-0.95c-2.17,0.24-4.06,0.64-5.73,1.18c-1.57-0.43-3.31-0.72-5.2-0.83
						c-1.29,0.45-2.55,0.96-3.79,1.52c0.15,0.39,0.52,0.65,1.06,0.64c1.53-0.07,2.95,0,4.27,0.17c-6.23,3.26-7.67,8.14-7.75,8.43
						c-0.17,0.59,0.17,1.18,0.76,1.35c0.1,0.02,0.2,0.04,0.3,0.04c0.48,0,0.92-0.31,1.06-0.8c0.08-0.28,1.74-5.57,9.38-8.23
						c6.99,2.12,10.27,6.97,10.46,7.24c0.21,0.32,0.56,0.49,0.92,0.49c0.21,0,0.42-0.06,0.6-0.18
						C211.82,395.95,211.96,395.27,211.62,394.77z"/>
					<path class="st67" d="M188.89,398.5c-0.17,0-0.34-0.02-0.5-0.07c-0.98-0.28-1.55-1.3-1.28-2.27c0.05-0.18,1.19-4.31,6.08-7.67
						c-0.61-0.02-1.22-0.01-1.85,0.02h0c-0.86,0-1.5-0.41-1.78-1.11c-0.15-0.37,0.02-0.79,0.39-0.95c1.37-0.62,2.63-1.13,3.85-1.55
						c0.09-0.03,0.19-0.05,0.29-0.04c1.79,0.1,3.52,0.37,5.14,0.8c1.73-0.53,3.64-0.92,5.67-1.14c0.11-0.01,0.21,0,0.31,0.03
						c0.53,0.17,1.08,0.29,1.63,0.42c0.67,0.15,1.37,0.31,2.05,0.55c0.31,0.12,0.51,0.42,0.49,0.75c-0.05,0.95-0.8,1.71-1.75,1.75
						c-0.78,0.04-1.54,0.09-2.29,0.18c4.58,2.68,6.81,6.02,6.92,6.18c0.27,0.41,0.36,0.9,0.26,1.38c-0.1,0.49-0.38,0.9-0.79,1.18
						c-0.8,0.53-2.01,0.3-2.56-0.53c-0.33-0.49-3.39-4.83-9.81-6.87c-7.17,2.58-8.67,7.6-8.69,7.65
						C190.44,397.95,189.71,398.5,188.89,398.5z M192.49,386.99c1.07,0,2.14,0.06,3.19,0.19c0.33,0.04,0.59,0.29,0.64,0.61
						c0.06,0.33-0.1,0.64-0.39,0.79c-6.05,3.17-7.36,7.92-7.38,7.97c-0.05,0.2,0.05,0.39,0.24,0.44l0.09,0.01
						c0.16,0,0.3-0.1,0.34-0.26c0.07-0.23,1.76-5.91,9.86-8.73c0.15-0.05,0.31-0.05,0.46-0.01c7.07,2.16,10.49,7,10.86,7.54
						c0.11,0.17,0.34,0.2,0.48,0.11c0.11-0.08,0.15-0.18,0.16-0.23c0.01-0.05,0.02-0.15-0.05-0.26c-0.11-0.17-2.76-4.14-8.36-6.73
						c-0.29-0.14-0.47-0.45-0.42-0.77c0.04-0.33,0.29-0.58,0.6-0.64c1.39-0.25,2.78-0.42,4.21-0.5c-0.18-0.04-0.36-0.08-0.53-0.12
						c-0.54-0.12-1.07-0.24-1.6-0.4c-1.95,0.23-3.78,0.61-5.43,1.13c-0.14,0.04-0.28,0.04-0.42,0.01c-1.54-0.41-3.18-0.68-4.9-0.8
						c-0.55,0.19-1.11,0.41-1.67,0.64C192.48,386.99,192.48,386.99,192.49,386.99z"/>
				</g>
				<path class="st68" d="M199.99,384.1c-9.29,0-16.83,6.96-16.83,12.54c0,5.59,7.54,10.12,16.83,10.12
					c9.29,0,16.83-4.53,16.83-10.12C216.82,391.06,209.28,384.1,199.99,384.1z M208.83,394.73c-4.35,4.42-14.42,6.38-20.08,3.51
					c-2.56-1.29-2.51-3.31-1.4-5.26c-0.13-0.2-0.17-0.45-0.09-0.76c1.57-5.23,8.79-6.96,13.64-6.7
					C204.85,385.74,214.15,389.34,208.83,394.73z"/>
			</g>
		</g>
		<g>
			<path class="st18" d="M423.38,399.96c0,5.77-9.23,10.44-20.6,10.44c-11.38,0-20.6-4.67-20.6-10.44c0-5.77,9.23-10.44,20.6-10.44
				C414.15,389.52,423.38,394.19,423.38,399.96z"/>
			<g>
				<g>
					<path class="st65" d="M419.6,396.64c0,5.59-7.54,10.12-16.83,10.12c-9.29,0-16.83-4.53-16.83-10.12
						c0-5.58,7.53-12.54,16.83-12.54C412.07,384.1,419.6,391.06,419.6,396.64z"/>
					<path class="st64" d="M402.77,407.76c-9.99,0-17.82-4.88-17.82-11.11c0-6.13,7.95-13.54,17.82-13.54
						c9.87,0,17.82,7.41,17.82,13.54C420.6,402.88,412.77,407.76,402.77,407.76z M402.77,385.1c-8.53,0-15.83,6.35-15.83,11.55
						c0,5.03,7.1,9.13,15.83,9.13c8.73,0,15.84-4.1,15.84-9.13C418.61,391.44,411.3,385.1,402.77,385.1z"/>
				</g>
				<g>
					<path class="st66" d="M414.41,394.77c-0.17-0.26-2.94-4.35-8.67-6.99c1.4-0.26,2.92-0.45,4.63-0.52
						c0.57-0.03,1.01-0.48,1.04-1.04c-1.17-0.42-2.45-0.58-3.65-0.95c-2.16,0.24-4.06,0.64-5.73,1.18c-1.57-0.43-3.31-0.72-5.2-0.83
						c-1.29,0.45-2.55,0.96-3.79,1.52c0.16,0.39,0.52,0.65,1.06,0.64c1.53-0.07,2.95,0,4.27,0.17c-6.23,3.26-7.67,8.14-7.75,8.43
						c-0.17,0.59,0.17,1.18,0.76,1.35c0.1,0.02,0.2,0.04,0.3,0.04c0.48,0,0.92-0.31,1.05-0.8c0.08-0.28,1.74-5.57,9.39-8.23
						c6.98,2.12,10.27,6.97,10.45,7.24c0.21,0.32,0.56,0.49,0.92,0.49c0.21,0,0.42-0.06,0.6-0.18
						C414.6,395.95,414.74,395.27,414.41,394.77z"/>
					<path class="st67" d="M391.68,398.5c-0.18,0-0.34-0.02-0.5-0.07c-0.98-0.28-1.55-1.3-1.27-2.27c0.05-0.18,1.18-4.31,6.08-7.67
						c-0.61-0.02-1.22-0.01-1.85,0.02c0,0-0.01,0-0.01,0c-0.86,0-1.5-0.41-1.78-1.11c-0.15-0.37,0.02-0.79,0.39-0.95
						c1.37-0.62,2.63-1.13,3.85-1.55c0.09-0.03,0.19-0.05,0.29-0.04c1.79,0.1,3.52,0.37,5.13,0.8c1.73-0.53,3.64-0.92,5.67-1.14
						c0.11-0.01,0.21,0,0.31,0.03c0.53,0.17,1.08,0.29,1.62,0.42c0.67,0.15,1.37,0.31,2.05,0.55c0.31,0.12,0.52,0.42,0.49,0.75
						c-0.05,0.95-0.8,1.71-1.75,1.75c-0.78,0.04-1.54,0.09-2.29,0.18c4.58,2.68,6.82,6.02,6.92,6.18c0.27,0.41,0.36,0.9,0.27,1.38
						c-0.1,0.49-0.39,0.9-0.8,1.18c-0.79,0.53-2.01,0.3-2.55-0.53c-0.33-0.49-3.39-4.83-9.82-6.87c-7.17,2.58-8.67,7.6-8.69,7.65
						C393.22,397.95,392.49,398.5,391.68,398.5z M395.27,386.99c1.06,0,2.14,0.06,3.19,0.19c0.33,0.04,0.59,0.29,0.64,0.61
						c0.06,0.33-0.1,0.64-0.39,0.79c-6.05,3.17-7.36,7.92-7.38,7.97c-0.05,0.2,0.05,0.39,0.24,0.44l0.1,0.01
						c0.15,0,0.3-0.1,0.34-0.26c0.07-0.23,1.76-5.91,9.86-8.73c0.15-0.05,0.31-0.05,0.46-0.01c7.07,2.16,10.49,7,10.86,7.54
						c0.11,0.17,0.35,0.2,0.48,0.11c0.11-0.08,0.15-0.18,0.16-0.23c0.01-0.05,0.02-0.15-0.05-0.26c-0.11-0.17-2.76-4.14-8.36-6.73
						c-0.3-0.14-0.47-0.45-0.43-0.77c0.04-0.33,0.29-0.58,0.61-0.64c1.39-0.25,2.78-0.42,4.21-0.5c-0.18-0.04-0.36-0.08-0.54-0.12
						c-0.54-0.12-1.07-0.24-1.59-0.4c-1.96,0.23-3.79,0.61-5.43,1.13c-0.14,0.04-0.28,0.04-0.42,0.01c-1.54-0.41-3.18-0.68-4.9-0.8
						c-0.55,0.19-1.11,0.41-1.67,0.64C395.26,386.99,395.27,386.99,395.27,386.99z"/>
				</g>
				<path class="st68" d="M402.77,384.1c-9.29,0-16.83,6.96-16.83,12.54c0,5.59,7.53,10.12,16.83,10.12
					c9.29,0,16.83-4.53,16.83-10.12C419.6,391.06,412.07,384.1,402.77,384.1z M411.62,394.73c-4.35,4.42-14.42,6.38-20.09,3.51
					c-2.56-1.29-2.51-3.31-1.4-5.26c-0.13-0.2-0.17-0.45-0.09-0.76c1.58-5.23,8.79-6.96,13.64-6.7
					C407.63,385.74,416.93,389.34,411.62,394.73z"/>
			</g>
		</g>
	</g>
</g>
</svg>
