<?xml version="1.0" encoding="utf-8"?>
<!-- Generator: Adobe Illustrator 23.0.3, SVG Export Plug-In . SVG Version: 6.00 Build 0)  -->
<svg version="1.1" id="Ebene_1" xmlns="http://www.w3.org/2000/svg" xmlns:xlink="http://www.w3.org/1999/xlink" x="0px" y="0px"
	 viewBox="0 0 595.28 595.28" style="enable-background:new 0 0 595.28 595.28;" xml:space="preserve">
<style type="text/css">
	.st0{fill:#989898;}
	.st1{fill:#6F6F6E;}
	.st2{fill:#808485;}
	.st3{fill:#5E5F5F;}
	.st4{fill:#ACB8B8;}
	.st5{fill:#81818A;}
	.st6{fill:#4F5152;}
	.st7{fill:#A7A7B0;}
	.st8{fill:#313136;}
	.st9{fill:#252528;}
	.st10{fill:#414144;}
	.st11{opacity:0.33;fill:#414144;}
	.st12{opacity:0.32;fill:#CBCBD8;}
	.st13{fill:#3C3F40;}
	.st14{fill:#CBCBD8;}
	.st15{fill:#6E6E73;}
	.st16{fill:#55555A;}
	.st17{fill:#CBCACA;}
	.st18{fill:#727272;}
	.st19{fill:#646469;}
	.st20{fill:#57575C;}
	.st21{opacity:0.67;fill:#606064;}
	.st22{opacity:0.09;fill:#AAA59B;}
</style>
<g>
	<g>
		<g>
			<rect x="229.32" y="220.97" class="st0" width="131.35" height="99.85"/>
			<path class="st1" d="M360.67,220.97c0,7.96-29.4,14.42-65.67,14.42s-65.67-6.45-65.67-14.42c0-7.96,29.4-14.42,65.67-14.42
				S360.67,213,360.67,220.97z"/>
			<path class="st2" d="M302.29,270.89c-24.41,4.2-55.02-16.81-72.96-31.53v81.45c0,7.96,29.4,14.42,65.67,14.42
				s65.67-6.45,65.67-14.42V249.6C344.94,257.61,322.74,267.37,302.29,270.89z"/>
			<path class="st3" d="M292.81,206.56c-35.26,0.26-63.49,6.61-63.49,14.41c0,7.54,26.37,13.73,59.97,14.36
				C288.46,224.22,290.87,213.26,292.81,206.56z"/>
			<path class="st4" d="M295,206.55c-36.27,0-65.67,6.45-65.67,14.42c0,7.96,29.4,14.42,65.67,14.42s65.67-6.45,65.67-14.42
				C360.67,213,331.27,206.55,295,206.55z M295,233.11c-41.63,0-63.4-7.91-63.4-12.15s21.78-12.14,63.4-12.14s63.4,7.91,63.4,12.14
				S336.62,233.11,295,233.11z"/>
			<path class="st5" d="M312.08,240.45c0,0.6-0.49,1.09-1.09,1.09c-0.6,0-1.09-0.49-1.09-1.09c0-0.6,0.49-1.09,1.09-1.09
				C311.6,239.36,312.08,239.85,312.08,240.45z"/>
			<path class="st5" d="M318.9,244.52c0,0.45-0.36,0.81-0.8,0.81c-0.44,0-0.8-0.36-0.8-0.81c0-0.44,0.36-0.8,0.8-0.8
				C318.54,243.71,318.9,244.07,318.9,244.52z"/>
			<path class="st5" d="M311,246.91c0,0.3-0.24,0.54-0.54,0.54c-0.3,0-0.54-0.24-0.54-0.54c0-0.3,0.24-0.55,0.54-0.55
				C310.75,246.36,311,246.61,311,246.91z"/>
			<path class="st5" d="M329.15,241.55c0,0.61-0.49,1.1-1.1,1.1c-0.61,0-1.1-0.49-1.1-1.1c0-0.61,0.49-1.1,1.1-1.1
				C328.65,240.45,329.15,240.94,329.15,241.55z"/>
			<path class="st5" d="M336.58,253.45c0,0.57-0.46,1.03-1.03,1.03c-0.57,0-1.03-0.46-1.03-1.03c0-0.57,0.46-1.03,1.03-1.03
				C336.12,252.42,336.58,252.88,336.58,253.45z"/>
			<path class="st5" d="M293.29,246.39c0,0.59-0.48,1.06-1.06,1.06c-0.59,0-1.06-0.48-1.06-1.06c0-0.59,0.48-1.06,1.06-1.06
				C292.82,245.32,293.29,245.8,293.29,246.39z"/>
			<path class="st5" d="M272.42,242.59c0,0.57-0.47,1.04-1.04,1.04c-0.57,0-1.04-0.47-1.04-1.04c0-0.58,0.47-1.04,1.04-1.04
				C271.95,241.55,272.42,242.01,272.42,242.59z"/>
			<path class="st5" d="M293.29,258.39c0,0.59-0.48,1.06-1.06,1.06c-0.59,0-1.06-0.48-1.06-1.06c0-0.59,0.48-1.06,1.06-1.06
				C292.82,257.33,293.29,257.8,293.29,258.39z"/>
			<path class="st5" d="M301.2,240.87c0,0.84-0.42,1.51-0.95,1.51c-0.52,0-0.95-0.68-0.95-1.51c0-0.84,0.42-1.51,0.95-1.51
				C300.77,239.36,301.2,240.04,301.2,240.87z"/>
			<path class="st5" d="M347.72,234.5c0,0.45-0.37,0.83-0.82,0.83c-0.46,0-0.83-0.37-0.83-0.83c0-0.45,0.37-0.82,0.83-0.82
				C347.35,233.68,347.72,234.05,347.72,234.5z"/>
			<path class="st5" d="M238.91,232.45c0,0.68-0.55,1.23-1.23,1.23c-0.68,0-1.23-0.55-1.23-1.23c0-0.68,0.55-1.23,1.23-1.23
				C238.36,231.22,238.91,231.77,238.91,232.45z"/>
			<path class="st5" d="M235.72,236.15c0,0.42-0.35,0.77-0.77,0.77c-0.42,0-0.77-0.35-0.77-0.77c0-0.43,0.34-0.77,0.77-0.77
				C235.37,235.38,235.72,235.73,235.72,236.15z"/>
			<path class="st5" d="M241.89,240.99c0,0.3-0.41,0.54-0.92,0.54c-0.51,0-0.92-0.24-0.92-0.54c0-0.3,0.41-0.55,0.92-0.55
				C241.48,240.45,241.89,240.69,241.89,240.99z"/>
			<path class="st5" d="M238.91,246.98c0,0.34-0.28,0.61-0.62,0.61c-0.34,0-0.62-0.27-0.62-0.61c0-0.34,0.28-0.62,0.62-0.62
				C238.63,246.36,238.91,246.64,238.91,246.98z"/>
		</g>
		<g>
			<polygon class="st2" points="29.89,238.98 29.89,261.22 158.82,352.58 158.82,325.56 			"/>
			<polygon class="st6" points="272.42,311.15 158.82,325.56 158.82,352.58 272.42,334.97 			"/>
			<polygon class="st7" points="29.89,238.98 124.74,229.7 272.42,311.15 158.82,325.56 			"/>
			<circle class="st8" cx="173.31" cy="337.81" r="8.38"/>
			<path class="st9" d="M173.31,329.43c-2.6,0-4.93,1.19-6.47,3.05c1.45-1.2,3.3-1.91,5.33-1.91c4.63,0,8.38,3.75,8.38,8.38
				c0,2.03-0.72,3.88-1.91,5.33c1.86-1.54,3.05-3.86,3.05-6.47C181.68,333.18,177.93,329.43,173.31,329.43z"/>
			<path class="st10" d="M207.53,333.94c0,4.63-3.75,8.38-8.38,8.38c-4.63,0-8.38-3.75-8.38-8.38c0-4.63,3.75-8.38,8.38-8.38
				C203.78,325.56,207.53,329.31,207.53,333.94z"/>
			<path class="st9" d="M199.15,325.56c-2.77,0-5.22,1.34-6.75,3.41c1.39-1.02,3.11-1.63,4.96-1.63c4.63,0,8.38,3.75,8.38,8.38
				c0,1.86-0.61,3.58-1.63,4.97c2.07-1.53,3.41-3.98,3.41-6.75C207.53,329.31,203.78,325.56,199.15,325.56z"/>
			<path class="st10" d="M234.22,330.14c0,4.63-3.75,8.38-8.38,8.38c-4.63,0-8.38-3.75-8.38-8.38c0-4.63,3.75-8.38,8.38-8.38
				C230.47,321.76,234.22,325.51,234.22,330.14z"/>
			<path class="st10" d="M260.07,326.27c0,4.63-3.75,8.38-8.38,8.38c-4.63,0-8.38-3.75-8.38-8.38c0-4.63,3.75-8.38,8.38-8.38
				C256.31,317.89,260.07,321.65,260.07,326.27z"/>
			<path class="st11" d="M158.82,325.56v27.02L29.89,261.22C29.89,261.22,149.45,346.54,158.82,325.56z"/>
			<path class="st12" d="M196.95,273.14c-49.86-30.6-96.95-44.53-105.18-31.11c-8.23,13.42,25.51,49.1,75.37,79.7
				c1.27,0.78,2.53,1.54,3.8,2.3l79.98-10.15C237.44,300.85,218.73,286.51,196.95,273.14z"/>
		</g>
		<g>
			<polygon class="st2" points="37.56,215.83 37.56,238.08 166.49,329.43 166.49,302.42 			"/>
			<polygon class="st13" points="280.09,288 166.49,302.42 166.49,329.43 280.09,311.82 			"/>
			<polygon class="st14" points="37.56,215.83 132.41,206.55 280.09,288 166.49,302.42 			"/>
			<circle class="st8" cx="180.97" cy="314.66" r="8.38"/>
			<path class="st9" d="M180.97,306.29c-2.6,0-4.93,1.19-6.47,3.05c1.45-1.2,3.3-1.91,5.33-1.91c4.63,0,8.38,3.75,8.38,8.38
				c0,2.03-0.72,3.88-1.91,5.33c1.86-1.53,3.05-3.86,3.05-6.46C189.35,310.04,185.6,306.29,180.97,306.29z"/>
			<path class="st10" d="M215.2,310.79c0,4.63-3.75,8.38-8.38,8.38c-4.63,0-8.38-3.75-8.38-8.38c0-4.63,3.75-8.38,8.38-8.38
				C211.44,302.42,215.2,306.17,215.2,310.79z"/>
			<path class="st9" d="M206.82,302.42c-2.77,0-5.22,1.34-6.75,3.41c1.39-1.02,3.11-1.63,4.96-1.63c4.63,0,8.38,3.75,8.38,8.38
				c0,1.86-0.61,3.57-1.63,4.97c2.07-1.53,3.41-3.98,3.41-6.75C215.2,306.17,211.45,302.42,206.82,302.42z"/>
			<path class="st8" d="M241.89,307c0,4.63-3.75,8.38-8.38,8.38c-4.63,0-8.38-3.75-8.38-8.38c0-4.63,3.75-8.38,8.38-8.38
				C238.14,298.62,241.89,302.37,241.89,307z"/>
			<circle class="st8" cx="259.36" cy="303.13" r="8.38"/>
			<path class="st11" d="M166.49,302.42v27.02L37.56,238.08C37.56,238.08,157.12,323.4,166.49,302.42z"/>
			<path class="st12" d="M204.62,249.99c-49.86-30.6-96.95-44.53-105.18-31.11c-8.23,13.42,25.51,49.1,75.37,79.7
				c1.27,0.78,2.53,1.54,3.8,2.3l79.98-10.15C245.1,277.7,226.4,263.36,204.62,249.99z"/>
		</g>
		<path class="st15" d="M33.01,244.99c0,0.39-0.32,0.71-0.71,0.71c-0.39,0-0.71-0.32-0.71-0.71c0-0.39,0.32-0.71,0.71-0.71
			C32.7,244.28,33.01,244.6,33.01,244.99z"/>
		<path class="st15" d="M35.62,245.77c0,0.17-0.14,0.31-0.31,0.31c-0.17,0-0.31-0.14-0.31-0.31c0-0.17,0.14-0.31,0.31-0.31
			C35.48,245.46,35.62,245.6,35.62,245.77z"/>
		<path class="st15" d="M33.89,248.2c0,0.18-0.14,0.32-0.32,0.32c-0.18,0-0.32-0.14-0.32-0.32c0-0.18,0.14-0.32,0.32-0.32
			C33.75,247.88,33.89,248.02,33.89,248.2z"/>
		<path class="st15" d="M31.9,242.26c0,0.27-0.22,0.48-0.48,0.48c-0.27,0-0.49-0.22-0.49-0.48c0-0.27,0.22-0.49,0.49-0.49
			C31.68,241.77,31.9,241.99,31.9,242.26z"/>
		<path class="st15" d="M32.14,249.8c0,0.2-0.16,0.36-0.36,0.36c-0.2,0-0.36-0.16-0.36-0.36c0-0.2,0.16-0.36,0.36-0.36
			C31.98,249.44,32.14,249.6,32.14,249.8z"/>
		<path class="st15" d="M38.32,250.28c0,0.26-0.21,0.48-0.48,0.48c-0.26,0-0.48-0.21-0.48-0.48c0-0.26,0.21-0.48,0.48-0.48
			C38.11,249.8,38.32,250.02,38.32,250.28z"/>
		<path class="st15" d="M37.37,246.58c0,0.12-0.1,0.21-0.21,0.21s-0.21-0.1-0.21-0.21s0.1-0.21,0.21-0.21S37.37,246.46,37.37,246.58
			z"/>
		<path class="st15" d="M39.31,219.22c0,0.12-0.09,0.21-0.21,0.21c-0.12,0-0.21-0.1-0.21-0.21c0-0.12,0.1-0.21,0.21-0.21
			C39.21,219.01,39.31,219.1,39.31,219.22z"/>
		<path class="st15" d="M40.19,222.12c0,0.18-0.14,0.32-0.32,0.32c-0.18,0-0.32-0.14-0.32-0.32c0-0.18,0.14-0.32,0.32-0.32
			C40.04,221.8,40.19,221.94,40.19,222.12z"/>
		<path class="st15" d="M45.44,223.8c0,0.19-0.15,0.34-0.34,0.34c-0.19,0-0.34-0.15-0.34-0.34c0-0.19,0.15-0.34,0.34-0.34
			C45.28,223.45,45.44,223.61,45.44,223.8z"/>
		<path class="st15" d="M45.96,227.06c0,0.24-0.19,0.43-0.44,0.43c-0.24,0-0.43-0.19-0.43-0.43c0-0.24,0.2-0.43,0.43-0.43
			C45.77,226.63,45.96,226.82,45.96,227.06z"/>
		<path class="st15" d="M43.38,221.16c0,0.2-0.16,0.35-0.36,0.35c-0.2,0-0.36-0.16-0.36-0.35c0-0.2,0.16-0.36,0.36-0.36
			C43.22,220.8,43.38,220.96,43.38,221.16z"/>
		<path class="st15" d="M50.22,226.09c0,0.2-0.16,0.37-0.37,0.37c-0.2,0-0.37-0.16-0.37-0.37c0-0.2,0.16-0.37,0.37-0.37
			C50.05,225.73,50.22,225.89,50.22,226.09z"/>
		<path class="st15" d="M50.22,229.34c0,0.2-0.08,0.35-0.18,0.35c-0.1,0-0.18-0.16-0.18-0.35c0-0.19,0.08-0.35,0.18-0.35
			C50.14,228.99,50.22,229.15,50.22,229.34z"/>
		<path class="st15" d="M108.63,297.02c0,0.22-0.18,0.39-0.39,0.39c-0.22,0-0.39-0.17-0.39-0.39c0-0.21,0.17-0.39,0.39-0.39
			C108.45,296.63,108.63,296.81,108.63,297.02z"/>
		<path class="st15" d="M112.75,299.04c0,0.32-0.25,0.57-0.57,0.57c-0.31,0-0.57-0.25-0.57-0.57c0-0.31,0.25-0.57,0.57-0.57
			C112.49,298.48,112.75,298.73,112.75,299.04z"/>
		<path class="st15" d="M118.43,301.03c0,0.43-0.35,0.78-0.78,0.78c-0.43,0-0.78-0.35-0.78-0.78c0-0.43,0.35-0.78,0.78-0.78
			C118.07,300.25,118.43,300.6,118.43,301.03z"/>
		<path class="st15" d="M115.09,303.84c0,0.25-0.21,0.46-0.46,0.46c-0.25,0-0.46-0.21-0.46-0.46c0-0.25,0.21-0.46,0.46-0.46
			C114.88,303.37,115.09,303.58,115.09,303.84z"/>
		<path class="st15" d="M123.11,306.68c0,0.49-0.4,0.89-0.89,0.89c-0.49,0-0.89-0.4-0.89-0.89c0-0.49,0.4-0.89,0.89-0.89
			C122.71,305.79,123.11,306.19,123.11,306.68z"/>
		<path class="st15" d="M123.98,311.79c0,0.36-0.29,0.65-0.65,0.65c-0.36,0-0.65-0.29-0.65-0.65c0-0.36,0.29-0.65,0.65-0.65
			C123.69,311.15,123.98,311.44,123.98,311.79z"/>
		<path class="st15" d="M133,311.79c0,0.36-0.29,0.65-0.65,0.65c-0.36,0-0.65-0.29-0.65-0.65c0-0.36,0.29-0.65,0.65-0.65
			C132.71,311.15,133,311.44,133,311.79z"/>
		<path class="st15" d="M129.61,308.5c0,0.32-0.26,0.59-0.59,0.59c-0.32,0-0.59-0.26-0.59-0.59c0-0.32,0.26-0.59,0.59-0.59
			C129.34,307.92,129.61,308.18,129.61,308.5z"/>
		<path class="st15" d="M141.39,316.85c0,0.34-0.28,0.62-0.62,0.62c-0.34,0-0.62-0.28-0.62-0.62c0-0.34,0.28-0.62,0.62-0.62
			C141.11,316.23,141.39,316.5,141.39,316.85z"/>
		<path class="st16" d="M159.08,301.59c0,0.31-0.25,0.56-0.56,0.56c-0.31,0-0.56-0.25-0.56-0.56c0-0.31,0.25-0.56,0.56-0.56
			C158.83,301.03,159.08,301.28,159.08,301.59z"/>
		<path class="st16" d="M163.98,304.16c0,0.43-0.35,0.78-0.78,0.78c-0.43,0-0.78-0.35-0.78-0.78c0-0.43,0.35-0.78,0.78-0.78
			C163.63,303.37,163.98,303.72,163.98,304.16z"/>
		<path class="st16" d="M163.57,308.14c0,0.32-0.26,0.57-0.58,0.57c-0.32,0-0.58-0.26-0.58-0.57c0-0.32,0.26-0.58,0.58-0.58
			C163.31,307.56,163.57,307.82,163.57,308.14z"/>
		<path class="st16" d="M154.14,295.66c0,0.35-0.29,0.64-0.64,0.64s-0.64-0.29-0.64-0.64c0-0.35,0.29-0.64,0.64-0.64
			S154.14,295.31,154.14,295.66z"/>
		<path class="st16" d="M158.53,307.56c0,0.31-0.25,0.56-0.56,0.56c-0.31,0-0.56-0.25-0.56-0.56c0-0.31,0.25-0.56,0.56-0.56
			C158.27,307,158.53,307.25,158.53,307.56z"/>
		<path class="st16" d="M164.46,313.07c0,0.35-0.28,0.63-0.63,0.63c-0.35,0-0.63-0.28-0.63-0.63c0-0.35,0.28-0.63,0.63-0.63
			C164.18,312.44,164.46,312.73,164.46,313.07z"/>
		<path class="st16" d="M148.94,296.4c0,0.41-0.33,0.74-0.74,0.74c-0.41,0-0.74-0.33-0.74-0.74c0-0.41,0.33-0.74,0.74-0.74
			C148.61,295.66,148.94,295.99,148.94,296.4z"/>
		<path class="st16" d="M153.5,299.93c0,0.18-0.27,0.32-0.6,0.32c-0.33,0-0.6-0.14-0.6-0.32c0-0.18,0.27-0.32,0.6-0.32
			C153.23,299.61,153.5,299.76,153.5,299.93z"/>
		<path class="st16" d="M143.77,290.67c0,0.32-0.25,0.57-0.57,0.57s-0.57-0.25-0.57-0.57c0-0.31,0.25-0.57,0.57-0.57
			S143.77,290.35,143.77,290.67z"/>
		<path class="st16" d="M161.85,317.77c0,0.51-0.25,0.92-0.57,0.92c-0.31,0-0.57-0.41-0.57-0.92c0-0.51,0.26-0.92,0.57-0.92
			C161.6,316.85,161.85,317.26,161.85,317.77z"/>
		<g>
			<polygon class="st5" points="122.06,440.06 142.84,446.63 142.84,475.27 122.06,466.92 			"/>
			<polygon class="st17" points="470.1,261.04 151.93,390.53 122.06,440.06 142.84,446.63 196.73,409.63 520.09,269.99 			"/>
			<polygon class="st18" points="142.84,475.27 197.71,487.48 520.09,332.98 520.09,269.99 196.73,409.63 142.84,446.63 			"/>
			<polygon class="st19" points="197.71,485.72 196.73,409.63 142.84,446.63 142.84,475.27 			"/>
			<polygon class="st19" points="151.93,390.53 196.73,409.63 520.09,269.99 470.1,261.04 			"/>
			<path class="st19" d="M205.34,412.39c0,0.7-0.62,1.27-1.38,1.27c-0.76,0-1.38-0.57-1.38-1.27c0-0.7,0.62-1.27,1.38-1.27
				C204.72,411.12,205.34,411.69,205.34,412.39z"/>
			<path class="st19" d="M215.89,408.66c0,0.53-0.47,0.97-1.06,0.97c-0.58,0-1.06-0.43-1.06-0.97c0-0.53,0.47-0.97,1.06-0.97
				C215.42,407.69,215.89,408.13,215.89,408.66z"/>
			<path class="st19" d="M207.77,422.09c0,0.62-0.54,1.12-1.22,1.12c-0.67,0-1.22-0.5-1.22-1.12c0-0.62,0.54-1.12,1.22-1.12
				C207.23,420.97,207.77,421.47,207.77,422.09z"/>
			<path class="st19" d="M214.83,417.42c0,0.52-0.45,0.93-1.01,0.93s-1.02-0.42-1.02-0.93c0-0.51,0.45-0.93,1.02-0.93
				S214.83,416.91,214.83,417.42z"/>
			<path class="st19" d="M211.67,414.4c0,0.41-0.36,0.75-0.81,0.75c-0.45,0-0.81-0.33-0.81-0.75c0-0.41,0.36-0.74,0.81-0.74
				C211.3,413.66,211.67,413.99,211.67,414.4z"/>
			<path class="st19" d="M201.76,415.82c0,0.37-0.33,0.67-0.73,0.67c-0.4,0-0.73-0.3-0.73-0.67c0-0.37,0.33-0.67,0.73-0.67
				C201.44,415.15,201.76,415.45,201.76,415.82z"/>
			<path class="st19" d="M199.74,422.65c0,0.31-0.27,0.56-0.61,0.56c-0.34,0-0.61-0.25-0.61-0.56c0-0.31,0.27-0.56,0.61-0.56
				C199.46,422.09,199.74,422.34,199.74,422.65z"/>
			<path class="st19" d="M201.03,427.96c0,0.48-0.43,0.88-0.95,0.88c-0.53,0-0.95-0.39-0.95-0.88c0-0.48,0.43-0.88,0.95-0.88
				C200.61,427.08,201.03,427.48,201.03,427.96z"/>
			<path class="st19" d="M213.46,428.79c0,0.46-0.4,0.83-0.9,0.83s-0.9-0.37-0.9-0.83c0-0.45,0.4-0.83,0.9-0.83
				S213.46,428.33,213.46,428.79z"/>
			<path class="st19" d="M227.33,403.7c0,0.51-0.45,0.93-1.02,0.93s-1.01-0.42-1.01-0.93c0-0.51,0.45-0.93,1.01-0.93
				S227.33,403.18,227.33,403.7z"/>
			<path class="st19" d="M243.16,397.17c0,0.54-0.47,0.97-1.06,0.97c-0.58,0-1.06-0.43-1.06-0.97c0-0.53,0.47-0.97,1.06-0.97
				C242.69,396.2,243.16,396.64,243.16,397.17z"/>
			<path class="st19" d="M204.44,438.83c0,0.48-0.42,0.86-0.93,0.86c-0.52,0-0.93-0.38-0.93-0.86c0-0.47,0.42-0.86,0.93-0.86
				C204.03,437.98,204.44,438.36,204.44,438.83z"/>
			<path class="st20" d="M196.73,409.63l0.97,77.85l-54.87-12.21C142.84,475.27,190.97,469.98,196.73,409.63z"/>
		</g>
		<g>
			<polygon class="st5" points="167.88,476.92 188.66,483.49 188.66,512.13 167.88,503.78 			"/>
			<polygon class="st17" points="515.91,297.9 197.75,427.39 167.88,476.92 188.66,483.49 242.55,446.49 565.91,306.85 			"/>
			<polygon class="st18" points="188.66,512.13 243.52,524.34 565.91,369.84 565.91,306.85 242.55,446.49 188.66,483.49 			"/>
			<path class="st21" d="M565.91,369.84v-62.99c-3.06,3.06-189,145.19-283.74,198.97L565.91,369.84z"/>
			<polygon class="st19" points="243.52,522.57 242.55,446.49 188.66,483.49 188.66,512.13 			"/>
			<polygon class="st19" points="197.75,427.39 242.55,446.49 565.91,306.85 515.91,297.9 			"/>
			<path class="st19" d="M251.15,449.25c0,0.7-0.62,1.27-1.38,1.27c-0.76,0-1.38-0.57-1.38-1.27c0-0.7,0.62-1.27,1.38-1.27
				C250.54,447.98,251.15,448.55,251.15,449.25z"/>
			<path class="st19" d="M261.71,445.52c0,0.54-0.47,0.97-1.06,0.97c-0.58,0-1.05-0.43-1.05-0.97c0-0.53,0.47-0.97,1.05-0.97
				C261.23,444.55,261.71,444.98,261.71,445.52z"/>
			<path class="st19" d="M253.59,458.95c0,0.62-0.54,1.12-1.22,1.12c-0.67,0-1.22-0.5-1.22-1.12c0-0.62,0.55-1.12,1.22-1.12
				C253.04,457.83,253.59,458.33,253.59,458.95z"/>
			<path class="st19" d="M260.65,454.29c0,0.51-0.45,0.93-1.02,0.93s-1.01-0.42-1.01-0.93c0-0.51,0.45-0.93,1.01-0.93
				S260.65,453.77,260.65,454.29z"/>
			<path class="st19" d="M257.48,451.26c0,0.41-0.36,0.75-0.81,0.75s-0.81-0.33-0.81-0.75c0-0.41,0.36-0.75,0.81-0.75
				S257.48,450.85,257.48,451.26z"/>
			<path class="st19" d="M247.58,452.68c0,0.37-0.33,0.67-0.73,0.67c-0.4,0-0.73-0.3-0.73-0.67c0-0.37,0.33-0.67,0.73-0.67
				C247.25,452.01,247.58,452.31,247.58,452.68z"/>
			<path class="st19" d="M245.55,459.51c0,0.31-0.27,0.56-0.61,0.56c-0.34,0-0.61-0.25-0.61-0.56c0-0.31,0.27-0.56,0.61-0.56
				C245.28,458.95,245.55,459.2,245.55,459.51z"/>
			<path class="st19" d="M246.85,464.82c0,0.48-0.43,0.88-0.95,0.88c-0.53,0-0.95-0.39-0.95-0.88c0-0.49,0.43-0.88,0.95-0.88
				C246.42,463.95,246.85,464.34,246.85,464.82z"/>
			<path class="st19" d="M259.28,465.65c0,0.45-0.4,0.82-0.9,0.82s-0.9-0.37-0.9-0.82c0-0.46,0.4-0.83,0.9-0.83
				S259.28,465.19,259.28,465.65z"/>
			<path class="st19" d="M273.15,440.56c0,0.51-0.45,0.93-1.02,0.93c-0.56,0-1.01-0.42-1.01-0.93c0-0.52,0.45-0.93,1.01-0.93
				C272.7,439.63,273.15,440.04,273.15,440.56z"/>
			<path class="st19" d="M288.98,434.03c0,0.53-0.47,0.97-1.06,0.97s-1.06-0.43-1.06-0.97c0-0.54,0.47-0.97,1.06-0.97
				S288.98,433.5,288.98,434.03z"/>
			<path class="st19" d="M250.26,475.69c0,0.47-0.42,0.86-0.93,0.86c-0.51,0-0.93-0.38-0.93-0.86c0-0.48,0.42-0.86,0.93-0.86
				C249.84,474.83,250.26,475.22,250.26,475.69z"/>
			<path class="st20" d="M242.55,446.49l0.97,77.86l-54.87-12.21C188.66,512.13,236.79,506.84,242.55,446.49z"/>
		</g>
		<g>
			<polygon class="st5" points="141.54,397.03 162.09,403.87 161.13,431 140.64,422.47 			"/>
			<polygon class="st17" points="495.39,237.84 173.05,351.01 141.54,397.03 162.09,403.87 217.19,370.43 545.06,247.81 			"/>
			<polygon class="st18" points="161.13,431 215.56,444.21 542.95,307.48 545.06,247.81 217.19,370.43 162.09,403.87 			"/>
			<polygon class="st19" points="215.62,442.53 217.19,370.43 162.09,403.87 161.13,431 			"/>
			<polygon class="st7" points="173.05,351.01 217.19,370.43 545.06,247.81 495.39,237.84 			"/>
			<path class="st19" d="M225.7,373.3c-0.02,0.66-0.66,1.18-1.42,1.16c-0.76-0.02-1.36-0.58-1.34-1.24
				c0.02-0.66,0.66-1.18,1.42-1.16C225.12,372.08,225.72,372.64,225.7,373.3z"/>
			<path class="st19" d="M236.37,370.09c-0.02,0.51-0.5,0.9-1.09,0.89c-0.58-0.02-1.04-0.44-1.02-0.95c0.02-0.51,0.5-0.9,1.09-0.89
				C235.93,369.15,236.39,369.58,236.37,370.09z"/>
			<path class="st19" d="M227.81,382.56c-0.02,0.59-0.58,1.04-1.25,1.02c-0.67-0.02-1.2-0.51-1.18-1.1
				c0.02-0.59,0.58-1.04,1.25-1.02C227.3,381.49,227.83,381.98,227.81,382.56z"/>
			<path class="st19" d="M235.02,378.35c-0.02,0.49-0.48,0.87-1.05,0.85c-0.56-0.02-1-0.43-0.98-0.91c0.02-0.49,0.49-0.87,1.04-0.85
				C234.6,377.46,235.04,377.87,235.02,378.35z"/>
			<path class="st19" d="M231.96,375.4c-0.01,0.39-0.39,0.7-0.84,0.68c-0.45-0.01-0.8-0.34-0.79-0.73c0.01-0.39,0.39-0.69,0.84-0.68
				C231.62,374.68,231.97,375.01,231.96,375.4z"/>
			<path class="st19" d="M222.01,376.45c-0.01,0.35-0.35,0.63-0.75,0.61c-0.4-0.01-0.72-0.31-0.71-0.66
				c0.01-0.35,0.35-0.63,0.75-0.61C221.71,375.8,222.03,376.1,222.01,376.45z"/>
			<path class="st19" d="M219.76,382.85c-0.01,0.29-0.29,0.52-0.63,0.51c-0.34-0.01-0.6-0.26-0.59-0.55
				c0.01-0.29,0.29-0.52,0.63-0.51C219.5,382.31,219.77,382.56,219.76,382.85z"/>
			<path class="st19" d="M220.88,387.92c-0.02,0.46-0.46,0.82-0.98,0.8c-0.53-0.02-0.94-0.4-0.92-0.86c0.02-0.46,0.46-0.82,0.98-0.8
				C220.48,387.08,220.89,387.46,220.88,387.92z"/>
			<path class="st19" d="M233.27,389.08c-0.01,0.43-0.43,0.77-0.92,0.76c-0.5-0.02-0.89-0.38-0.87-0.81
				c0.02-0.43,0.43-0.77,0.93-0.75C232.9,388.28,233.29,388.65,233.27,389.08z"/>
			<path class="st19" d="M247.97,365.73c-0.02,0.49-0.48,0.87-1.04,0.85c-0.56-0.02-1-0.43-0.98-0.91c0.02-0.49,0.48-0.87,1.05-0.85
				C247.55,364.83,247.99,365.24,247.97,365.73z"/>
			<path class="st19" d="M264.01,360.02c-0.02,0.51-0.5,0.9-1.09,0.89c-0.58-0.02-1.04-0.44-1.02-0.95c0.02-0.51,0.5-0.91,1.09-0.89
				C263.57,359.09,264.03,359.51,264.01,360.02z"/>
			<path class="st19" d="M223.92,398.32c-0.02,0.45-0.45,0.8-0.96,0.79c-0.51-0.02-0.92-0.39-0.9-0.84c0.02-0.45,0.45-0.8,0.96-0.78
				C223.53,397.5,223.94,397.88,223.92,398.32z"/>
			<path class="st20" d="M217.19,370.43l-1.63,73.77L161.13,431C161.13,431,209.41,427.42,217.19,370.43z"/>
		</g>
		<polygon class="st13" points="215.56,444.21 542.95,307.48 545.06,247.81 541.36,305.43 		"/>
		<polygon class="st13" points="565.91,306.85 565.91,369.84 243.52,524.34 188.66,512.13 243.52,522.57 564.08,368.76 		"/>
	</g>
	<polygon class="st22" points="226.45,439.63 242.55,446.49 243.52,522.57 565.91,369.84 565.91,306.85 542.95,307.48 	"/>
</g>
</svg>
