<?xml version="1.0" encoding="utf-8"?>
<!-- Generator: Adobe Illustrator 23.0.3, SVG Export Plug-In . SVG Version: 6.00 Build 0)  -->
<svg version="1.1" id="Ebene_1" xmlns="http://www.w3.org/2000/svg" xmlns:xlink="http://www.w3.org/1999/xlink" x="0px" y="0px"
	 viewBox="0 0 595.28 595.28" style="enable-background:new 0 0 595.28 595.28;" xml:space="preserve">
<style type="text/css">
	.st0{fill:url(#SVGID_1_);}
	.st1{fill:#ED6A5F;}
	.st2{fill:url(#SVGID_2_);}
	.st3{fill:url(#SVGID_3_);}
	.st4{fill:url(#SVGID_4_);}
	.st5{fill:url(#SVGID_5_);}
	.st6{fill:url(#SVGID_6_);}
	.st7{fill:#8B1812;}
	.st8{fill:url(#SVGID_7_);}
	.st9{fill:#FED042;}
	.st10{fill:url(#SVGID_8_);}
	.st11{fill:url(#SVGID_9_);}
	.st12{fill:url(#SVGID_10_);}
	.st13{fill:url(#SVGID_11_);}
	.st14{fill:url(#SVGID_12_);}
	.st15{fill:#CE7013;}
	.st16{fill:url(#SVGID_13_);}
	.st17{fill:url(#SVGID_14_);}
	.st18{fill:url(#SVGID_15_);}
	.st19{fill:url(#SVGID_16_);}
	.st20{fill:url(#SVGID_17_);}
	.st21{fill:url(#SVGID_18_);}
	.st22{fill:url(#SVGID_19_);}
	.st23{fill:#F08077;}
	.st24{fill:#FBE68D;}
	.st25{fill:url(#SVGID_20_);}
	.st26{fill:#EF9320;}
	.st27{fill:url(#SVGID_21_);}
	.st28{fill:#B879B2;}
	.st29{fill:#FCCE4D;}
	.st30{fill:#FEC929;}
	.st31{fill:#FBBA10;}
	.st32{fill:#20201E;}
	.st33{fill:#F6B316;}
	.st34{fill:url(#SVGID_22_);}
	.st35{fill:url(#SVGID_23_);}
	.st36{fill:url(#SVGID_24_);}
	.st37{fill:url(#SVGID_25_);}
	.st38{fill:url(#SVGID_26_);}
	.st39{fill:url(#SVGID_27_);}
	.st40{fill:url(#SVGID_28_);}
	.st41{fill:url(#SVGID_29_);}
	.st42{fill:url(#SVGID_30_);}
	.st43{fill:url(#SVGID_31_);}
	.st44{fill:url(#SVGID_32_);}
	.st45{fill:url(#SVGID_33_);}
	.st46{fill:url(#SVGID_34_);}
	.st47{fill:url(#SVGID_35_);}
	.st48{fill:url(#SVGID_36_);}
	.st49{fill:url(#SVGID_37_);}
	.st50{fill:url(#SVGID_38_);}
	.st51{fill:url(#SVGID_39_);}
	.st52{fill:url(#SVGID_40_);}
	.st53{fill:url(#SVGID_41_);}
	.st54{fill:url(#SVGID_42_);}
	.st55{fill:url(#SVGID_43_);}
	.st56{fill:url(#SVGID_44_);}
	.st57{fill:url(#SVGID_45_);}
	.st58{fill:url(#SVGID_46_);}
	.st59{fill:url(#SVGID_47_);}
	.st60{fill:url(#SVGID_48_);}
	.st61{fill:url(#SVGID_49_);}
	.st62{fill:url(#SVGID_50_);}
	.st63{fill:url(#SVGID_51_);}
	.st64{fill:url(#SVGID_52_);}
	.st65{fill:url(#SVGID_53_);}
	.st66{fill:url(#SVGID_54_);}
	.st67{fill:url(#SVGID_55_);}
	.st68{fill:url(#SVGID_56_);}
	.st69{fill:url(#SVGID_57_);}
	.st70{fill:url(#SVGID_58_);}
	.st71{fill:url(#SVGID_59_);}
	.st72{fill:url(#SVGID_60_);}
	.st73{fill:url(#SVGID_61_);}
	.st74{fill:url(#SVGID_62_);}
	.st75{fill:url(#SVGID_63_);}
</style>
<g>
	<g>
		<g>
			<g>
				<g>
					<g>
						<linearGradient id="SVGID_1_" gradientUnits="userSpaceOnUse" x1="276.519" y1="386.7132" x2="483.6138" y2="386.7132">
							<stop  offset="0" style="stop-color:#E84436"/>
							<stop  offset="0.0954" style="stop-color:#D43125"/>
							<stop  offset="0.2057" style="stop-color:#C01D18"/>
							<stop  offset="0.2852" style="stop-color:#B21B17"/>
							<stop  offset="0.362" style="stop-color:#AA1917"/>
							<stop  offset="0.5685" style="stop-color:#D13225"/>
							<stop  offset="0.7057" style="stop-color:#E84030"/>
							<stop  offset="1" style="stop-color:#EB584A"/>
						</linearGradient>
						<path class="st0" d="M483.6,359.11h0.02v-2.74l-119.73,8.28l-87.36-10.44v4.89h0.02c0.17,15.24,10.34,31.11,30.54,42.77
							c40.56,23.42,106.13,22.91,146.44-0.36C473.75,389.83,483.77,374.47,483.6,359.11z"/>
						<path class="st1" d="M453.53,398.52c-35.68,20.59-91.05,22.89-131.43,6.95c-5.27-2.08-10.32-4.49-15.04-7.18
							c-40.56-23.45-40.72-61.31-0.45-84.59c7.69-4.43,16.27-8.02,25.47-10.72c38.93-11.61,88.13-7.97,121,11
							C493.64,337.43,493.81,375.24,453.53,398.52z"/>
					</g>
					<g>
						<linearGradient id="SVGID_2_" gradientUnits="userSpaceOnUse" x1="279.8936" y1="345.8257" x2="480.2393" y2="345.8257">
							<stop  offset="0.1615" style="stop-color:#831811"/>
							<stop  offset="0.4339" style="stop-color:#A5291E"/>
							<stop  offset="0.5964" style="stop-color:#B53224"/>
							<stop  offset="0.9297" style="stop-color:#CB3D2F"/>
						</linearGradient>
						<path class="st2" d="M480.22,354.07h0.01v-72.23l-115.83,8.01l-84.52-10.1v74.32h0.02c0.16,14.74,10.01,29.49,29.55,40.77
							c39.24,22.66,102.67,22.77,141.66,0.26C470.7,383.79,480.39,368.93,480.22,354.07z"/>
						<linearGradient id="SVGID_3_" gradientUnits="userSpaceOnUse" x1="279.8936" y1="370.2385" x2="480.2393" y2="370.2385">
							<stop  offset="0" style="stop-color:#65140D"/>
							<stop  offset="0.1101" style="stop-color:#6A160F"/>
							<stop  offset="0.2738" style="stop-color:#781B13"/>
							<stop  offset="0.4708" style="stop-color:#90241A"/>
							<stop  offset="0.6921" style="stop-color:#B33123"/>
							<stop  offset="0.7214" style="stop-color:#B83325"/>
							<stop  offset="1" style="stop-color:#D23A2B"/>
						</linearGradient>
						<path class="st3" d="M451.12,379.91c-39,22.52-102.42,22.4-141.67-0.26c-19.54-11.28-29.39-26.03-29.55-40.77h-0.02v4.86h0.02
							c0.16,14.74,10.01,29.49,29.55,40.77c39.24,22.66,102.67,22.77,141.67,0.26c19.58-11.3,29.26-26.16,29.1-41.02h0.01v-4.86
							h-0.01C480.39,353.75,470.7,368.61,451.12,379.91z"/>
						<linearGradient id="SVGID_4_" gradientUnits="userSpaceOnUse" x1="279.8936" y1="356.8054" x2="480.2393" y2="356.8054">
							<stop  offset="0" style="stop-color:#65140D"/>
							<stop  offset="0.1101" style="stop-color:#6A160F"/>
							<stop  offset="0.2738" style="stop-color:#781B13"/>
							<stop  offset="0.4708" style="stop-color:#90241A"/>
							<stop  offset="0.6921" style="stop-color:#B33123"/>
							<stop  offset="0.7214" style="stop-color:#B83325"/>
							<stop  offset="1" style="stop-color:#D23A2B"/>
						</linearGradient>
						<path class="st4" d="M451.12,366.48c-39,22.52-102.42,22.4-141.67-0.26c-19.54-11.28-29.39-26.03-29.55-40.77h-0.02v4.86h0.02
							c0.16,14.74,10.01,29.49,29.55,40.77c39.24,22.66,102.67,22.77,141.67,0.26c19.58-11.3,29.26-26.16,29.1-41.02h0.01v-4.86
							h-0.01C480.39,340.32,470.7,355.18,451.12,366.48z"/>
						<linearGradient id="SVGID_5_" gradientUnits="userSpaceOnUse" x1="279.8936" y1="343.3728" x2="480.2393" y2="343.3728">
							<stop  offset="0" style="stop-color:#65140D"/>
							<stop  offset="0.1101" style="stop-color:#6A160F"/>
							<stop  offset="0.2738" style="stop-color:#781B13"/>
							<stop  offset="0.4708" style="stop-color:#90241A"/>
							<stop  offset="0.6921" style="stop-color:#B33123"/>
							<stop  offset="0.7214" style="stop-color:#B83325"/>
							<stop  offset="1" style="stop-color:#D23A2B"/>
						</linearGradient>
						<path class="st5" d="M451.12,353.05c-39,22.51-102.42,22.4-141.67-0.26c-19.54-11.28-29.39-26.03-29.55-40.77h-0.02v4.86h0.02
							c0.16,14.74,10.01,29.49,29.55,40.77c39.24,22.66,102.67,22.77,141.67,0.26c19.58-11.3,29.26-26.16,29.1-41.03h0.01v-4.86
							h-0.01C480.39,326.89,470.7,341.74,451.12,353.05z"/>
						<linearGradient id="SVGID_6_" gradientUnits="userSpaceOnUse" x1="279.8936" y1="329.9396" x2="480.2393" y2="329.9396">
							<stop  offset="0" style="stop-color:#65140D"/>
							<stop  offset="0.1101" style="stop-color:#6A160F"/>
							<stop  offset="0.2738" style="stop-color:#781B13"/>
							<stop  offset="0.4708" style="stop-color:#90241A"/>
							<stop  offset="0.6921" style="stop-color:#B33123"/>
							<stop  offset="0.7214" style="stop-color:#B83325"/>
							<stop  offset="1" style="stop-color:#D23A2B"/>
						</linearGradient>
						<path class="st6" d="M451.12,339.61c-39,22.52-102.42,22.4-141.67-0.26c-19.54-11.28-29.39-26.03-29.55-40.77h-0.02v4.86h0.02
							c0.16,14.74,10.01,29.49,29.55,40.77c39.24,22.66,102.67,22.77,141.67,0.26c19.58-11.3,29.26-26.16,29.1-41.02h0.01v-4.86
							h-0.01C480.39,313.45,470.7,328.31,451.12,339.61z"/>
						<path class="st7" d="M451.13,322.61c-34.51,19.92-88.08,22.14-127.15,6.73c-5.1-2.01-9.98-4.34-14.55-6.95
							c-39.24-22.68-39.4-59.31-0.43-81.84c7.44-4.29,15.74-7.76,24.64-10.37c37.66-11.23,85.25-7.71,117.06,10.64
							C489.94,263.51,490.1,300.09,451.13,322.61z"/>
					</g>
					<g>
						<linearGradient id="SVGID_7_" gradientUnits="userSpaceOnUse" x1="276.519" y1="304.0228" x2="483.6138" y2="304.0228">
							<stop  offset="0" style="stop-color:#FFDC49"/>
							<stop  offset="0.1232" style="stop-color:#E4AA22"/>
							<stop  offset="0.1901" style="stop-color:#D99211"/>
							<stop  offset="0.2143" style="stop-color:#D78C11"/>
							<stop  offset="0.3069" style="stop-color:#D17713"/>
							<stop  offset="0.362" style="stop-color:#CF6F13"/>
							<stop  offset="0.4279" style="stop-color:#DD8611"/>
							<stop  offset="0.5046" style="stop-color:#EA9B0D"/>
							<stop  offset="0.5779" style="stop-color:#F3A809"/>
							<stop  offset="0.6432" style="stop-color:#F6AC07"/>
							<stop  offset="0.9497" style="stop-color:#FED664"/>
							<stop  offset="1" style="stop-color:#FFDD71"/>
						</linearGradient>
						<path class="st8" d="M483.6,276.58l0.02,5.51v-8.25l-119.73,8.28l-87.36-10.44v4.89l0.02,5.51
							c0.17,15.24,10.34,24.97,30.54,36.63c40.56,23.42,106.13,23.54,146.44,0.26C473.75,307.3,483.77,291.94,483.6,276.58z"/>
						<path class="st9" d="M453.53,315.99c-35.68,20.59-91.05,22.89-131.43,6.95c-5.27-2.07-10.32-4.49-15.04-7.18
							c-40.56-23.45-40.72-61.31-0.45-84.59c7.69-4.43,16.27-8.02,25.47-10.71c38.93-11.61,88.13-7.97,121,10.99
							C493.64,254.9,493.81,292.71,453.53,315.99z"/>
					</g>
					<g>
						<linearGradient id="SVGID_8_" gradientUnits="userSpaceOnUse" x1="279.8936" y1="263.2922" x2="480.2393" y2="263.2922">
							<stop  offset="0.1615" style="stop-color:#AB6815"/>
							<stop  offset="0.1804" style="stop-color:#AE6B16"/>
							<stop  offset="0.4607" style="stop-color:#DEA425"/>
							<stop  offset="0.5964" style="stop-color:#F4BD2D"/>
							<stop  offset="0.9297" style="stop-color:#FCD256"/>
						</linearGradient>
						<path class="st10" d="M480.22,271.53h0.01V199.3l-115.83,8.01l-84.52-10.1v74.32h0.02c0.16,14.74,10.01,29.49,29.55,40.77
							c39.24,22.66,102.67,22.77,141.66,0.26C470.7,301.25,480.39,286.4,480.22,271.53z"/>
						<linearGradient id="SVGID_9_" gradientUnits="userSpaceOnUse" x1="279.8936" y1="285.009" x2="480.2393" y2="285.009">
							<stop  offset="0" style="stop-color:#8C5814"/>
							<stop  offset="0.7786" style="stop-color:#E8A11D"/>
							<stop  offset="1" style="stop-color:#F7C945"/>
						</linearGradient>
						<path class="st11" d="M451.12,294.68c-39,22.51-102.42,22.4-141.67-0.26c-19.54-11.28-29.39-26.03-29.55-40.77h-0.02v4.86
							h0.02c0.16,14.74,10.01,29.49,29.55,40.77c39.24,22.66,102.67,22.77,141.67,0.26c19.58-11.3,29.26-26.16,29.1-41.02h0.01
							v-4.86h-0.01C480.39,268.52,470.7,283.38,451.12,294.68z"/>
						<linearGradient id="SVGID_10_" gradientUnits="userSpaceOnUse" x1="279.8936" y1="271.5759" x2="480.2393" y2="271.5759">
							<stop  offset="0" style="stop-color:#8C5814"/>
							<stop  offset="0.7786" style="stop-color:#E8A11D"/>
							<stop  offset="1" style="stop-color:#F7C945"/>
						</linearGradient>
						<path class="st12" d="M451.12,281.25c-39,22.52-102.42,22.4-141.67-0.26c-19.54-11.28-29.39-26.03-29.55-40.77h-0.02v4.86
							h0.02c0.16,14.74,10.01,29.49,29.55,40.77c39.24,22.66,102.67,22.77,141.67,0.26c19.58-11.3,29.26-26.16,29.1-41.02h0.01
							v-4.86h-0.01C480.39,255.09,470.7,269.95,451.12,281.25z"/>
						<linearGradient id="SVGID_11_" gradientUnits="userSpaceOnUse" x1="279.8936" y1="258.143" x2="480.2393" y2="258.143">
							<stop  offset="0" style="stop-color:#8C5814"/>
							<stop  offset="0.7786" style="stop-color:#E8A11D"/>
							<stop  offset="1" style="stop-color:#F7C945"/>
						</linearGradient>
						<path class="st13" d="M451.12,267.82c-39,22.52-102.42,22.4-141.67-0.26c-19.54-11.28-29.39-26.03-29.55-40.77h-0.02v4.86
							h0.02c0.16,14.74,10.01,29.49,29.55,40.77c39.24,22.66,102.67,22.77,141.67,0.26c19.58-11.3,29.26-26.16,29.1-41.02h0.01
							v-4.86h-0.01C480.39,241.66,470.7,256.51,451.12,267.82z"/>
						<linearGradient id="SVGID_12_" gradientUnits="userSpaceOnUse" x1="279.8936" y1="244.7101" x2="480.2393" y2="244.7101">
							<stop  offset="0" style="stop-color:#8C5814"/>
							<stop  offset="0.7786" style="stop-color:#E8A11D"/>
							<stop  offset="1" style="stop-color:#F7C945"/>
						</linearGradient>
						<path class="st14" d="M451.12,254.38c-39,22.52-102.42,22.4-141.67-0.26c-19.54-11.28-29.39-26.03-29.55-40.77h-0.02v4.86
							h0.02c0.16,14.74,10.01,29.49,29.55,40.77c39.24,22.66,102.67,22.77,141.67,0.26c19.58-11.3,29.26-26.16,29.1-41.02h0.01
							v-4.86h-0.01C480.39,228.22,470.7,243.08,451.12,254.38z"/>
						<path class="st15" d="M451.13,240.08c-34.51,19.92-88.08,22.14-127.15,6.73c-5.1-2.01-9.98-4.34-14.55-6.95
							c-39.24-22.68-39.4-59.31-0.43-81.84c7.44-4.29,15.74-7.76,24.64-10.37c37.66-11.23,85.25-7.71,117.06,10.64
							C489.94,180.98,490.1,217.55,451.13,240.08z"/>
					</g>
					<g>
						<linearGradient id="SVGID_13_" gradientUnits="userSpaceOnUse" x1="276.519" y1="221.4893" x2="483.6138" y2="221.4893">
							<stop  offset="0" style="stop-color:#FFDC49"/>
							<stop  offset="0.1232" style="stop-color:#E4AA22"/>
							<stop  offset="0.1901" style="stop-color:#D99211"/>
							<stop  offset="0.2143" style="stop-color:#D78C11"/>
							<stop  offset="0.3069" style="stop-color:#D17713"/>
							<stop  offset="0.362" style="stop-color:#CF6F13"/>
							<stop  offset="0.4279" style="stop-color:#DD8611"/>
							<stop  offset="0.5046" style="stop-color:#EA9B0D"/>
							<stop  offset="0.5779" style="stop-color:#F3A809"/>
							<stop  offset="0.6432" style="stop-color:#F6AC07"/>
							<stop  offset="0.9497" style="stop-color:#FED664"/>
							<stop  offset="1" style="stop-color:#FFDD71"/>
						</linearGradient>
						<path class="st16" d="M483.6,194.04h0.02v-2.74l-119.73,8.28l-87.36-10.44v4.89l0.02,5.51c0.17,15.24,10.34,24.97,30.54,36.63
							c40.56,23.42,106.13,23.54,146.44,0.26C473.75,224.77,483.77,209.41,483.6,194.04z"/>
						<path class="st9" d="M453.53,233.46c-35.68,20.59-91.05,22.89-131.43,6.95c-5.27-2.07-10.32-4.49-15.04-7.18
							c-40.56-23.45-40.72-61.31-0.45-84.59c7.69-4.43,16.27-8.02,25.47-10.71c38.93-11.61,88.13-7.97,121,10.99
							C493.64,172.37,493.81,210.17,453.53,233.46z"/>
					</g>
					<g>
						<linearGradient id="SVGID_14_" gradientUnits="userSpaceOnUse" x1="279.8936" y1="180.7587" x2="480.2393" y2="180.7587">
							<stop  offset="0.1615" style="stop-color:#831811"/>
							<stop  offset="0.4339" style="stop-color:#A5291E"/>
							<stop  offset="0.5964" style="stop-color:#B53224"/>
							<stop  offset="0.9297" style="stop-color:#CB3D2F"/>
						</linearGradient>
						<path class="st17" d="M480.22,189h0.01v-72.23l-115.83,8.01l-84.52-10.1V189h0.02c0.16,14.74,10.01,29.49,29.55,40.77
							c39.24,22.66,102.67,22.77,141.66,0.26C470.7,218.72,480.39,203.86,480.22,189z"/>
					</g>
					<linearGradient id="SVGID_15_" gradientUnits="userSpaceOnUse" x1="279.8936" y1="203.6099" x2="480.2393" y2="203.6099">
						<stop  offset="0" style="stop-color:#65140D"/>
						<stop  offset="0.1101" style="stop-color:#6A160F"/>
						<stop  offset="0.2738" style="stop-color:#781B13"/>
						<stop  offset="0.4708" style="stop-color:#90241A"/>
						<stop  offset="0.6921" style="stop-color:#B33123"/>
						<stop  offset="0.7214" style="stop-color:#B83325"/>
						<stop  offset="1" style="stop-color:#D23A2B"/>
					</linearGradient>
					<path class="st18" d="M451.12,213.28c-39,22.52-102.42,22.4-141.67-0.26c-19.54-11.28-29.39-26.03-29.55-40.77h-0.02v4.86h0.02
						c0.16,14.74,10.01,29.49,29.55,40.77c39.24,22.66,102.67,22.77,141.67,0.26c19.58-11.3,29.26-26.16,29.1-41.02h0.01v-4.86
						h-0.01C480.39,187.12,470.7,201.98,451.12,213.28z"/>
					<linearGradient id="SVGID_16_" gradientUnits="userSpaceOnUse" x1="279.8936" y1="190.1774" x2="480.2393" y2="190.1774">
						<stop  offset="0" style="stop-color:#65140D"/>
						<stop  offset="0.1101" style="stop-color:#6A160F"/>
						<stop  offset="0.2738" style="stop-color:#781B13"/>
						<stop  offset="0.4708" style="stop-color:#90241A"/>
						<stop  offset="0.6921" style="stop-color:#B33123"/>
						<stop  offset="0.7214" style="stop-color:#B83325"/>
						<stop  offset="1" style="stop-color:#D23A2B"/>
					</linearGradient>
					<path class="st19" d="M451.12,199.85c-39,22.51-102.42,22.4-141.67-0.26c-19.54-11.28-29.39-26.03-29.55-40.77h-0.02v4.86h0.02
						c0.16,14.74,10.01,29.49,29.55,40.77c39.24,22.66,102.67,22.77,141.67,0.26c19.58-11.3,29.26-26.16,29.1-41.02h0.01v-4.86
						h-0.01C480.39,173.69,470.7,188.55,451.12,199.85z"/>
					<linearGradient id="SVGID_17_" gradientUnits="userSpaceOnUse" x1="279.8936" y1="176.744" x2="480.2393" y2="176.744">
						<stop  offset="0" style="stop-color:#65140D"/>
						<stop  offset="0.1101" style="stop-color:#6A160F"/>
						<stop  offset="0.2738" style="stop-color:#781B13"/>
						<stop  offset="0.4708" style="stop-color:#90241A"/>
						<stop  offset="0.6921" style="stop-color:#B33123"/>
						<stop  offset="0.7214" style="stop-color:#B83325"/>
						<stop  offset="1" style="stop-color:#D23A2B"/>
					</linearGradient>
					<path class="st20" d="M451.12,186.42c-39,22.52-102.42,22.4-141.67-0.26c-19.54-11.28-29.39-26.03-29.55-40.77h-0.02v4.86h0.02
						c0.16,14.74,10.01,29.49,29.55,40.77c39.24,22.66,102.67,22.77,141.67,0.26c19.58-11.3,29.26-26.16,29.1-41.02h0.01v-4.86
						h-0.01C480.39,160.26,470.7,175.12,451.12,186.42z"/>
					<linearGradient id="SVGID_18_" gradientUnits="userSpaceOnUse" x1="279.8936" y1="163.3114" x2="480.2393" y2="163.3114">
						<stop  offset="0" style="stop-color:#65140D"/>
						<stop  offset="0.1101" style="stop-color:#6A160F"/>
						<stop  offset="0.2738" style="stop-color:#781B13"/>
						<stop  offset="0.4708" style="stop-color:#90241A"/>
						<stop  offset="0.6921" style="stop-color:#B33123"/>
						<stop  offset="0.7214" style="stop-color:#B83325"/>
						<stop  offset="1" style="stop-color:#D23A2B"/>
					</linearGradient>
					<path class="st21" d="M451.12,172.99c-39,22.52-102.42,22.4-141.67-0.26c-19.54-11.28-29.39-26.03-29.55-40.77h-0.02v4.86h0.02
						c0.16,14.74,10.01,29.49,29.55,40.77c39.24,22.66,102.67,22.77,141.67,0.26c19.58-11.3,29.26-26.16,29.1-41.02h0.01v-4.86
						h-0.01C480.39,146.82,470.7,161.68,451.12,172.99z"/>
					<g>
						<linearGradient id="SVGID_19_" gradientUnits="userSpaceOnUse" x1="276.519" y1="138.9556" x2="483.6138" y2="138.9556">
							<stop  offset="0" style="stop-color:#E84436"/>
							<stop  offset="0.0954" style="stop-color:#D43125"/>
							<stop  offset="0.2057" style="stop-color:#C01D18"/>
							<stop  offset="0.2852" style="stop-color:#B21B17"/>
							<stop  offset="0.362" style="stop-color:#AA1917"/>
							<stop  offset="0.5685" style="stop-color:#D13225"/>
							<stop  offset="0.7057" style="stop-color:#E84030"/>
							<stop  offset="1" style="stop-color:#EB584A"/>
						</linearGradient>
						<path class="st22" d="M483.6,111.51h0.02v-2.74l-119.73,8.28l-87.36-10.44v4.89h0.02c0.17,15.24,10.34,30.48,30.54,42.14
							c40.56,23.42,106.13,23.54,146.44,0.26C473.75,142.23,483.77,126.87,483.6,111.51z"/>
						<path class="st23" d="M453.53,150.93c-35.69,20.58-91.06,22.88-131.43,6.95c-5.27-2.07-10.33-4.49-15.05-7.18
							c-40.55-23.45-40.71-61.3-0.43-84.59c7.67-4.43,16.26-8.02,25.46-10.72c17-5.08,35.98-7.22,54.69-6.44
							c6.5,0.23,12.96,0.84,19.31,1.83c17.2,2.6,33.48,7.79,47.01,15.6C493.64,89.82,493.81,127.64,453.53,150.93z"/>
						<path class="st1" d="M452.33,150.64c-35.43,20.45-90.43,22.73-130.55,6.91c-5.24-2.06-10.25-4.46-14.93-7.13
							c-40.28-23.29-40.45-60.9-0.44-84.02c7.64-4.4,16.16-7.97,25.3-10.64c38.67-11.53,87.53-7.91,120.19,10.92
							C492.18,89.96,492.34,127.51,452.33,150.64z"/>
					</g>
					<path class="st24" d="M450.25,148.12c-34.08,19.23-86.98,21.37-125.56,6.49c-5.03-1.94-9.86-4.19-14.36-6.7
						c-38.75-21.9-38.9-57.25-0.43-78.99c7.34-4.14,15.54-7.49,24.33-10.01c37.19-10.84,84.19-7.44,115.59,10.27
						C488.57,91.07,488.73,126.38,450.25,148.12z"/>
					<path class="st15" d="M449.82,69.17c-20.17-11.37-46.76-16.76-73.06-16.35c24.77,0.26,49.5,5.56,68.6,16.1
						c38.97,21.56,39.49,56.32,1.23,77.72c-33.89,18.93-86.76,21.04-125.49,6.39c-1.35-0.51-2.63-1.09-3.95-1.64
						c2.45,1.15,4.96,2.22,7.54,3.22c38.58,14.88,91.48,12.73,125.56-6.49C488.73,126.38,488.57,91.07,449.82,69.17z"/>
					<linearGradient id="SVGID_20_" gradientUnits="userSpaceOnUse" x1="281.1386" y1="82.3235" x2="478.9924" y2="82.3235">
						<stop  offset="0.1031" style="stop-color:#F6AC07"/>
						<stop  offset="0.5794" style="stop-color:#DA8012"/>
						<stop  offset="0.7626" style="stop-color:#CF6F13"/>
						<stop  offset="0.8555" style="stop-color:#CF7113"/>
						<stop  offset="0.9132" style="stop-color:#D17813"/>
						<stop  offset="0.9612" style="stop-color:#D58412"/>
						<stop  offset="1" style="stop-color:#D99211"/>
					</linearGradient>
					<path class="st25" d="M309.63,75.17c7.37-4.14,15.6-7.49,24.42-10.01c37.33-10.84,84.51-7.44,116.04,10.27
						c18.06,10.17,27.4,23.24,28.75,36.49c1.5-15.34-7.83-30.98-28.75-42.75c-31.53-17.71-78.7-21.11-116.04-10.27
						c-8.82,2.52-17.05,5.87-24.42,10.01c-20.69,11.64-29.88,27.18-28.32,42.48C282.59,98.19,291.77,85.22,309.63,75.17z"/>
					<g>
						<path class="st26" d="M322.55,124.89c-3.88,2.24-9.91,2.49-14.31,0.76c-0.57-0.23-1.12-0.49-1.64-0.78
							c-4.42-2.55-4.43-6.68-0.05-9.21c0.84-0.48,1.77-0.87,2.77-1.17c4.24-1.26,9.59-0.87,13.17,1.2
							C326.92,118.24,326.94,122.36,322.55,124.89z"/>
						<linearGradient id="SVGID_21_" gradientUnits="userSpaceOnUse" x1="306.3466" y1="121.8065" x2="328.8901" y2="121.8065">
							<stop  offset="0" style="stop-color:#D99211"/>
							<stop  offset="0.0388" style="stop-color:#D58412"/>
							<stop  offset="0.0868" style="stop-color:#D17813"/>
							<stop  offset="0.1445" style="stop-color:#CF7113"/>
							<stop  offset="0.2374" style="stop-color:#CF6F13"/>
							<stop  offset="0.4206" style="stop-color:#DA8012"/>
							<stop  offset="0.8969" style="stop-color:#F6AC07"/>
						</linearGradient>
						<path class="st27" d="M328.89,120.28L328.89,120.28l0-3.21l-13.03,0.9l-9.51-1.14v3.45h0c0.02,1.66,1.13,3.32,3.33,4.59
							c4.42,2.55,11.55,2.56,15.94,0.03C327.82,123.62,328.91,121.95,328.89,120.28z"/>
						<path class="st28" d="M325.62,121.65c-3.88,2.24-9.91,2.49-14.31,0.76c-0.57-0.22-1.12-0.49-1.64-0.78
							c-4.41-2.55-4.43-6.67-0.05-9.21c0.84-0.48,1.77-0.87,2.77-1.17c4.24-1.26,9.59-0.87,13.17,1.2
							C329.98,115,330,119.12,325.62,121.65z"/>
						<path class="st29" d="M325.62,121.65c-3.88,2.24-9.91,2.49-14.31,0.76c-0.57-0.22-1.12-0.49-1.64-0.78
							c-4.41-2.55-4.43-6.67-0.05-9.21c0.84-0.48,1.77-0.87,2.77-1.17c4.24-1.26,9.59-0.87,13.17,1.2
							C329.98,115,330,119.12,325.62,121.65z"/>
						<path class="st30" d="M324.91,121.27c-3.71,2.14-9.46,2.38-13.65,0.72c-0.55-0.21-1.07-0.47-1.56-0.75
							c-4.21-2.44-4.23-6.37-0.05-8.79c0.8-0.46,1.69-0.83,2.65-1.11c4.04-1.21,9.16-0.83,12.57,1.14
							C329.08,114.92,329.1,118.85,324.91,121.27z"/>
						<path class="st31" d="M323.1,120.2c-2.66,1.53-6.79,1.71-9.8,0.52c-0.39-0.15-0.77-0.33-1.12-0.54
							c-3.02-1.75-3.04-4.57-0.03-6.31c0.57-0.33,1.21-0.6,1.9-0.8c2.9-0.87,6.57-0.59,9.02,0.82
							C326.09,115.64,326.1,118.46,323.1,120.2z"/>
					</g>
				</g>
				<g>
					<path class="st32" d="M451.47,243.88c-7.72,12.48-15.03,24.26-33.23,44.94c8.62,5.51,17.51,11.17,33.09,19.37
						c7.38-13.23,14.41-25.64,21.85-51.49C469.05,253.74,465.74,251.33,451.47,243.88z M462.29,283.52
						c-0.14,0.28-0.28,0.55-0.34,0.83c-2.83,6.27-6.27,13.1-10.62,20.33c-3.24-1.65-6.2-3.31-9.03-4.82
						c-2.34-1.31-4.55-2.55-6.62-3.79c-5.24-3.03-9.58-5.79-13.44-8.2c1.1-1.24,2.14-2.48,3.1-3.72c0.83-1.03,1.79-2.2,2.76-3.38
						c1.24-1.45,2.41-2.89,3.45-4.34c0.9-1.24,1.86-2.48,2.89-3.79c3.58-4.69,6.55-9.03,9.17-12.89c2.07-3.17,3.93-6.07,5.58-8.69
						c0.76-1.24,1.59-2.48,2.28-3.65c5.31,2.76,9.17,4.89,12.06,6.62c0.34,0.21,0.76,0.41,1.17,0.69c3.03,1.79,4.96,3.1,6.82,4.41
						c-2.14,7.03-4.55,13.44-6.96,19.16C463.88,279.94,463.12,281.73,462.29,283.52z"/>
					<path class="st33" d="M443.61,259.74c2.07-3.17,3.93-6.07,5.58-8.69C447.41,254.09,445.47,256.98,443.61,259.74z M442.3,299.86
						c-2.34-1.31-4.55-2.55-6.62-3.79C438.03,297.45,440.3,298.69,442.3,299.86z"/>
					<path class="st32" d="M455.14,272.26c-2.16,1.29-3.57-0.96-2.93-3.52c0.71-2.84,3.27-4.21,4.42-2.37
						C457.63,267.97,456.8,271.22,455.14,272.26L455.14,272.26z M451.44,258.73c-3.19,2.06-10.72,21.81-10.91,22.81
						c-1.08,5.61,1.6,8.75,4.73,9.38c7.61,1.53,21.48-14.33,12.91-26.61C455.04,259.83,452.78,257.95,451.44,258.73L451.44,258.73z"
						/>
				</g>
			</g>
		</g>
		<g>
			<g>
				<g>
					<g>
						<linearGradient id="SVGID_22_" gradientUnits="userSpaceOnUse" x1="301.2822" y1="524.8506" x2="508.378" y2="524.8506">
							<stop  offset="0" style="stop-color:#E84436"/>
							<stop  offset="0.0954" style="stop-color:#D43125"/>
							<stop  offset="0.2057" style="stop-color:#C01D18"/>
							<stop  offset="0.2852" style="stop-color:#B21B17"/>
							<stop  offset="0.362" style="stop-color:#AA1917"/>
							<stop  offset="0.5685" style="stop-color:#D13225"/>
							<stop  offset="0.7057" style="stop-color:#E84030"/>
							<stop  offset="1" style="stop-color:#EB584A"/>
						</linearGradient>
						<path class="st34" d="M508.36,497.25h0.02v-2.74l-119.73,8.28l-87.36-10.44v4.89h0.02c0.17,15.24,10.34,31.11,30.54,42.77
							c40.56,23.42,106.13,22.91,146.44-0.36C498.52,527.97,508.53,512.61,508.36,497.25z"/>
						<path class="st1" d="M478.29,536.66c-35.68,20.59-91.04,22.89-131.43,6.96c-5.27-2.07-10.32-4.49-15.04-7.18
							c-40.56-23.45-40.72-61.31-0.45-84.59c7.69-4.43,16.27-8.02,25.47-10.72c38.93-11.61,88.13-7.97,121,11
							C518.4,475.57,518.57,513.38,478.29,536.66z"/>
					</g>
					<g>
						<linearGradient id="SVGID_23_" gradientUnits="userSpaceOnUse" x1="304.6566" y1="483.9629" x2="505.0034" y2="483.9629">
							<stop  offset="0.1615" style="stop-color:#831811"/>
							<stop  offset="0.4339" style="stop-color:#A5291E"/>
							<stop  offset="0.5964" style="stop-color:#B53224"/>
							<stop  offset="0.9297" style="stop-color:#CB3D2F"/>
						</linearGradient>
						<path class="st35" d="M504.99,492.2H505v-72.23l-115.83,8.01l-84.52-10.1v74.32h0.02c0.16,14.74,10.01,29.49,29.55,40.77
							c39.24,22.66,102.67,22.77,141.66,0.26C495.47,521.92,505.15,507.07,504.99,492.2z"/>
						<linearGradient id="SVGID_24_" gradientUnits="userSpaceOnUse" x1="304.6566" y1="508.3763" x2="505.0034" y2="508.3763">
							<stop  offset="0" style="stop-color:#65140D"/>
							<stop  offset="0.1101" style="stop-color:#6A160F"/>
							<stop  offset="0.2738" style="stop-color:#781B13"/>
							<stop  offset="0.4708" style="stop-color:#90241A"/>
							<stop  offset="0.6921" style="stop-color:#B33123"/>
							<stop  offset="0.7214" style="stop-color:#B83325"/>
							<stop  offset="1" style="stop-color:#D23A2B"/>
						</linearGradient>
						<path class="st36" d="M475.89,518.05c-39,22.51-102.42,22.4-141.67-0.26c-19.54-11.28-29.39-26.03-29.55-40.77h-0.02v4.86
							h0.02c0.16,14.74,10.01,29.49,29.55,40.77c39.24,22.66,102.67,22.77,141.67,0.26c19.58-11.3,29.26-26.16,29.1-41.02H505v-4.86
							h-0.01C505.15,491.89,495.47,506.75,475.89,518.05z"/>
						<linearGradient id="SVGID_25_" gradientUnits="userSpaceOnUse" x1="304.6566" y1="494.9432" x2="505.0034" y2="494.9432">
							<stop  offset="0" style="stop-color:#65140D"/>
							<stop  offset="0.1101" style="stop-color:#6A160F"/>
							<stop  offset="0.2738" style="stop-color:#781B13"/>
							<stop  offset="0.4708" style="stop-color:#90241A"/>
							<stop  offset="0.6921" style="stop-color:#B33123"/>
							<stop  offset="0.7214" style="stop-color:#B83325"/>
							<stop  offset="1" style="stop-color:#D23A2B"/>
						</linearGradient>
						<path class="st37" d="M475.89,504.62c-39,22.52-102.42,22.4-141.67-0.26c-19.54-11.28-29.39-26.03-29.55-40.77h-0.02v4.86
							h0.02c0.16,14.74,10.01,29.49,29.55,40.77c39.24,22.66,102.67,22.77,141.67,0.26c19.58-11.3,29.26-26.16,29.1-41.02H505v-4.86
							h-0.01C505.15,478.46,495.47,493.31,475.89,504.62z"/>
						<linearGradient id="SVGID_26_" gradientUnits="userSpaceOnUse" x1="304.6566" y1="481.5103" x2="505.0034" y2="481.5103">
							<stop  offset="0" style="stop-color:#65140D"/>
							<stop  offset="0.1101" style="stop-color:#6A160F"/>
							<stop  offset="0.2738" style="stop-color:#781B13"/>
							<stop  offset="0.4708" style="stop-color:#90241A"/>
							<stop  offset="0.6921" style="stop-color:#B33123"/>
							<stop  offset="0.7214" style="stop-color:#B83325"/>
							<stop  offset="1" style="stop-color:#D23A2B"/>
						</linearGradient>
						<path class="st38" d="M475.89,491.18c-39,22.52-102.42,22.4-141.67-0.26c-19.54-11.28-29.39-26.03-29.55-40.77h-0.02v4.86
							h0.02c0.16,14.74,10.01,29.49,29.55,40.77c39.24,22.66,102.67,22.77,141.67,0.26c19.58-11.3,29.26-26.16,29.1-41.02H505v-4.86
							h-0.01C505.15,465.02,495.47,479.88,475.89,491.18z"/>
						<linearGradient id="SVGID_27_" gradientUnits="userSpaceOnUse" x1="304.6566" y1="468.0773" x2="505.0034" y2="468.0773">
							<stop  offset="0" style="stop-color:#65140D"/>
							<stop  offset="0.1101" style="stop-color:#6A160F"/>
							<stop  offset="0.2738" style="stop-color:#781B13"/>
							<stop  offset="0.4708" style="stop-color:#90241A"/>
							<stop  offset="0.6921" style="stop-color:#B33123"/>
							<stop  offset="0.7214" style="stop-color:#B83325"/>
							<stop  offset="1" style="stop-color:#D23A2B"/>
						</linearGradient>
						<path class="st39" d="M475.89,477.75c-39,22.52-102.42,22.4-141.67-0.26c-19.54-11.28-29.39-26.03-29.55-40.77h-0.02v4.86
							h0.02c0.16,14.74,10.01,29.49,29.55,40.77c39.24,22.66,102.67,22.77,141.67,0.26c19.58-11.3,29.26-26.16,29.1-41.02H505v-4.86
							h-0.01C505.15,451.59,495.47,466.45,475.89,477.75z"/>
						<path class="st7" d="M475.9,460.75c-34.51,19.92-88.08,22.14-127.15,6.73c-5.1-2.01-9.98-4.34-14.55-6.95
							c-39.24-22.68-39.4-59.31-0.43-81.84c7.44-4.29,15.74-7.76,24.64-10.37c37.66-11.23,85.25-7.71,117.06,10.64
							C514.7,401.65,514.86,438.23,475.9,460.75z"/>
					</g>
					<g>
						<linearGradient id="SVGID_28_" gradientUnits="userSpaceOnUse" x1="301.2822" y1="442.1601" x2="508.378" y2="442.1601">
							<stop  offset="0" style="stop-color:#FFDC49"/>
							<stop  offset="0.1232" style="stop-color:#E4AA22"/>
							<stop  offset="0.1901" style="stop-color:#D99211"/>
							<stop  offset="0.2143" style="stop-color:#D78C11"/>
							<stop  offset="0.3069" style="stop-color:#D17713"/>
							<stop  offset="0.362" style="stop-color:#CF6F13"/>
							<stop  offset="0.4279" style="stop-color:#DD8611"/>
							<stop  offset="0.5046" style="stop-color:#EA9B0D"/>
							<stop  offset="0.5779" style="stop-color:#F3A809"/>
							<stop  offset="0.6432" style="stop-color:#F6AC07"/>
							<stop  offset="0.9497" style="stop-color:#FED664"/>
							<stop  offset="1" style="stop-color:#FFDD71"/>
						</linearGradient>
						<path class="st40" d="M508.36,414.72l0.02,5.51v-8.25l-119.73,8.28l-87.36-10.44v4.89l0.02,5.51
							c0.17,15.24,10.34,24.97,30.54,36.63c40.56,23.42,106.13,23.54,146.44,0.26C498.52,445.44,508.53,430.08,508.36,414.72z"/>
						<path class="st9" d="M478.29,454.13c-35.68,20.59-91.04,22.89-131.43,6.95c-5.27-2.07-10.32-4.49-15.04-7.18
							c-40.56-23.45-40.72-61.31-0.45-84.59c7.69-4.43,16.27-8.02,25.47-10.72c38.93-11.61,88.13-7.97,121,11
							C518.4,393.04,518.57,430.85,478.29,454.13z"/>
					</g>
					<g>
						<linearGradient id="SVGID_29_" gradientUnits="userSpaceOnUse" x1="304.6566" y1="401.4298" x2="505.0034" y2="401.4298">
							<stop  offset="0.2677" style="stop-color:#AB6815"/>
							<stop  offset="0.2819" style="stop-color:#AE6B16"/>
							<stop  offset="0.4938" style="stop-color:#DEA425"/>
							<stop  offset="0.5964" style="stop-color:#F4BD2D"/>
							<stop  offset="0.9297" style="stop-color:#FCD256"/>
						</linearGradient>
						<path class="st41" d="M504.99,409.67H505v-72.23l-115.83,8.01l-84.52-10.1v74.32h0.02c0.16,14.74,10.01,29.49,29.55,40.77
							c39.24,22.66,102.67,22.77,141.66,0.26C495.47,439.39,505.15,424.53,504.99,409.67z"/>
						<linearGradient id="SVGID_30_" gradientUnits="userSpaceOnUse" x1="304.6566" y1="423.1468" x2="505.0034" y2="423.1468">
							<stop  offset="0" style="stop-color:#8C5814"/>
							<stop  offset="0.7786" style="stop-color:#E8A11D"/>
							<stop  offset="1" style="stop-color:#F7C945"/>
						</linearGradient>
						<path class="st42" d="M475.89,432.82c-39,22.51-102.42,22.4-141.67-0.26c-19.54-11.28-29.39-26.03-29.55-40.77h-0.02v4.86
							h0.02c0.16,14.74,10.01,29.49,29.55,40.77c39.24,22.66,102.67,22.77,141.67,0.26c19.58-11.3,29.26-26.16,29.1-41.02H505v-4.86
							h-0.01C505.15,406.66,495.47,421.52,475.89,432.82z"/>
						<linearGradient id="SVGID_31_" gradientUnits="userSpaceOnUse" x1="304.6566" y1="409.7133" x2="505.0034" y2="409.7133">
							<stop  offset="0" style="stop-color:#8C5814"/>
							<stop  offset="0.7786" style="stop-color:#E8A11D"/>
							<stop  offset="1" style="stop-color:#F7C945"/>
						</linearGradient>
						<path class="st43" d="M475.89,419.39c-39,22.52-102.42,22.4-141.67-0.26c-19.54-11.28-29.39-26.03-29.55-40.77h-0.02v4.86
							h0.02c0.16,14.74,10.01,29.49,29.55,40.77c39.24,22.66,102.67,22.77,141.67,0.26c19.58-11.3,29.26-26.16,29.1-41.02H505v-4.86
							h-0.01C505.15,393.23,495.47,408.08,475.89,419.39z"/>
						<linearGradient id="SVGID_32_" gradientUnits="userSpaceOnUse" x1="304.6566" y1="396.2808" x2="505.0034" y2="396.2808">
							<stop  offset="0" style="stop-color:#8C5814"/>
							<stop  offset="0.7786" style="stop-color:#E8A11D"/>
							<stop  offset="1" style="stop-color:#F7C945"/>
						</linearGradient>
						<path class="st44" d="M475.89,405.96c-39,22.52-102.42,22.4-141.67-0.26c-19.54-11.28-29.39-26.03-29.55-40.77h-0.02v4.86
							h0.02c0.16,14.74,10.01,29.49,29.55,40.77c39.24,22.66,102.67,22.77,141.67,0.26c19.58-11.3,29.26-26.16,29.1-41.02H505v-4.86
							h-0.01C505.15,379.79,495.47,394.65,475.89,405.96z"/>
						<linearGradient id="SVGID_33_" gradientUnits="userSpaceOnUse" x1="304.6566" y1="382.8473" x2="505.0034" y2="382.8473">
							<stop  offset="0" style="stop-color:#8C5814"/>
							<stop  offset="0.7786" style="stop-color:#E8A11D"/>
							<stop  offset="1" style="stop-color:#F7C945"/>
						</linearGradient>
						<path class="st45" d="M475.89,392.52c-39,22.52-102.42,22.4-141.67-0.26c-19.54-11.28-29.39-26.03-29.55-40.77h-0.02v4.86
							h0.02c0.16,14.74,10.01,29.49,29.55,40.77c39.24,22.66,102.67,22.77,141.67,0.26c19.58-11.3,29.26-26.16,29.1-41.02H505v-4.86
							h-0.01C505.15,366.36,495.47,381.22,475.89,392.52z"/>
						<path class="st15" d="M475.9,378.22c-34.51,19.92-88.08,22.14-127.15,6.73c-5.1-2.01-9.98-4.34-14.55-6.95
							c-39.24-22.68-39.4-59.31-0.43-81.84c7.44-4.29,15.74-7.76,24.64-10.37c37.66-11.23,85.25-7.71,117.06,10.64
							C514.7,319.12,514.86,355.69,475.9,378.22z"/>
					</g>
					<g>
						<linearGradient id="SVGID_34_" gradientUnits="userSpaceOnUse" x1="301.2822" y1="359.6268" x2="508.378" y2="359.6268">
							<stop  offset="0" style="stop-color:#FFDC49"/>
							<stop  offset="0.1232" style="stop-color:#E4AA22"/>
							<stop  offset="0.1901" style="stop-color:#D99211"/>
							<stop  offset="0.2143" style="stop-color:#D78C11"/>
							<stop  offset="0.3069" style="stop-color:#D17713"/>
							<stop  offset="0.362" style="stop-color:#CF6F13"/>
							<stop  offset="0.4279" style="stop-color:#DD8611"/>
							<stop  offset="0.5046" style="stop-color:#EA9B0D"/>
							<stop  offset="0.5779" style="stop-color:#F3A809"/>
							<stop  offset="0.6432" style="stop-color:#F6AC07"/>
							<stop  offset="0.9497" style="stop-color:#FED664"/>
							<stop  offset="1" style="stop-color:#FFDD71"/>
						</linearGradient>
						<path class="st46" d="M508.36,332.18h0.02v-2.74l-119.73,8.28l-87.36-10.44v4.89l0.02,5.51
							c0.17,15.24,10.34,24.97,30.54,36.63c40.56,23.42,106.13,23.54,146.44,0.27C498.52,362.9,508.53,347.55,508.36,332.18z"/>
						<path class="st9" d="M478.29,371.59c-35.68,20.59-91.04,22.89-131.43,6.95c-5.27-2.07-10.32-4.49-15.04-7.18
							c-40.56-23.45-40.72-61.31-0.45-84.59c7.69-4.43,16.27-8.02,25.47-10.72c38.93-11.61,88.13-7.97,121,11
							C518.4,310.5,518.57,348.31,478.29,371.59z"/>
					</g>
					<g>
						<linearGradient id="SVGID_35_" gradientUnits="userSpaceOnUse" x1="304.6566" y1="318.8962" x2="505.0034" y2="318.8962">
							<stop  offset="0.1615" style="stop-color:#831811"/>
							<stop  offset="0.4339" style="stop-color:#A5291E"/>
							<stop  offset="0.5964" style="stop-color:#B53224"/>
							<stop  offset="0.9297" style="stop-color:#CB3D2F"/>
						</linearGradient>
						<path class="st47" d="M504.99,327.14H505v-72.23l-115.83,8.01l-84.52-10.09v74.32h0.02c0.16,14.74,10.01,29.49,29.55,40.77
							c39.24,22.66,102.67,22.77,141.66,0.26C495.47,356.86,505.15,342,504.99,327.14z"/>
					</g>
					<linearGradient id="SVGID_36_" gradientUnits="userSpaceOnUse" x1="304.6566" y1="341.7476" x2="505.0034" y2="341.7476">
						<stop  offset="0" style="stop-color:#65140D"/>
						<stop  offset="0.1101" style="stop-color:#6A160F"/>
						<stop  offset="0.2738" style="stop-color:#781B13"/>
						<stop  offset="0.4708" style="stop-color:#90241A"/>
						<stop  offset="0.6921" style="stop-color:#B33123"/>
						<stop  offset="0.7214" style="stop-color:#B83325"/>
						<stop  offset="1" style="stop-color:#D23A2B"/>
					</linearGradient>
					<path class="st48" d="M475.89,351.42c-39,22.52-102.42,22.4-141.67-0.26c-19.54-11.28-29.39-26.03-29.55-40.77h-0.02v4.86h0.02
						c0.16,14.74,10.01,29.49,29.55,40.77c39.24,22.66,102.67,22.77,141.67,0.26c19.58-11.3,29.26-26.16,29.1-41.02H505v-4.86h-0.01
						C505.15,325.26,495.47,340.12,475.89,351.42z"/>
					<linearGradient id="SVGID_37_" gradientUnits="userSpaceOnUse" x1="304.6566" y1="328.3145" x2="505.0034" y2="328.3145">
						<stop  offset="0" style="stop-color:#65140D"/>
						<stop  offset="0.1101" style="stop-color:#6A160F"/>
						<stop  offset="0.2738" style="stop-color:#781B13"/>
						<stop  offset="0.4708" style="stop-color:#90241A"/>
						<stop  offset="0.6921" style="stop-color:#B33123"/>
						<stop  offset="0.7214" style="stop-color:#B83325"/>
						<stop  offset="1" style="stop-color:#D23A2B"/>
					</linearGradient>
					<path class="st49" d="M475.89,337.99c-39,22.52-102.42,22.4-141.67-0.26c-19.54-11.28-29.39-26.03-29.55-40.77h-0.02v4.86h0.02
						c0.16,14.74,10.01,29.49,29.55,40.77c39.24,22.66,102.67,22.77,141.67,0.26c19.58-11.3,29.26-26.16,29.1-41.02H505v-4.86h-0.01
						C505.15,311.83,495.47,326.69,475.89,337.99z"/>
					<linearGradient id="SVGID_38_" gradientUnits="userSpaceOnUse" x1="304.6566" y1="314.8815" x2="505.0034" y2="314.8815">
						<stop  offset="0" style="stop-color:#65140D"/>
						<stop  offset="0.1101" style="stop-color:#6A160F"/>
						<stop  offset="0.2738" style="stop-color:#781B13"/>
						<stop  offset="0.4708" style="stop-color:#90241A"/>
						<stop  offset="0.6921" style="stop-color:#B33123"/>
						<stop  offset="0.7214" style="stop-color:#B83325"/>
						<stop  offset="1" style="stop-color:#D23A2B"/>
					</linearGradient>
					<path class="st50" d="M475.89,324.56c-39,22.52-102.42,22.4-141.67-0.26c-19.54-11.28-29.39-26.03-29.55-40.77h-0.02v4.86h0.02
						c0.16,14.74,10.01,29.49,29.55,40.77c39.24,22.66,102.67,22.77,141.67,0.26c19.58-11.3,29.26-26.16,29.1-41.02H505v-4.86h-0.01
						C505.15,298.39,495.47,313.25,475.89,324.56z"/>
					<linearGradient id="SVGID_39_" gradientUnits="userSpaceOnUse" x1="304.6566" y1="301.4487" x2="505.0034" y2="301.4487">
						<stop  offset="0" style="stop-color:#65140D"/>
						<stop  offset="0.1101" style="stop-color:#6A160F"/>
						<stop  offset="0.2738" style="stop-color:#781B13"/>
						<stop  offset="0.4708" style="stop-color:#90241A"/>
						<stop  offset="0.6921" style="stop-color:#B33123"/>
						<stop  offset="0.7214" style="stop-color:#B83325"/>
						<stop  offset="1" style="stop-color:#D23A2B"/>
					</linearGradient>
					<path class="st51" d="M475.89,311.12c-39,22.52-102.42,22.4-141.67-0.26c-19.54-11.28-29.39-26.03-29.55-40.77h-0.02v4.86h0.02
						c0.16,14.74,10.01,29.49,29.55,40.77c39.24,22.66,102.67,22.77,141.67,0.26c19.58-11.3,29.26-26.16,29.1-41.02H505v-4.86h-0.01
						C505.15,284.96,495.47,299.82,475.89,311.12z"/>
					<g>
						<linearGradient id="SVGID_40_" gradientUnits="userSpaceOnUse" x1="301.2822" y1="277.0934" x2="508.378" y2="277.0934">
							<stop  offset="0" style="stop-color:#E84436"/>
							<stop  offset="0.0954" style="stop-color:#D43125"/>
							<stop  offset="0.2057" style="stop-color:#C01D18"/>
							<stop  offset="0.2852" style="stop-color:#B21B17"/>
							<stop  offset="0.362" style="stop-color:#AA1917"/>
							<stop  offset="0.5685" style="stop-color:#D13225"/>
							<stop  offset="0.7057" style="stop-color:#E84030"/>
							<stop  offset="1" style="stop-color:#EB584A"/>
						</linearGradient>
						<path class="st52" d="M508.36,249.65h0.02v-2.74l-119.73,8.28l-87.36-10.44v4.89h0.02c0.17,15.24,10.34,30.48,30.54,42.14
							c40.56,23.42,106.13,23.54,146.44,0.26C498.52,280.37,508.53,265.01,508.36,249.65z"/>
						<path class="st23" d="M478.29,289.06c-35.68,20.59-91.04,22.89-131.43,6.95c-5.27-2.07-10.32-4.49-15.04-7.18
							c-40.56-23.45-40.72-61.31-0.45-84.59c7.69-4.43,16.27-8.02,25.47-10.72c38.93-11.61,88.13-7.97,121,11
							C518.4,227.97,518.57,265.78,478.29,289.06z"/>
						<path class="st1" d="M477.1,288.77c-35.44,20.45-90.43,22.73-130.55,6.91c-5.23-2.06-10.25-4.45-14.93-7.13
							c-40.28-23.29-40.45-60.9-0.44-84.02c7.63-4.4,16.16-7.97,25.3-10.64c38.67-11.53,87.53-7.91,120.19,10.92
							C516.94,228.1,517.11,265.65,477.1,288.77z"/>
					</g>
					<path class="st24" d="M475.01,286.25c-34.08,19.23-86.98,21.37-125.56,6.49c-5.04-1.94-9.86-4.19-14.36-6.71
						c-38.75-21.89-38.9-57.25-0.43-78.99c7.34-4.14,15.54-7.49,24.33-10.01c37.19-10.84,84.19-7.44,115.59,10.27
						C513.33,229.21,513.49,264.51,475.01,286.25z"/>
					<path class="st15" d="M474.58,207.31c-20.17-11.37-46.76-16.76-73.06-16.35c24.77,0.26,49.5,5.56,68.6,16.1
						c38.97,21.56,39.49,56.32,1.23,77.72c-33.88,18.93-86.76,21.04-125.49,6.39c-1.35-0.51-2.63-1.09-3.95-1.64
						c2.45,1.15,4.96,2.22,7.54,3.22c38.58,14.88,91.48,12.73,125.56-6.49C513.49,264.51,513.33,229.21,474.58,207.31z"/>
					<linearGradient id="SVGID_41_" gradientUnits="userSpaceOnUse" x1="305.9026" y1="220.4608" x2="503.7564" y2="220.4608">
						<stop  offset="0.1031" style="stop-color:#F6AC07"/>
						<stop  offset="0.5794" style="stop-color:#DA8012"/>
						<stop  offset="0.7626" style="stop-color:#CF6F13"/>
						<stop  offset="0.8555" style="stop-color:#CF7113"/>
						<stop  offset="0.9132" style="stop-color:#D17813"/>
						<stop  offset="0.9612" style="stop-color:#D58412"/>
						<stop  offset="1" style="stop-color:#D99211"/>
					</linearGradient>
					<path class="st53" d="M334.39,213.31c7.37-4.13,15.6-7.49,24.42-10c37.33-10.84,84.51-7.44,116.04,10.27
						c18.06,10.17,27.4,23.24,28.75,36.49c1.5-15.34-7.83-30.98-28.75-42.75c-31.53-17.71-78.7-21.11-116.04-10.27
						c-8.82,2.52-17.05,5.87-24.42,10c-20.69,11.64-29.88,27.18-28.32,42.48C307.36,236.33,316.54,223.36,334.39,213.31z"/>
					<g>
						<path class="st26" d="M347.32,263.03c-3.88,2.24-9.91,2.49-14.31,0.76c-0.57-0.23-1.12-0.49-1.64-0.78
							c-4.42-2.55-4.43-6.67-0.05-9.21c0.84-0.48,1.77-0.87,2.77-1.17c4.24-1.26,9.59-0.87,13.17,1.2
							C351.68,256.38,351.7,260.49,347.32,263.03z"/>
						<linearGradient id="SVGID_42_" gradientUnits="userSpaceOnUse" x1="331.1105" y1="259.9444" x2="353.6541" y2="259.9444">
							<stop  offset="0" style="stop-color:#D99211"/>
							<stop  offset="0.0388" style="stop-color:#D58412"/>
							<stop  offset="0.0868" style="stop-color:#D17813"/>
							<stop  offset="0.1445" style="stop-color:#CF7113"/>
							<stop  offset="0.2374" style="stop-color:#CF6F13"/>
							<stop  offset="0.4206" style="stop-color:#DA8012"/>
							<stop  offset="0.8969" style="stop-color:#F6AC07"/>
						</linearGradient>
						<path class="st54" d="M353.65,258.41L353.65,258.41l0-3.21l-13.03,0.9l-9.51-1.14v3.45h0c0.02,1.66,1.13,3.32,3.32,4.59
							c4.42,2.55,11.55,2.56,15.94,0.03C352.58,261.76,353.67,260.09,353.65,258.41z"/>
						<path class="st28" d="M350.38,259.79c-3.88,2.24-9.91,2.49-14.31,0.76c-0.57-0.23-1.12-0.49-1.64-0.78
							c-4.42-2.55-4.43-6.67-0.05-9.21c0.84-0.48,1.77-0.87,2.77-1.17c4.24-1.26,9.59-0.87,13.17,1.2
							C354.75,253.14,354.76,257.26,350.38,259.79z"/>
						<path class="st29" d="M350.38,259.79c-3.88,2.24-9.91,2.49-14.31,0.76c-0.57-0.23-1.12-0.49-1.64-0.78
							c-4.42-2.55-4.43-6.67-0.05-9.21c0.84-0.48,1.77-0.87,2.77-1.17c4.24-1.26,9.59-0.87,13.17,1.2
							C354.75,253.14,354.76,257.26,350.38,259.79z"/>
						<path class="st30" d="M349.68,259.41c-3.71,2.14-9.46,2.38-13.65,0.72c-0.55-0.22-1.07-0.47-1.56-0.75
							c-4.21-2.44-4.23-6.37-0.05-8.79c0.8-0.46,1.69-0.83,2.65-1.11c4.04-1.21,9.16-0.83,12.57,1.14
							C353.85,253.06,353.86,256.99,349.68,259.41z"/>
						<path class="st31" d="M347.86,258.34c-2.66,1.54-6.79,1.71-9.8,0.52c-0.39-0.15-0.77-0.33-1.12-0.54
							c-3.02-1.75-3.04-4.57-0.03-6.31c0.57-0.33,1.21-0.6,1.9-0.8c2.9-0.87,6.57-0.59,9.02,0.82
							C350.85,253.78,350.86,256.6,347.86,258.34z"/>
					</g>
				</g>
				<g>
					<path class="st32" d="M476.24,382.02c-7.72,12.48-15.03,24.26-33.22,44.94c8.62,5.51,17.51,11.17,33.09,19.37
						c7.38-13.23,14.41-25.64,21.85-51.49C493.81,391.88,490.5,389.47,476.24,382.02z M487.06,421.66
						c-0.14,0.28-0.28,0.55-0.34,0.83c-2.83,6.27-6.27,13.1-10.62,20.33c-3.24-1.65-6.2-3.31-9.03-4.83
						c-2.34-1.31-4.55-2.55-6.62-3.79c-5.24-3.03-9.58-5.79-13.44-8.2c1.1-1.24,2.14-2.48,3.1-3.72c0.83-1.03,1.79-2.2,2.76-3.38
						c1.24-1.45,2.41-2.9,3.45-4.34c0.9-1.24,1.86-2.48,2.89-3.79c3.58-4.69,6.55-9.03,9.17-12.89c2.07-3.17,3.93-6.07,5.58-8.69
						c0.76-1.24,1.59-2.48,2.27-3.65c5.31,2.76,9.17,4.89,12.06,6.62c0.34,0.21,0.76,0.41,1.17,0.69c3.03,1.79,4.96,3.1,6.82,4.41
						c-2.14,7.03-4.55,13.44-6.96,19.16C488.64,418.07,487.89,419.87,487.06,421.66z"/>
					<path class="st33" d="M468.38,397.88c2.07-3.17,3.93-6.07,5.58-8.69C472.17,392.22,470.24,395.12,468.38,397.88z
						 M467.07,437.99c-2.34-1.31-4.55-2.55-6.62-3.79C462.79,435.58,465.07,436.82,467.07,437.99z"/>
					<path class="st32" d="M479.91,410.4c-2.16,1.29-3.57-0.97-2.93-3.52c0.71-2.84,3.27-4.21,4.42-2.37
						C482.39,406.11,481.57,409.36,479.91,410.4L479.91,410.4z M476.21,396.87c-3.19,2.06-10.72,21.81-10.91,22.81
						c-1.08,5.61,1.6,8.75,4.73,9.38c7.61,1.53,21.48-14.33,12.91-26.61C479.81,397.97,477.54,396.09,476.21,396.87L476.21,396.87z"
						/>
				</g>
			</g>
		</g>
		<g>
			<g>
				<g>
					<g>
						<linearGradient id="SVGID_43_" gradientUnits="userSpaceOnUse" x1="86.2447" y1="493.5008" x2="293.3395" y2="493.5008">
							<stop  offset="0" style="stop-color:#E84436"/>
							<stop  offset="0.0954" style="stop-color:#D43125"/>
							<stop  offset="0.2057" style="stop-color:#C01D18"/>
							<stop  offset="0.2852" style="stop-color:#B21B17"/>
							<stop  offset="0.362" style="stop-color:#AA1917"/>
							<stop  offset="0.5685" style="stop-color:#D13225"/>
							<stop  offset="0.7057" style="stop-color:#E84030"/>
							<stop  offset="1" style="stop-color:#EB584A"/>
						</linearGradient>
						<path class="st55" d="M293.32,465.9h0.02v-2.74l-119.73,8.28l-87.36-10.44v4.89h0.02c0.17,15.24,10.34,31.11,30.54,42.77
							c40.56,23.42,106.13,22.91,146.44-0.36C283.48,496.62,293.49,481.26,293.32,465.9z"/>
						<path class="st1" d="M263.25,505.31c-35.68,20.59-91.04,22.89-131.43,6.95c-5.27-2.08-10.32-4.49-15.04-7.18
							c-40.56-23.45-40.72-61.31-0.45-84.59c7.69-4.43,16.27-8.02,25.47-10.72c38.93-11.61,88.13-7.97,121,11
							C303.37,444.22,303.53,482.03,263.25,505.31z"/>
					</g>
					<g>
						<linearGradient id="SVGID_44_" gradientUnits="userSpaceOnUse" x1="89.6192" y1="452.6134" x2="289.9649" y2="452.6134">
							<stop  offset="0.1615" style="stop-color:#831811"/>
							<stop  offset="0.4339" style="stop-color:#A5291E"/>
							<stop  offset="0.5964" style="stop-color:#B53224"/>
							<stop  offset="0.9297" style="stop-color:#CB3D2F"/>
						</linearGradient>
						<path class="st56" d="M289.95,460.85h0.01v-72.23l-115.83,8.01l-84.52-10.1v74.32h0.02c0.16,14.74,10.01,29.49,29.55,40.77
							c39.24,22.66,102.67,22.77,141.67,0.26C280.43,490.57,290.11,475.72,289.95,460.85z"/>
						<linearGradient id="SVGID_45_" gradientUnits="userSpaceOnUse" x1="89.6192" y1="477.0264" x2="289.9659" y2="477.0264">
							<stop  offset="0" style="stop-color:#65140D"/>
							<stop  offset="0.1101" style="stop-color:#6A160F"/>
							<stop  offset="0.2738" style="stop-color:#781B13"/>
							<stop  offset="0.4708" style="stop-color:#90241A"/>
							<stop  offset="0.6921" style="stop-color:#B33123"/>
							<stop  offset="0.7214" style="stop-color:#B83325"/>
							<stop  offset="1" style="stop-color:#D23A2B"/>
						</linearGradient>
						<path class="st57" d="M260.85,486.7c-39,22.52-102.42,22.4-141.66-0.26c-19.54-11.28-29.39-26.03-29.55-40.77h-0.02v4.86h0.02
							c0.16,14.74,10.01,29.49,29.55,40.77c39.24,22.66,102.67,22.77,141.66,0.26c19.58-11.3,29.26-26.16,29.1-41.02h0.02v-4.86
							h-0.02C290.11,460.54,280.43,475.4,260.85,486.7z"/>
						<linearGradient id="SVGID_46_" gradientUnits="userSpaceOnUse" x1="89.6192" y1="463.5933" x2="289.9659" y2="463.5933">
							<stop  offset="0" style="stop-color:#65140D"/>
							<stop  offset="0.1101" style="stop-color:#6A160F"/>
							<stop  offset="0.2738" style="stop-color:#781B13"/>
							<stop  offset="0.4708" style="stop-color:#90241A"/>
							<stop  offset="0.6921" style="stop-color:#B33123"/>
							<stop  offset="0.7214" style="stop-color:#B83325"/>
							<stop  offset="1" style="stop-color:#D23A2B"/>
						</linearGradient>
						<path class="st58" d="M260.85,473.27c-39,22.52-102.42,22.4-141.66-0.26c-19.54-11.28-29.39-26.03-29.55-40.77h-0.02v4.86
							h0.02c0.16,14.74,10.01,29.49,29.55,40.77c39.24,22.66,102.67,22.77,141.66,0.26c19.58-11.3,29.26-26.16,29.1-41.02h0.02
							v-4.86h-0.02C290.11,447.11,280.43,461.97,260.85,473.27z"/>
						<linearGradient id="SVGID_47_" gradientUnits="userSpaceOnUse" x1="89.6192" y1="450.1604" x2="289.9659" y2="450.1604">
							<stop  offset="0" style="stop-color:#65140D"/>
							<stop  offset="0.1101" style="stop-color:#6A160F"/>
							<stop  offset="0.2738" style="stop-color:#781B13"/>
							<stop  offset="0.4708" style="stop-color:#90241A"/>
							<stop  offset="0.6921" style="stop-color:#B33123"/>
							<stop  offset="0.7214" style="stop-color:#B83325"/>
							<stop  offset="1" style="stop-color:#D23A2B"/>
						</linearGradient>
						<path class="st59" d="M260.85,459.84c-39,22.51-102.42,22.4-141.66-0.26c-19.54-11.28-29.39-26.03-29.55-40.77h-0.02v4.86
							h0.02c0.16,14.74,10.01,29.49,29.55,40.77c39.24,22.66,102.67,22.77,141.66,0.26c19.58-11.3,29.26-26.16,29.1-41.03h0.02
							v-4.86h-0.02C290.11,433.67,280.43,448.53,260.85,459.84z"/>
						<linearGradient id="SVGID_48_" gradientUnits="userSpaceOnUse" x1="89.6192" y1="436.7274" x2="289.9659" y2="436.7274">
							<stop  offset="0" style="stop-color:#65140D"/>
							<stop  offset="0.1101" style="stop-color:#6A160F"/>
							<stop  offset="0.2738" style="stop-color:#781B13"/>
							<stop  offset="0.4708" style="stop-color:#90241A"/>
							<stop  offset="0.6921" style="stop-color:#B33123"/>
							<stop  offset="0.7214" style="stop-color:#B83325"/>
							<stop  offset="1" style="stop-color:#D23A2B"/>
						</linearGradient>
						<path class="st60" d="M260.85,446.4c-39,22.52-102.42,22.4-141.66-0.26c-19.54-11.28-29.39-26.03-29.55-40.77h-0.02v4.86h0.02
							c0.16,14.74,10.01,29.49,29.55,40.77c39.24,22.66,102.67,22.77,141.66,0.26c19.58-11.3,29.26-26.16,29.1-41.02h0.02v-4.86
							h-0.02C290.11,420.24,280.43,435.1,260.85,446.4z"/>
						<path class="st7" d="M260.86,429.4c-34.51,19.92-88.08,22.14-127.15,6.73c-5.1-2.01-9.98-4.34-14.55-6.95
							c-39.24-22.68-39.4-59.31-0.43-81.84c7.44-4.29,15.74-7.76,24.64-10.37c37.66-11.23,85.25-7.71,117.06,10.64
							C299.67,370.3,299.83,406.88,260.86,429.4z"/>
					</g>
					<g>
						<linearGradient id="SVGID_49_" gradientUnits="userSpaceOnUse" x1="86.2447" y1="410.8104" x2="293.3395" y2="410.8104">
							<stop  offset="0" style="stop-color:#FFDC49"/>
							<stop  offset="0.1232" style="stop-color:#E4AA22"/>
							<stop  offset="0.1901" style="stop-color:#D99211"/>
							<stop  offset="0.2143" style="stop-color:#D78C11"/>
							<stop  offset="0.3069" style="stop-color:#D17713"/>
							<stop  offset="0.362" style="stop-color:#CF6F13"/>
							<stop  offset="0.4279" style="stop-color:#DD8611"/>
							<stop  offset="0.5046" style="stop-color:#EA9B0D"/>
							<stop  offset="0.5779" style="stop-color:#F3A809"/>
							<stop  offset="0.6432" style="stop-color:#F6AC07"/>
							<stop  offset="0.9497" style="stop-color:#FED664"/>
							<stop  offset="1" style="stop-color:#FFDD71"/>
						</linearGradient>
						<path class="st61" d="M293.32,383.37l0.02,5.51v-8.25l-119.73,8.28l-87.36-10.44v4.89l0.02,5.51
							c0.17,15.24,10.34,24.97,30.54,36.63c40.56,23.42,106.13,23.54,146.44,0.26C283.48,414.09,293.49,398.73,293.32,383.37z"/>
						<path class="st9" d="M263.25,422.78c-35.68,20.59-91.04,22.89-131.43,6.95c-5.27-2.07-10.32-4.49-15.04-7.18
							c-40.56-23.45-40.72-61.31-0.45-84.59c7.69-4.43,16.27-8.02,25.47-10.71c38.93-11.61,88.13-7.97,121,10.99
							C303.37,361.69,303.53,399.5,263.25,422.78z"/>
					</g>
					<g>
						<linearGradient id="SVGID_50_" gradientUnits="userSpaceOnUse" x1="89.6192" y1="370.0799" x2="289.9649" y2="370.0799">
							<stop  offset="0.2677" style="stop-color:#AB6815"/>
							<stop  offset="0.2819" style="stop-color:#AE6B16"/>
							<stop  offset="0.4938" style="stop-color:#DEA425"/>
							<stop  offset="0.5964" style="stop-color:#F4BD2D"/>
							<stop  offset="0.9297" style="stop-color:#FCD256"/>
						</linearGradient>
						<path class="st62" d="M289.95,378.32h0.01v-72.23l-115.83,8.01L89.62,304v74.32h0.02c0.16,14.74,10.01,29.49,29.55,40.77
							c39.24,22.66,102.67,22.77,141.67,0.26C280.43,408.04,290.11,393.18,289.95,378.32z"/>
						<linearGradient id="SVGID_51_" gradientUnits="userSpaceOnUse" x1="89.6192" y1="391.7967" x2="289.9659" y2="391.7967">
							<stop  offset="0" style="stop-color:#8C5814"/>
							<stop  offset="0.7786" style="stop-color:#E8A11D"/>
							<stop  offset="1" style="stop-color:#F7C945"/>
						</linearGradient>
						<path class="st63" d="M260.85,401.47c-39,22.52-102.42,22.4-141.66-0.26c-19.54-11.28-29.39-26.03-29.55-40.77h-0.02v4.86
							h0.02c0.16,14.74,10.01,29.49,29.55,40.77c39.24,22.66,102.67,22.77,141.66,0.26c19.58-11.3,29.26-26.16,29.1-41.02h0.02
							v-4.86h-0.02C290.11,375.31,280.43,390.17,260.85,401.47z"/>
						<linearGradient id="SVGID_52_" gradientUnits="userSpaceOnUse" x1="89.6192" y1="378.3637" x2="289.9659" y2="378.3637">
							<stop  offset="0" style="stop-color:#8C5814"/>
							<stop  offset="0.7786" style="stop-color:#E8A11D"/>
							<stop  offset="1" style="stop-color:#F7C945"/>
						</linearGradient>
						<path class="st64" d="M260.85,388.04c-39,22.52-102.42,22.4-141.66-0.26c-19.54-11.28-29.39-26.03-29.55-40.77h-0.02v4.86
							h0.02c0.16,14.74,10.01,29.49,29.55,40.77c39.24,22.66,102.67,22.77,141.66,0.26c19.58-11.3,29.26-26.16,29.1-41.02h0.02
							v-4.86h-0.02C290.11,361.88,280.43,376.73,260.85,388.04z"/>
						<linearGradient id="SVGID_53_" gradientUnits="userSpaceOnUse" x1="89.6192" y1="364.9307" x2="289.9659" y2="364.9307">
							<stop  offset="0" style="stop-color:#8C5814"/>
							<stop  offset="0.7786" style="stop-color:#E8A11D"/>
							<stop  offset="1" style="stop-color:#F7C945"/>
						</linearGradient>
						<path class="st65" d="M260.85,374.61c-39,22.52-102.42,22.4-141.66-0.26c-19.54-11.28-29.39-26.03-29.55-40.77h-0.02v4.86
							h0.02c0.16,14.74,10.01,29.49,29.55,40.77c39.24,22.66,102.67,22.77,141.66,0.26c19.58-11.3,29.26-26.16,29.1-41.02h0.02
							v-4.86h-0.02C290.11,348.44,280.43,363.3,260.85,374.61z"/>
						<linearGradient id="SVGID_54_" gradientUnits="userSpaceOnUse" x1="89.6192" y1="351.4977" x2="289.9659" y2="351.4977">
							<stop  offset="0" style="stop-color:#8C5814"/>
							<stop  offset="0.7786" style="stop-color:#E8A11D"/>
							<stop  offset="1" style="stop-color:#F7C945"/>
						</linearGradient>
						<path class="st66" d="M260.85,361.17c-39,22.52-102.42,22.4-141.66-0.26c-19.54-11.28-29.39-26.03-29.55-40.77h-0.02v4.86
							h0.02c0.16,14.74,10.01,29.49,29.55,40.77c39.24,22.66,102.67,22.77,141.66,0.26c19.58-11.3,29.26-26.16,29.1-41.02h0.02
							v-4.86h-0.02C290.11,335.01,280.43,349.87,260.85,361.17z"/>
						<path class="st15" d="M260.86,346.87c-34.51,19.92-88.08,22.14-127.15,6.73c-5.1-2.01-9.98-4.34-14.55-6.95
							c-39.24-22.68-39.4-59.31-0.43-81.84c7.44-4.29,15.74-7.76,24.64-10.37c37.66-11.23,85.25-7.71,117.06,10.64
							C299.67,287.77,299.83,324.34,260.86,346.87z"/>
					</g>
					<g>
						<linearGradient id="SVGID_55_" gradientUnits="userSpaceOnUse" x1="86.2447" y1="328.2769" x2="293.3395" y2="328.2769">
							<stop  offset="0" style="stop-color:#FFDC49"/>
							<stop  offset="0.1232" style="stop-color:#E4AA22"/>
							<stop  offset="0.1901" style="stop-color:#D99211"/>
							<stop  offset="0.2143" style="stop-color:#D78C11"/>
							<stop  offset="0.3069" style="stop-color:#D17713"/>
							<stop  offset="0.362" style="stop-color:#CF6F13"/>
							<stop  offset="0.4279" style="stop-color:#DD8611"/>
							<stop  offset="0.5046" style="stop-color:#EA9B0D"/>
							<stop  offset="0.5779" style="stop-color:#F3A809"/>
							<stop  offset="0.6432" style="stop-color:#F6AC07"/>
							<stop  offset="0.9497" style="stop-color:#FED664"/>
							<stop  offset="1" style="stop-color:#FFDD71"/>
						</linearGradient>
						<path class="st67" d="M293.32,300.83h0.02v-2.74l-119.73,8.28l-87.36-10.44v4.89l0.02,5.51
							c0.17,15.24,10.34,24.97,30.54,36.63c40.56,23.42,106.13,23.54,146.44,0.26C283.48,331.55,293.49,316.2,293.32,300.83z"/>
						<path class="st9" d="M263.25,340.24c-35.68,20.59-91.04,22.89-131.43,6.96c-5.27-2.08-10.32-4.49-15.04-7.18
							c-40.56-23.45-40.72-61.31-0.45-84.59c7.69-4.43,16.27-8.02,25.47-10.71c38.93-11.61,88.13-7.97,121,10.99
							C303.37,279.15,303.53,316.96,263.25,340.24z"/>
					</g>
					<g>
						<linearGradient id="SVGID_56_" gradientUnits="userSpaceOnUse" x1="89.6192" y1="287.5463" x2="289.9649" y2="287.5463">
							<stop  offset="0.1615" style="stop-color:#831811"/>
							<stop  offset="0.4339" style="stop-color:#A5291E"/>
							<stop  offset="0.5964" style="stop-color:#B53224"/>
							<stop  offset="0.9297" style="stop-color:#CB3D2F"/>
						</linearGradient>
						<path class="st68" d="M289.95,295.79h0.01v-72.23l-115.83,8.01l-84.52-10.1v74.32h0.02c0.16,14.74,10.01,29.49,29.55,40.77
							c39.24,22.66,102.67,22.77,141.67,0.26C280.43,325.51,290.11,310.65,289.95,295.79z"/>
					</g>
					<linearGradient id="SVGID_57_" gradientUnits="userSpaceOnUse" x1="89.6192" y1="310.3976" x2="289.9659" y2="310.3976">
						<stop  offset="0" style="stop-color:#65140D"/>
						<stop  offset="0.1101" style="stop-color:#6A160F"/>
						<stop  offset="0.2738" style="stop-color:#781B13"/>
						<stop  offset="0.4708" style="stop-color:#90241A"/>
						<stop  offset="0.6921" style="stop-color:#B33123"/>
						<stop  offset="0.7214" style="stop-color:#B83325"/>
						<stop  offset="1" style="stop-color:#D23A2B"/>
					</linearGradient>
					<path class="st69" d="M260.85,320.07c-39,22.52-102.42,22.4-141.66-0.26c-19.54-11.28-29.39-26.03-29.55-40.77h-0.02v4.86h0.02
						c0.16,14.74,10.01,29.49,29.55,40.77c39.24,22.66,102.67,22.77,141.66,0.26c19.58-11.3,29.26-26.16,29.1-41.02h0.02v-4.86
						h-0.02C290.11,293.91,280.43,308.77,260.85,320.07z"/>
					<linearGradient id="SVGID_58_" gradientUnits="userSpaceOnUse" x1="89.6192" y1="296.9651" x2="289.9659" y2="296.9651">
						<stop  offset="0" style="stop-color:#65140D"/>
						<stop  offset="0.1101" style="stop-color:#6A160F"/>
						<stop  offset="0.2738" style="stop-color:#781B13"/>
						<stop  offset="0.4708" style="stop-color:#90241A"/>
						<stop  offset="0.6921" style="stop-color:#B33123"/>
						<stop  offset="0.7214" style="stop-color:#B83325"/>
						<stop  offset="1" style="stop-color:#D23A2B"/>
					</linearGradient>
					<path class="st70" d="M260.85,306.64c-39,22.52-102.42,22.4-141.66-0.26c-19.54-11.28-29.39-26.03-29.55-40.77h-0.02v4.86h0.02
						c0.16,14.74,10.01,29.49,29.55,40.77c39.24,22.66,102.67,22.77,141.66,0.26c19.58-11.3,29.26-26.16,29.1-41.02h0.02v-4.86
						h-0.02C290.11,280.48,280.43,295.34,260.85,306.64z"/>
					<linearGradient id="SVGID_59_" gradientUnits="userSpaceOnUse" x1="89.6192" y1="283.5316" x2="289.9659" y2="283.5316">
						<stop  offset="0" style="stop-color:#65140D"/>
						<stop  offset="0.1101" style="stop-color:#6A160F"/>
						<stop  offset="0.2738" style="stop-color:#781B13"/>
						<stop  offset="0.4708" style="stop-color:#90241A"/>
						<stop  offset="0.6921" style="stop-color:#B33123"/>
						<stop  offset="0.7214" style="stop-color:#B83325"/>
						<stop  offset="1" style="stop-color:#D23A2B"/>
					</linearGradient>
					<path class="st71" d="M260.85,293.21c-39,22.52-102.42,22.4-141.66-0.26c-19.54-11.28-29.39-26.03-29.55-40.77h-0.02v4.86h0.02
						c0.16,14.74,10.01,29.49,29.55,40.77c39.24,22.66,102.67,22.77,141.66,0.26c19.58-11.3,29.26-26.16,29.1-41.02h0.02v-4.86
						h-0.02C290.11,267.05,280.43,281.9,260.85,293.21z"/>
					<linearGradient id="SVGID_60_" gradientUnits="userSpaceOnUse" x1="89.6192" y1="270.0991" x2="289.9659" y2="270.0991">
						<stop  offset="0" style="stop-color:#65140D"/>
						<stop  offset="0.1101" style="stop-color:#6A160F"/>
						<stop  offset="0.2738" style="stop-color:#781B13"/>
						<stop  offset="0.4708" style="stop-color:#90241A"/>
						<stop  offset="0.6921" style="stop-color:#B33123"/>
						<stop  offset="0.7214" style="stop-color:#B83325"/>
						<stop  offset="1" style="stop-color:#D23A2B"/>
					</linearGradient>
					<path class="st72" d="M260.85,279.77c-39,22.51-102.42,22.4-141.66-0.26c-19.54-11.28-29.39-26.03-29.55-40.77h-0.02v4.86h0.02
						c0.16,14.74,10.01,29.49,29.55,40.77c39.24,22.66,102.67,22.77,141.66,0.26c19.58-11.3,29.26-26.16,29.1-41.02h0.02v-4.86
						h-0.02C290.11,253.61,280.43,268.47,260.85,279.77z"/>
					<g>
						<linearGradient id="SVGID_61_" gradientUnits="userSpaceOnUse" x1="86.2447" y1="245.7431" x2="293.3395" y2="245.7431">
							<stop  offset="0" style="stop-color:#E84436"/>
							<stop  offset="0.0954" style="stop-color:#D43125"/>
							<stop  offset="0.2057" style="stop-color:#C01D18"/>
							<stop  offset="0.2852" style="stop-color:#B21B17"/>
							<stop  offset="0.362" style="stop-color:#AA1917"/>
							<stop  offset="0.5685" style="stop-color:#D13225"/>
							<stop  offset="0.7057" style="stop-color:#E84030"/>
							<stop  offset="1" style="stop-color:#EB584A"/>
						</linearGradient>
						<path class="st73" d="M293.32,218.3h0.02v-2.74l-119.73,8.28L86.24,213.4v4.89h0.02c0.17,15.24,10.34,30.48,30.54,42.14
							c40.56,23.42,106.13,23.54,146.44,0.26C283.48,249.02,293.49,233.66,293.32,218.3z"/>
						<path class="st23" d="M263.26,257.7c-35.69,20.6-91.06,22.9-131.43,6.97c-5.27-2.09-10.33-4.49-15.05-7.18
							c-40.55-23.45-40.71-61.32-0.43-84.59c7.67-4.43,16.26-8.02,25.46-10.72c37.19-11.09,83.75-8.26,116.5,8.55
							c1.54,0.78,3.05,1.6,4.51,2.44c3.83,2.21,7.3,4.55,10.41,6.99C303.03,203.62,299.73,236.62,263.26,257.7z"/>
						<path class="st1" d="M262.06,257.42c-35.44,20.45-90.43,22.73-130.55,6.91c-5.23-2.06-10.25-4.46-14.93-7.13
							c-40.28-23.29-40.45-60.9-0.44-84.02c7.63-4.4,16.16-7.97,25.3-10.64c38.67-11.53,87.53-7.91,120.19,10.92
							C301.9,196.75,302.07,234.3,262.06,257.42z"/>
					</g>
					<path class="st24" d="M259.97,254.9c-34.08,19.23-86.98,21.37-125.56,6.49c-5.04-1.94-9.86-4.19-14.36-6.7
						c-38.75-21.9-38.9-57.25-0.43-78.99c7.34-4.14,15.54-7.49,24.33-10.01c37.19-10.84,84.19-7.44,115.59,10.27
						C298.29,197.86,298.45,233.16,259.97,254.9z"/>
					<path class="st15" d="M259.55,175.96c-20.17-11.37-46.76-16.76-73.06-16.35c24.77,0.26,49.5,5.56,68.6,16.1
						c38.97,21.56,39.49,56.32,1.23,77.72c-33.89,18.93-86.76,21.04-125.49,6.39c-1.35-0.51-2.63-1.09-3.95-1.64
						c2.45,1.15,4.96,2.22,7.54,3.22c38.58,14.88,91.48,12.73,125.56-6.49C298.45,233.16,298.29,197.86,259.55,175.96z"/>
					<linearGradient id="SVGID_62_" gradientUnits="userSpaceOnUse" x1="90.865" y1="189.1111" x2="288.7189" y2="189.1111">
						<stop  offset="0.1031" style="stop-color:#F6AC07"/>
						<stop  offset="0.5794" style="stop-color:#DA8012"/>
						<stop  offset="0.7626" style="stop-color:#CF6F13"/>
						<stop  offset="0.8555" style="stop-color:#CF7113"/>
						<stop  offset="0.9132" style="stop-color:#D17813"/>
						<stop  offset="0.9612" style="stop-color:#D58412"/>
						<stop  offset="1" style="stop-color:#D99211"/>
					</linearGradient>
					<path class="st74" d="M119.35,181.96c7.37-4.14,15.6-7.49,24.42-10.01c37.33-10.84,84.51-7.44,116.04,10.27
						c18.06,10.17,27.4,23.24,28.75,36.49c1.5-15.34-7.83-30.98-28.75-42.75c-31.53-17.71-78.7-21.11-116.04-10.27
						c-8.82,2.52-17.05,5.87-24.42,10.01c-20.69,11.64-29.88,27.18-28.32,42.48C92.32,204.98,101.5,192.01,119.35,181.96z"/>
					<g>
						<path class="st26" d="M132.28,231.68c-3.88,2.24-9.91,2.49-14.31,0.76c-0.57-0.23-1.12-0.49-1.64-0.78
							c-4.42-2.55-4.43-6.67-0.05-9.21c0.84-0.48,1.77-0.87,2.77-1.17c4.24-1.26,9.59-0.87,13.17,1.2
							C136.64,225.03,136.66,229.14,132.28,231.68z"/>
						<linearGradient id="SVGID_63_" gradientUnits="userSpaceOnUse" x1="116.0721" y1="228.5943" x2="138.6165" y2="228.5943">
							<stop  offset="0" style="stop-color:#D99211"/>
							<stop  offset="0.0388" style="stop-color:#D58412"/>
							<stop  offset="0.0868" style="stop-color:#D17813"/>
							<stop  offset="0.1445" style="stop-color:#CF7113"/>
							<stop  offset="0.2374" style="stop-color:#CF6F13"/>
							<stop  offset="0.4206" style="stop-color:#DA8012"/>
							<stop  offset="0.8969" style="stop-color:#F6AC07"/>
						</linearGradient>
						<path class="st75" d="M138.61,227.06L138.61,227.06l0-3.21l-13.03,0.9l-9.51-1.14v3.45h0c0.02,1.66,1.13,3.32,3.32,4.59
							c4.42,2.55,11.55,2.56,15.94,0.03C137.54,230.41,138.63,228.74,138.61,227.06z"/>
						<path class="st28" d="M135.34,228.44c-3.88,2.24-9.91,2.49-14.31,0.76c-0.57-0.23-1.12-0.49-1.64-0.78
							c-4.42-2.55-4.43-6.67-0.05-9.21c0.84-0.48,1.77-0.87,2.77-1.17c4.24-1.26,9.59-0.87,13.17,1.2
							C139.71,221.79,139.73,225.91,135.34,228.44z"/>
						<path class="st29" d="M135.34,228.44c-3.88,2.24-9.91,2.49-14.31,0.76c-0.57-0.23-1.12-0.49-1.64-0.78
							c-4.42-2.55-4.43-6.67-0.05-9.21c0.84-0.48,1.77-0.87,2.77-1.17c4.24-1.26,9.59-0.87,13.17,1.2
							C139.71,221.79,139.73,225.91,135.34,228.44z"/>
						<path class="st30" d="M134.64,228.06c-3.71,2.14-9.46,2.38-13.65,0.72c-0.55-0.21-1.07-0.47-1.56-0.75
							c-4.21-2.44-4.23-6.37-0.05-8.79c0.8-0.46,1.69-0.83,2.65-1.11c4.04-1.21,9.15-0.83,12.57,1.14
							C138.81,221.71,138.83,225.64,134.64,228.06z"/>
						<path class="st31" d="M132.82,226.99c-2.66,1.53-6.79,1.71-9.8,0.52c-0.39-0.16-0.77-0.33-1.12-0.54
							c-3.02-1.75-3.04-4.57-0.03-6.31c0.57-0.33,1.21-0.6,1.9-0.8c2.9-0.87,6.57-0.59,9.02,0.82
							C135.82,222.43,135.83,225.25,132.82,226.99z"/>
					</g>
				</g>
				<g>
					<path class="st32" d="M261.2,350.67c-7.72,12.48-15.03,24.26-33.22,44.94c8.62,5.51,17.51,11.17,33.09,19.37
						c7.37-13.23,14.41-25.64,21.85-51.49C278.78,360.53,275.47,358.12,261.2,350.67z M272.02,390.31
						c-0.14,0.28-0.28,0.55-0.34,0.83c-2.83,6.27-6.27,13.1-10.62,20.33c-3.24-1.65-6.2-3.31-9.03-4.82
						c-2.34-1.31-4.55-2.55-6.62-3.79c-5.24-3.03-9.58-5.79-13.44-8.2c1.1-1.24,2.14-2.48,3.1-3.72c0.83-1.03,1.79-2.21,2.76-3.38
						c1.24-1.45,2.41-2.89,3.45-4.34c0.9-1.24,1.86-2.48,2.89-3.79c3.58-4.69,6.55-9.03,9.17-12.89c2.07-3.17,3.93-6.07,5.58-8.69
						c0.76-1.24,1.59-2.48,2.27-3.65c5.31,2.76,9.17,4.89,12.06,6.62c0.34,0.21,0.76,0.41,1.17,0.69c3.03,1.79,4.96,3.1,6.82,4.41
						c-2.14,7.03-4.55,13.44-6.96,19.16C273.61,386.72,272.85,388.52,272.02,390.31z"/>
					<path class="st33" d="M253.34,366.53c2.07-3.17,3.93-6.07,5.58-8.69C257.13,360.87,255.2,363.77,253.34,366.53z M252.03,406.65
						c-2.34-1.31-4.55-2.55-6.62-3.79C247.76,404.23,250.03,405.47,252.03,406.65z"/>
					<path class="st32" d="M264.87,379.05c-2.16,1.29-3.57-0.96-2.93-3.52c0.71-2.84,3.27-4.21,4.42-2.37
						C267.35,374.76,266.53,378.01,264.87,379.05L264.87,379.05z M261.17,365.52c-3.19,2.06-10.72,21.81-10.91,22.81
						c-1.08,5.61,1.6,8.75,4.73,9.38c7.6,1.53,21.48-14.33,12.91-26.61C264.77,366.62,262.5,364.74,261.17,365.52L261.17,365.52z"/>
				</g>
			</g>
		</g>
	</g>
</g>
</svg>
