<?xml version="1.0" encoding="utf-8"?>
<!-- Generator: Adobe Illustrator 23.0.3, SVG Export Plug-In . SVG Version: 6.00 Build 0)  -->
<svg version="1.1" id="Ebene_1" xmlns="http://www.w3.org/2000/svg" xmlns:xlink="http://www.w3.org/1999/xlink" x="0px" y="0px"
	 viewBox="0 0 595.28 595.28" style="enable-background:new 0 0 595.28 595.28;" xml:space="preserve">
<style type="text/css">
	.st0{fill:url(#SVGID_1_);}
	.st1{fill:url(#SVGID_2_);}
	.st2{fill:url(#SVGID_3_);}
	.st3{fill:url(#SVGID_4_);}
	.st4{fill:url(#SVGID_5_);}
	.st5{fill:url(#SVGID_6_);}
	.st6{fill:url(#SVGID_7_);}
	.st7{fill:url(#SVGID_8_);}
	.st8{fill:url(#SVGID_9_);}
	.st9{fill:url(#SVGID_10_);}
	.st10{opacity:0.07;fill:url(#SVGID_11_);}
	.st11{fill:url(#SVGID_12_);}
	.st12{fill:url(#SVGID_13_);}
	.st13{fill:url(#SVGID_14_);}
	.st14{fill:url(#SVGID_15_);}
	.st15{fill:url(#SVGID_16_);}
</style>
<g>
	<g>
		<linearGradient id="SVGID_1_" gradientUnits="userSpaceOnUse" x1="523.1411" y1="477.3806" x2="493.1707" y2="409.5907">
			<stop  offset="0" style="stop-color:#BA880E"/>
			<stop  offset="1" style="stop-color:#E7C539"/>
		</linearGradient>
		<polygon class="st0" points="561.2,437.01 466.02,492.07 481.6,421.4 545.63,384.37 		"/>
		<linearGradient id="SVGID_2_" gradientUnits="userSpaceOnUse" x1="386.926" y1="330.0987" x2="317.1747" y2="455.8796">
			<stop  offset="0" style="stop-color:#B78410"/>
			<stop  offset="1" style="stop-color:#E7C539"/>
		</linearGradient>
		<polygon class="st1" points="243.62,284.03 228.12,354.64 465.96,492.07 481.47,421.46 		"/>
		<linearGradient id="SVGID_3_" gradientUnits="userSpaceOnUse" x1="360.065" y1="393.8306" x2="441.7971" y2="252.6571">
			<stop  offset="0" style="stop-color:#E7C539"/>
			<stop  offset="0.1395" style="stop-color:#DEBA31"/>
			<stop  offset="0.7049" style="stop-color:#C19219"/>
			<stop  offset="1" style="stop-color:#B78410"/>
		</linearGradient>
		<polygon class="st2" points="243.62,284.03 307.71,246.94 545.55,384.37 481.47,421.46 		"/>
		<linearGradient id="SVGID_4_" gradientUnits="userSpaceOnUse" x1="410.8661" y1="304.8741" x2="364.1269" y2="389.0759">
			<stop  offset="0" style="stop-color:#E7C539"/>
			<stop  offset="0.1395" style="stop-color:#DEBA31"/>
			<stop  offset="0.7049" style="stop-color:#C19219"/>
			<stop  offset="1" style="stop-color:#B78410"/>
		</linearGradient>
		<polygon class="st3" points="260.73,284.02 307.72,256.83 528.45,384.37 481.46,411.56 		"/>
		<linearGradient id="SVGID_5_" gradientUnits="userSpaceOnUse" x1="394.5885" y1="444.4684" x2="394.5885" y2="367.8177">
			<stop  offset="0" style="stop-color:#E7C539"/>
			<stop  offset="0.1395" style="stop-color:#DEBA31"/>
			<stop  offset="0.7049" style="stop-color:#C19219"/>
			<stop  offset="1" style="stop-color:#B78410"/>
		</linearGradient>
		<polygon class="st4" points="307.72,260.04 525.67,385.98 528.45,384.37 307.72,256.83 260.73,284.02 263.5,285.63 		"/>
	</g>
</g>
<g>
	<g>
		<linearGradient id="SVGID_6_" gradientUnits="userSpaceOnUse" x1="331.9665" y1="484.456" x2="301.9962" y2="416.6661">
			<stop  offset="0" style="stop-color:#BA880E"/>
			<stop  offset="1" style="stop-color:#E7C539"/>
		</linearGradient>
		<polygon class="st5" points="370.03,444.09 274.85,499.14 290.42,428.48 354.46,391.44 		"/>
		<linearGradient id="SVGID_7_" gradientUnits="userSpaceOnUse" x1="195.7515" y1="337.174" x2="126.0001" y2="462.9549">
			<stop  offset="0" style="stop-color:#B78410"/>
			<stop  offset="1" style="stop-color:#E7C539"/>
		</linearGradient>
		<polygon class="st6" points="52.45,291.11 36.94,361.72 274.78,499.14 290.29,428.53 		"/>
		<linearGradient id="SVGID_8_" gradientUnits="userSpaceOnUse" x1="168.8905" y1="400.9061" x2="250.6227" y2="259.7323">
			<stop  offset="0" style="stop-color:#E7C539"/>
			<stop  offset="0.1395" style="stop-color:#DEBA31"/>
			<stop  offset="0.7049" style="stop-color:#C19219"/>
			<stop  offset="1" style="stop-color:#B78410"/>
		</linearGradient>
		<polygon class="st7" points="52.45,291.11 116.54,254.02 354.38,391.44 290.29,428.53 		"/>
		<linearGradient id="SVGID_9_" gradientUnits="userSpaceOnUse" x1="219.6916" y1="311.9493" x2="172.9523" y2="396.1513">
			<stop  offset="0" style="stop-color:#E7C539"/>
			<stop  offset="0.1395" style="stop-color:#DEBA31"/>
			<stop  offset="0.7049" style="stop-color:#C19219"/>
			<stop  offset="1" style="stop-color:#B78410"/>
		</linearGradient>
		<polygon class="st8" points="69.55,291.1 116.54,263.91 337.27,391.45 290.29,418.64 		"/>
		<linearGradient id="SVGID_10_" gradientUnits="userSpaceOnUse" x1="203.414" y1="451.5438" x2="203.414" y2="374.893">
			<stop  offset="0" style="stop-color:#E7C539"/>
			<stop  offset="0.1395" style="stop-color:#DEBA31"/>
			<stop  offset="0.7049" style="stop-color:#C19219"/>
			<stop  offset="1" style="stop-color:#B78410"/>
		</linearGradient>
		<polygon class="st9" points="116.54,267.12 334.5,393.06 337.27,391.45 116.54,263.91 69.55,291.1 72.33,292.7 		"/>
	</g>
</g>
<g>
	<linearGradient id="SVGID_11_" gradientUnits="userSpaceOnUse" x1="279.0279" y1="442.3775" x2="311.0419" y2="277.0962">
		<stop  offset="0" style="stop-color:#FFFFFF"/>
		<stop  offset="0.0709" style="stop-color:#F7F7F7"/>
		<stop  offset="0.1624" style="stop-color:#E0DEDF"/>
		<stop  offset="0.2653" style="stop-color:#BCB9BA"/>
		<stop  offset="0.3766" style="stop-color:#8F8B8B"/>
		<stop  offset="0.4932" style="stop-color:#5D5A5A"/>
		<stop  offset="0.5752" style="stop-color:#3B3B3B"/>
	</linearGradient>
	<polygon class="st10" points="130.73,300.14 139.85,341.6 344.03,459.08 376.38,440.31 428.95,470.68 448.25,459.42 465.23,388.91 
		197.31,283.26 	"/>
	<g>
		<linearGradient id="SVGID_12_" gradientUnits="userSpaceOnUse" x1="427.166" y1="429.2792" x2="397.1958" y2="361.4895">
			<stop  offset="0" style="stop-color:#BA880E"/>
			<stop  offset="1" style="stop-color:#E7C539"/>
		</linearGradient>
		<polygon class="st11" points="465.23,388.91 370.05,443.96 385.62,373.3 449.66,336.27 		"/>
		<linearGradient id="SVGID_13_" gradientUnits="userSpaceOnUse" x1="290.9511" y1="281.9972" x2="221.1996" y2="407.7784">
			<stop  offset="0" style="stop-color:#B78410"/>
			<stop  offset="1" style="stop-color:#E7C539"/>
		</linearGradient>
		<polygon class="st12" points="147.65,235.93 132.14,306.54 369.98,443.96 385.49,373.35 		"/>
		<linearGradient id="SVGID_14_" gradientUnits="userSpaceOnUse" x1="264.0902" y1="345.7292" x2="345.8222" y2="204.5559">
			<stop  offset="0" style="stop-color:#E7C539"/>
			<stop  offset="0.1395" style="stop-color:#DEBA31"/>
			<stop  offset="0.7049" style="stop-color:#C19219"/>
			<stop  offset="1" style="stop-color:#B78410"/>
		</linearGradient>
		<polygon class="st13" points="147.65,235.93 211.74,198.84 449.58,336.27 385.49,373.35 		"/>
		<linearGradient id="SVGID_15_" gradientUnits="userSpaceOnUse" x1="314.8911" y1="256.7727" x2="268.1519" y2="340.9744">
			<stop  offset="0" style="stop-color:#E7C539"/>
			<stop  offset="0.1395" style="stop-color:#DEBA31"/>
			<stop  offset="0.7049" style="stop-color:#C19219"/>
			<stop  offset="1" style="stop-color:#B78410"/>
		</linearGradient>
		<polygon class="st14" points="164.75,235.92 211.74,208.73 432.47,336.27 385.49,363.46 		"/>
		<linearGradient id="SVGID_16_" gradientUnits="userSpaceOnUse" x1="298.6136" y1="396.3669" x2="298.6136" y2="319.7162">
			<stop  offset="0" style="stop-color:#E7C539"/>
			<stop  offset="0.1395" style="stop-color:#DEBA31"/>
			<stop  offset="0.7049" style="stop-color:#C19219"/>
			<stop  offset="1" style="stop-color:#B78410"/>
		</linearGradient>
		<polygon class="st15" points="211.74,211.94 429.7,337.88 432.47,336.27 211.74,208.73 164.75,235.92 167.53,237.53 		"/>
	</g>
</g>
</svg>
