<?xml version="1.0" encoding="utf-8"?>
<!-- Generator: Adobe Illustrator 23.0.3, SVG Export Plug-In . SVG Version: 6.00 Build 0)  -->
<svg version="1.1" id="Ebene_1" xmlns="http://www.w3.org/2000/svg" xmlns:xlink="http://www.w3.org/1999/xlink" x="0px" y="0px"
	 viewBox="0 0 595.28 595.28" style="enable-background:new 0 0 595.28 595.28;" xml:space="preserve">
<style type="text/css">
	.st0{fill:#B17F4A;}
	.st1{fill:#282828;}
	.st2{fill:#3D3E3E;}
	.st3{fill:#202020;}
	.st4{fill:#B55B22;}
	.st5{opacity:0.2;fill:#020203;}
	.st6{fill:#673414;}
	.st7{opacity:0.2;fill:#FFFFFF;}
	.st8{fill:#371E11;}
	.st9{fill:#3F2212;}
	.st10{fill:#2F1B11;}
	.st11{fill:#171717;}
	.st12{fill:#2B2C2C;}
</style>
<path class="st0" d="M298.13,510.87C169.8,510.87,58.06,524.38,0,544.35v50.93h595.28v-51.27
	C536.94,524.23,425.74,510.87,298.13,510.87z"/>
<g>
	<rect x="452.84" y="144.8" class="st1" width="4.42" height="355.01"/>
	<rect x="479.37" y="145.9" class="st1" width="4.42" height="355.01"/>
	<rect x="132.74" y="295.62" class="st1" width="4.42" height="239.66"/>
	<rect x="79.36" y="535.27" class="st1" width="436.26" height="14.89"/>
	<path class="st2" d="M373.64,525.14l-16.17-245.9v-39.34H245.86v39.34l-16.17,245.9h-7.69v10.13h23.33v-10.13h-6.63l0.05-0.72
		l63.77-72.97l62.02,72.55l0.07,1.13h-6.36v10.13h23.33v-10.13H373.64z M354.34,368.78l-46.98-42.2L349.03,288L354.34,368.78z
		 M350.31,374.32h-94.5l46.54-43.09L350.31,374.32z M254.88,279.24h93.58l0,0.03l-46.17,42.75l-47.42-42.6L254.88,279.24z
		 M254.3,288.06l42.97,38.61l-48.46,44.87L254.3,288.06z M239.48,513.39l8.28-125.99l50.35,58.9L239.48,513.39z M254.08,384.45
		h98.08l-49.58,56.74L254.08,384.45z M306.99,446.35l48.78-55.82l8.04,122.3L306.99,446.35z"/>
	<rect x="294.34" y="199.5" class="st3" width="14.92" height="40.39"/>
	<g>
		<path class="st4" d="M470.2,131.04l-328.67,77.82l7.13,30.11l328.67-77.83c8.23-1.95,13.32-10.2,11.38-18.43l-0.07-0.3
			C486.68,134.18,478.43,129.09,470.2,131.04z"/>
		<polygon class="st4" points="112.09,151.67 83.59,158.42 79.36,207.69 93.74,268.44 119.62,310.58 148.12,303.83 152.35,254.57 
			137.96,193.81 		"/>
		
			<rect x="144.93" y="207.02" transform="matrix(0.9731 -0.2304 0.2304 0.9731 -47.2007 40.8157)" class="st5" width="12.43" height="30.94"/>
		
			<rect x="112.89" y="272.27" transform="matrix(0.9731 -0.2304 0.2304 0.9731 -60.6653 36.7409)" class="st6" width="28.18" height="11.7"/>
		
			<rect x="90.55" y="177.91" transform="matrix(0.9731 -0.2304 0.2304 0.9731 -39.5276 29.0563)" class="st6" width="28.18" height="11.7"/>
		
			<rect x="93.67" y="221.23" transform="matrix(0.9731 -0.2304 0.2304 0.9731 -50.022 33.0418)" class="st6" width="45.58" height="18.93"/>
		<polygon class="st5" points="98.73,154.84 83.59,158.42 79.36,207.69 93.74,268.44 119.62,310.58 134.95,306.95 		"/>
		<path class="st7" d="M157.22,208.8c174.94-33.21,314.25-74.92,314.25-74.92S154.79,205.57,157.22,208.8z"/>
		<polygon class="st7" points="111.92,154.84 134.95,194.12 151.14,253.96 131.53,195.95 		"/>
	</g>
	<rect x="429.27" y="515.27" class="st6" width="76.8" height="20.01"/>
	<rect x="429.27" y="515.27" class="st8" width="38.54" height="20.01"/>
	<rect x="437.99" y="481.66" class="st9" width="59.36" height="33.6"/>
	<rect x="437.99" y="481.66" class="st10" width="29.82" height="33.6"/>
	<g>
		<rect x="447.78" y="436.54" class="st11" width="40.06" height="27.07"/>
		<rect x="467.81" y="436.54" class="st12" width="20.03" height="27.07"/>
	</g>
	<g>
		<rect x="122.69" y="498.47" class="st11" width="24.53" height="16.58"/>
		<rect x="134.95" y="498.47" class="st12" width="12.26" height="16.58"/>
	</g>
	<polygon class="st7" points="248.74,242.82 354.43,242.82 354.43,272.79 349.57,247.28 	"/>
</g>
</svg>
