<?xml version="1.0" encoding="utf-8"?>
<!-- Generator: Adobe Illustrator 23.0.3, SVG Export Plug-In . SVG Version: 6.00 Build 0)  -->
<svg version="1.1" id="Ebene_1" xmlns="http://www.w3.org/2000/svg" xmlns:xlink="http://www.w3.org/1999/xlink" x="0px" y="0px"
	 viewBox="0 0 595.28 595.28" style="enable-background:new 0 0 595.28 595.28;" xml:space="preserve">
<style type="text/css">
	.st0{fill:#B17F4A;}
	.st1{fill:#771846;}
	.st2{fill:url(#SVGID_1_);}
	.st3{fill:url(#SVGID_2_);}
	.st4{fill:url(#SVGID_3_);}
	.st5{fill:url(#SVGID_4_);}
	.st6{fill:url(#SVGID_5_);}
	.st7{fill:url(#SVGID_6_);}
	.st8{fill:url(#SVGID_7_);}
	.st9{fill:url(#SVGID_8_);}
	.st10{fill:url(#SVGID_9_);}
	.st11{fill:url(#SVGID_10_);}
	.st12{fill:url(#SVGID_11_);}
	.st13{fill:url(#SVGID_12_);}
	.st14{fill:url(#SVGID_13_);}
	.st15{fill:url(#SVGID_14_);}
	.st16{fill:url(#SVGID_15_);}
	.st17{fill:#FFE5B3;}
	.st18{fill:url(#SVGID_16_);}
	.st19{fill:url(#SVGID_17_);}
	.st20{fill:#9F4D1E;}
	.st21{fill:#B55B22;}
	.st22{fill:url(#SVGID_18_);}
	.st23{fill:url(#SVGID_19_);}
	.st24{fill:url(#SVGID_20_);}
	.st25{fill:url(#SVGID_21_);}
	.st26{fill:url(#SVGID_22_);}
	.st27{fill:#7D4E24;}
	.st28{fill:#673414;}
	.st29{opacity:0.65;fill:url(#SVGID_23_);}
	.st30{opacity:0.65;fill:url(#SVGID_24_);}
	.st31{fill:url(#SVGID_25_);}
	.st32{fill:url(#SVGID_26_);}
	.st33{fill:url(#SVGID_27_);}
	.st34{fill:url(#SVGID_28_);}
	.st35{fill:#F1895E;}
	.st36{fill:url(#SVGID_29_);}
	.st37{fill:url(#SVGID_30_);}
	.st38{fill:#A15D97;}
	.st39{fill:url(#SVGID_31_);}
	.st40{fill:url(#SVGID_32_);}
	.st41{fill:url(#SVGID_33_);}
	.st42{opacity:0.56;fill:url(#SVGID_34_);}
	.st43{opacity:0.56;fill:url(#SVGID_35_);}
	.st44{opacity:0.25;}
	.st45{fill:url(#SVGID_36_);}
	.st46{fill:url(#SVGID_37_);}
	.st47{fill:url(#SVGID_38_);}
	.st48{fill:url(#SVGID_39_);}
	.st49{fill:url(#SVGID_40_);}
	.st50{fill:url(#SVGID_41_);}
	.st51{fill:url(#SVGID_42_);}
	.st52{fill:url(#SVGID_43_);}
	.st53{fill:url(#SVGID_44_);}
	.st54{fill:url(#SVGID_45_);}
	.st55{fill:url(#SVGID_46_);}
	.st56{fill:url(#SVGID_47_);}
	.st57{fill:url(#SVGID_48_);}
	.st58{fill:url(#SVGID_49_);}
	.st59{fill:url(#SVGID_50_);}
	.st60{fill:#C7535E;}
	.st61{opacity:0.65;fill:url(#SVGID_51_);}
	.st62{opacity:0.65;fill:url(#SVGID_52_);}
	.st63{fill:#FBD4BF;}
	.st64{fill:url(#SVGID_53_);}
	.st65{fill:url(#SVGID_54_);}
	.st66{fill:url(#SVGID_55_);}
	.st67{fill:url(#SVGID_56_);}
	.st68{fill:url(#SVGID_57_);}
	.st69{fill:url(#SVGID_58_);}
	.st70{fill:url(#SVGID_59_);}
	.st71{fill:url(#SVGID_60_);}
	.st72{fill:url(#SVGID_61_);}
	.st73{fill:url(#SVGID_62_);}
	.st74{fill:url(#SVGID_63_);}
	.st75{fill:url(#SVGID_64_);}
	.st76{fill:url(#SVGID_65_);}
	.st77{fill:url(#SVGID_66_);}
	.st78{fill:url(#SVGID_67_);}
	.st79{fill:url(#SVGID_68_);}
	.st80{fill:url(#SVGID_69_);}
	.st81{fill:url(#SVGID_70_);}
	.st82{fill:url(#SVGID_71_);}
	.st83{fill:url(#SVGID_72_);}
	.st84{fill:url(#SVGID_73_);}
	.st85{fill:url(#SVGID_74_);}
	.st86{fill:url(#SVGID_75_);}
	.st87{fill:url(#SVGID_76_);}
	.st88{fill:url(#SVGID_77_);}
	.st89{fill:url(#SVGID_78_);}
	.st90{fill:url(#SVGID_79_);}
	.st91{fill:url(#SVGID_80_);}
	.st92{fill:url(#SVGID_81_);}
	.st93{fill:url(#SVGID_82_);}
	.st94{fill:url(#SVGID_83_);}
	.st95{fill:url(#SVGID_84_);}
	.st96{fill:url(#SVGID_85_);}
	.st97{fill:url(#SVGID_86_);}
	.st98{fill:url(#SVGID_87_);}
	.st99{fill:url(#SVGID_88_);}
	.st100{fill:url(#SVGID_89_);}
	.st101{fill:url(#SVGID_90_);}
	.st102{fill:url(#SVGID_91_);}
	.st103{fill:url(#SVGID_92_);}
</style>
<path class="st0" d="M298.13,510.87C169.8,510.87,58.06,524.38,0,544.35v50.93h595.28v-51.27
	C536.94,524.23,425.74,510.87,298.13,510.87z"/>
<g>
	<path class="st1" d="M299.77,260.75c-51,0.01-88.36-1.21-88.36-1.21s29.22-5.19,84.83-5.31c55.61-0.13,83.34,5.58,83.34,5.58
		S346.1,260.74,299.77,260.75z"/>
	<linearGradient id="SVGID_1_" gradientUnits="userSpaceOnUse" x1="169.1175" y1="24.0757" x2="305.9786" y2="382.5208">
		<stop  offset="0" style="stop-color:#F08082"/>
		<stop  offset="1" style="stop-color:#FED48E"/>
	</linearGradient>
	<polygon class="st2" points="369.83,480.05 224.15,480.05 224.27,478.54 248.06,171.52 344.48,171.52 345.12,179.29 351.39,255.65 
		352.13,264.63 	"/>
	<linearGradient id="SVGID_2_" gradientUnits="userSpaceOnUse" x1="234.6869" y1="323.5703" x2="289.4517" y2="325.181">
		<stop  offset="0" style="stop-color:#BF94C3"/>
		<stop  offset="1" style="stop-color:#DFAEBF"/>
	</linearGradient>
	<polygon class="st3" points="361.77,264.5 352.13,264.63 269.61,265.74 267.62,326.86 265.03,326.86 265.03,332.35 267.45,332.35 
		265.12,404.14 263.46,404.14 263.46,409.63 264.94,409.63 262.69,479.04 224.27,478.54 248.06,171.52 344.48,171.52 345.12,179.29 
		272.37,180.58 269.96,254.9 324.34,252.81 351.39,255.65 352.58,255.78 	"/>
	<g>
		<polygon class="st1" points="221.15,258.65 218.84,258.78 218.66,257.05 217.08,241.5 217.02,240.94 219.33,240.8 219.39,241.48 
			220.96,256.77 		"/>
		<polygon class="st1" points="236.5,256.35 235.09,256.47 235.01,255.28 234.04,241.34 233.99,240.57 235.39,240.45 235.46,241.32 
			236.41,255.15 		"/>
		<polygon class="st1" points="375.83,257.61 377.65,239.77 375.34,239.63 373.52,257.47 		"/>
		<polygon class="st1" points="297.44,254.11 295.72,254.14 295.7,252.85 295.48,240.74 295.48,240.68 280.21,240.81 280.21,240.89 
			280.44,252.86 280.49,255.88 268.51,255.76 268.37,253.16 267.68,241.01 267.67,240.91 261.92,240.96 261.5,240.96 261.51,241.07 
			261.92,253.43 262,255.81 248.06,255.85 247.98,254.23 247.34,241.21 247.29,240.31 249.01,240.2 249.08,241.19 249.98,254.09 
			250.04,254.99 260.23,254.29 260.2,253.5 259.78,241.09 259.72,239.34 261.85,239.33 269.3,239.26 269.4,240.99 270.08,253.1 
			270.14,254.15 278.75,254.22 278.72,252.89 278.49,240.9 278.46,239.19 297.17,239.03 297.2,240.72 297.42,252.87 		"/>
		<polygon class="st1" points="357.27,258.33 344.46,257.68 345.5,240.18 339.1,240.31 338.6,256.53 327.41,256.71 327.51,240.15 
			313.63,239.56 313.2,254.97 311.6,254.95 311.79,239.27 329.24,239.35 329.03,254.97 337.05,254.85 337.55,238.63 347.21,238.44 
			346.16,256.06 355.77,256.55 356.76,239.51 358.36,239.61 		"/>
		<polygon class="st1" points="382.7,239.89 297.2,240.72 295.48,240.74 280.21,240.89 278.49,240.9 269.4,240.99 267.68,241.01 
			261.93,241.07 261.51,241.07 259.78,241.09 249.08,241.19 247.34,241.21 235.46,241.32 234.04,241.34 219.39,241.48 217.08,241.5 
			212.69,241.54 212.66,239.78 261.85,239.3 382.66,238.14 		"/>
		<path class="st1" d="M379.76,257.01l-0.19,3.84c0,0-15.87-3.67-83.03-4.12c-13.1-0.09-24.33,0.01-33.91,0.22
			c-39.58,0.85-51.23,3.64-51.23,3.64l-2.6-2.15c0,0,3.53-0.59,9.85-1.39c0.73-0.08,1.49-0.18,2.3-0.28
			c3.88-0.47,8.61-0.98,14.05-1.49c0.46-0.04,0.93-0.08,1.4-0.13c3.57-0.33,7.44-0.64,11.57-0.93c0.66-0.05,1.32-0.09,2-0.14
			c3.26-0.22,6.67-0.42,10.22-0.59c0.57-0.03,1.14-0.06,1.72-0.08c0.18-0.01,0.37-0.02,0.55-0.03c1.92-0.09,3.89-0.17,5.89-0.24
			c0.57-0.02,1.14-0.04,1.72-0.05c2.81-0.09,5.69-0.17,8.64-0.22c0.57-0.01,1.14-0.02,1.71-0.03c4.93-0.07,10.03-0.08,15.26-0.02
			h0.18c0.52,0.01,1.03,0.02,1.54,0.02C346.27,253.56,379.76,257.01,379.76,257.01z"/>
		<path class="st1" d="M261.35,253.46l-0.53-12.62l1.09,0.11l-0.07-1.63v-0.02l-49.19,0.48l0.03,1.76l4.39-0.04l1.58,15.55
			c-6.32,0.8-9.85,1.39-9.85,1.39l2.6,2.15c0,0,13.15-2.39,49.95-3.97V253.46z M259.78,241.09l0.42,12.42
			c-3.55,0.17-6.96,0.37-10.22,0.59l-0.9-12.9L259.78,241.09z M220.96,256.77l-1.56-15.29l14.65-0.14l0.97,13.94
			C229.56,255.79,224.84,256.3,220.96,256.77z M236.41,255.15l-0.96-13.83l11.88-0.12l0.65,13.02
			C243.86,254.52,239.99,254.83,236.41,255.15z"/>
	</g>
	<g>
		<linearGradient id="SVGID_3_" gradientUnits="userSpaceOnUse" x1="264.5391" y1="254.7576" x2="312.6364" y2="261.1234">
			<stop  offset="0" style="stop-color:#A84444"/>
			<stop  offset="1" style="stop-color:#D3693E"/>
		</linearGradient>
		<polygon class="st4" points="221.15,257.59 218.84,257.73 218.66,256 217.08,240.45 217.02,239.89 219.33,239.75 219.39,240.43 
			220.96,255.72 		"/>
		<linearGradient id="SVGID_4_" gradientUnits="userSpaceOnUse" x1="267.529" y1="251.6817" x2="301.6906" y2="256.2031">
			<stop  offset="0" style="stop-color:#A84444"/>
			<stop  offset="1" style="stop-color:#D3693E"/>
		</linearGradient>
		<polygon class="st5" points="236.5,255.3 235.09,255.42 235.01,254.23 234.04,240.29 233.99,239.52 235.39,239.4 235.46,240.27 
			236.41,254.1 		"/>
		<linearGradient id="SVGID_5_" gradientUnits="userSpaceOnUse" x1="403.5762" y1="283.0591" x2="386.7173" y2="261.6845">
			<stop  offset="0" style="stop-color:#A84444"/>
			<stop  offset="1" style="stop-color:#D3693E"/>
		</linearGradient>
		<polygon class="st6" points="375.83,256.56 377.65,238.71 375.34,238.58 373.52,256.42 		"/>
		<linearGradient id="SVGID_6_" gradientUnits="userSpaceOnUse" x1="241.3851" y1="247.2721" x2="343.1142" y2="244.7386">
			<stop  offset="0" style="stop-color:#A84444"/>
			<stop  offset="1" style="stop-color:#D3693E"/>
		</linearGradient>
		<polygon class="st7" points="297.44,253.06 295.72,253.09 295.7,251.8 295.48,239.69 295.48,239.63 280.21,239.76 280.21,239.84 
			280.44,251.81 280.49,254.82 268.51,254.71 268.37,252.11 267.68,239.96 267.67,239.86 261.92,239.9 261.5,239.91 261.51,240.02 
			261.92,252.37 262,254.76 248.06,254.8 247.98,253.18 247.34,240.16 247.29,239.26 249.01,239.15 249.08,240.14 249.98,253.04 
			250.04,253.94 260.23,253.24 260.2,252.45 259.78,240.04 259.72,238.29 261.85,238.27 269.3,238.21 269.4,239.94 270.08,252.05 
			270.14,253.09 278.75,253.17 278.72,251.84 278.49,239.85 278.46,238.14 297.17,237.98 297.2,239.67 297.42,251.82 		"/>
		<linearGradient id="SVGID_7_" gradientUnits="userSpaceOnUse" x1="249.5385" y1="249.8679" x2="344.4746" y2="247.5036">
			<stop  offset="0" style="stop-color:#A84444"/>
			<stop  offset="1" style="stop-color:#D3693E"/>
		</linearGradient>
		<polygon class="st8" points="357.27,257.28 344.46,256.63 345.5,239.13 339.1,239.26 338.6,255.48 327.41,255.65 327.51,239.1 
			313.63,238.51 313.2,253.92 311.6,253.9 311.79,238.22 329.24,238.29 329.03,253.92 337.05,253.8 337.55,237.58 347.21,237.38 
			346.16,255.01 355.77,255.5 356.76,238.46 358.36,238.56 		"/>
		<linearGradient id="SVGID_8_" gradientUnits="userSpaceOnUse" x1="221.6879" y1="240.6792" x2="358.7317" y2="237.2662">
			<stop  offset="0" style="stop-color:#A84444"/>
			<stop  offset="1" style="stop-color:#D3693E"/>
		</linearGradient>
		<polygon class="st9" points="382.7,238.84 297.2,239.67 295.48,239.69 280.21,239.84 278.49,239.85 269.4,239.94 267.68,239.96 
			261.93,240.01 261.51,240.02 259.78,240.04 249.08,240.14 247.34,240.16 235.46,240.27 234.04,240.29 219.39,240.43 
			217.08,240.45 212.69,240.49 212.66,238.73 261.85,238.25 382.66,237.09 		"/>
		<linearGradient id="SVGID_9_" gradientUnits="userSpaceOnUse" x1="208.8065" y1="255.7761" x2="379.7614" y2="255.7761">
			<stop  offset="0" style="stop-color:#A84444"/>
			<stop  offset="1" style="stop-color:#D3693E"/>
		</linearGradient>
		<path class="st10" d="M379.76,255.96l-0.19,3.84c0,0-15.87-3.67-83.03-4.12c-13.1-0.09-24.33,0.01-33.91,0.22
			c-39.58,0.85-51.23,3.64-51.23,3.64l-2.6-2.15c0,0,3.53-0.59,9.85-1.39c0.73-0.08,1.49-0.18,2.3-0.28
			c3.88-0.47,8.61-0.98,14.05-1.49c0.46-0.04,0.93-0.08,1.4-0.13c3.57-0.33,7.44-0.64,11.57-0.93c0.66-0.05,1.32-0.09,2-0.14
			c3.26-0.22,6.67-0.42,10.22-0.59c0.57-0.03,1.14-0.06,1.72-0.08c0.18-0.01,0.37-0.02,0.55-0.03c1.92-0.09,3.89-0.17,5.89-0.24
			c0.57-0.02,1.14-0.04,1.72-0.05c2.81-0.09,5.69-0.17,8.64-0.22c0.57-0.01,1.14-0.02,1.71-0.03c4.93-0.07,10.03-0.08,15.26-0.02
			h0.18c0.52,0.01,1.03,0.02,1.54,0.02C346.27,252.51,379.76,255.96,379.76,255.96z"/>
		<linearGradient id="SVGID_10_" gradientUnits="userSpaceOnUse" x1="208.8065" y1="248.8938" x2="261.9206" y2="248.8938">
			<stop  offset="0" style="stop-color:#A84444"/>
			<stop  offset="1" style="stop-color:#D3693E"/>
		</linearGradient>
		<path class="st11" d="M261.92,239.9l-0.07-1.63v-0.02l-49.19,0.48l0.03,1.76l4.39-0.04l1.58,15.55c-6.32,0.8-9.85,1.39-9.85,1.39
			l2.6,2.15c0,0,13.67-1.34,50.47-2.92L261.92,239.9z M259.78,240.04l0.42,12.42c-3.55,0.17-6.96,0.37-10.22,0.59l-0.9-12.9
			L259.78,240.04z M220.96,255.72l-1.56-15.29l14.65-0.14l0.97,13.94C229.56,254.73,224.84,255.25,220.96,255.72z M236.41,254.1
			l-0.96-13.83l11.88-0.12l0.65,13.02C243.86,253.47,239.99,253.78,236.41,254.1z"/>
	</g>
	<g>
		<linearGradient id="SVGID_11_" gradientUnits="userSpaceOnUse" x1="340.1304" y1="350.4911" x2="339.5594" y2="371.8093">
			<stop  offset="0" style="stop-color:#BF94C3"/>
			<stop  offset="1" style="stop-color:#DFAEBF"/>
		</linearGradient>
		<path class="st12" d="M348.46,316.23h-14.74l0.38-17.4c0,0,0.59-0.72,1.79-1.4c0.29-0.09,0.6-0.16,0.93-0.22c0.01,0,0.03,0,0.04,0
			c0.59-0.07,1.22-0.12,1.9-0.14c0,0,0,0,0,0c0.17,0,0.35,0,0.53,0c6.01,0,7.98,2.74,7.98,2.74L348.46,316.23z"/>
		<path class="st1" d="M344.04,299.52l0.08,16.71h-10.4l0.38-17.4c0,0,0.59-0.72,1.79-1.4c0.29-0.09,0.6-0.16,0.93-0.22
			c0.01,0,0.03,0,0.04,0c0.52-0.09,1.09-0.14,1.7-0.14c0.07,0,0.13,0,0.2,0c0,0,0,0,0,0C342.8,297.15,344.04,299.52,344.04,299.52z"
			/>
	</g>
	<g>
		
			<linearGradient id="SVGID_12_" gradientUnits="userSpaceOnUse" x1="3215.5593" y1="410.1186" x2="3214.9883" y2="431.4372" gradientTransform="matrix(-1.2074 1.900000e-03 1.600000e-03 1 4180.7012 -3.4995)">
			<stop  offset="0" style="stop-color:#BF94C3"/>
			<stop  offset="1" style="stop-color:#DFAEBF"/>
		</linearGradient>
		<path class="st13" d="M288.78,378.48l17.8-0.03l-0.49-17.4c0,0-0.72-0.72-2.17-1.4c-0.35-0.09-0.73-0.16-1.12-0.22
			c-0.02,0-0.04,0-0.05,0c-0.71-0.07-1.48-0.12-2.29-0.13c-0.01,0-0.01,0-0.01,0c-0.21,0-0.42,0-0.64,0
			c-7.26,0.01-9.63,2.75-9.63,2.75L288.78,378.48z"/>
		<path class="st1" d="M294.09,361.76l-0.07,16.71l12.56-0.02l-0.49-17.4c0,0-0.72-0.72-2.17-1.4c-0.35-0.09-0.73-0.16-1.12-0.22
			c-0.02,0-0.04,0-0.05,0c-0.63-0.09-1.32-0.14-2.05-0.14c-0.08,0-0.16,0-0.24,0.01c-0.01,0-0.01,0-0.01,0
			C295.59,359.39,294.09,361.76,294.09,361.76z"/>
	</g>
	<g>
		
			<linearGradient id="SVGID_13_" gradientUnits="userSpaceOnUse" x1="3537.1018" y1="467.5847" x2="3536.5308" y2="488.9032" gradientTransform="matrix(-1 1.600000e-03 1.600000e-03 1 3781.4705 -2.6835)">
			<stop  offset="0" style="stop-color:#BF94C3"/>
			<stop  offset="1" style="stop-color:#DFAEBF"/>
		</linearGradient>
		<path class="st14" d="M236.73,436.31l14.74-0.02l-0.41-17.4c0,0-0.6-0.72-1.8-1.4c-0.29-0.09-0.6-0.16-0.93-0.22
			c-0.01,0-0.03,0-0.04,0c-0.59-0.07-1.22-0.12-1.9-0.13c0,0,0,0,0,0c-0.17,0-0.35,0-0.53,0c-6.01,0.01-7.98,2.75-7.98,2.75
			L236.73,436.31z"/>
		<path class="st1" d="M241.97,419.59l-0.05,16.71l9.56-0.01l-0.38-17.4c0,0-0.55-0.72-1.65-1.4c-0.27-0.09-0.56-0.16-0.85-0.22
			c-0.01,0-0.03,0-0.04,0c-0.48-0.09-1-0.14-1.56-0.14c-0.06,0-0.12,0-0.18,0.01c0,0,0,0,0,0
			C243.1,417.22,241.97,419.59,241.97,419.59z"/>
	</g>
	<g>
		<linearGradient id="SVGID_14_" gradientUnits="userSpaceOnUse" x1="295.4869" y1="476.5702" x2="294.6723" y2="547.0374">
			<stop  offset="0" style="stop-color:#F08082"/>
			<stop  offset="1" style="stop-color:#FED48E"/>
		</linearGradient>
		<polygon class="st15" points="402.43,497.4 402.11,502.37 402.05,503.42 401.86,506.34 401.79,507.45 401.73,508.44 400.9,521.58 
			398.91,553.12 398.58,558.38 192.29,558.38 192.29,558.38 191.93,553.12 188.83,508.44 188.69,506.34 188.69,506.33 188.07,497.4 
					"/>
		<g>
			
				<linearGradient id="SVGID_15_" gradientUnits="userSpaceOnUse" x1="-2394.5969" y1="671.1315" x2="-2395.9219" y2="695.4203" gradientTransform="matrix(0.9998 0.0183 -0.0183 0.9998 2628.645 -114.6415)">
				<stop  offset="0" style="stop-color:#BF94C3"/>
				<stop  offset="1" style="stop-color:#DFAEBF"/>
			</linearGradient>
			<path class="st16" d="M230.04,522.21L230.04,522.21l-1.06,20.81h-14.82l-1.59-20.81l0,0c0,0,2.12-11.15,9-11.15
				C227.93,511.07,230.04,522.21,230.04,522.21z"/>
			<path class="st17" d="M229.75,522.59l-0.63,18.67v0.01l-0.06,1.72l-11.63-0.29l-0.39-0.01l-0.94-20.35c0,0,2.87-6.75,6.9-6.67
				C226.88,515.74,229.75,522.59,229.75,522.59z"/>
			
				<linearGradient id="SVGID_16_" gradientUnits="userSpaceOnUse" x1="-2393.2388" y1="701.0707" x2="-2393.8538" y2="676.2673" gradientTransform="matrix(0.9998 0.0183 -0.0183 0.9998 2628.645 -114.6415)">
				<stop  offset="0" style="stop-color:#6E3B65"/>
				<stop  offset="1" style="stop-color:#1E1739"/>
			</linearGradient>
			<path class="st18" d="M228.61,522.86l-0.29,7.89l-0.19,5.13l-0.23,6.2l-0.06,0l-0.56-0.01l-9.57-0.12l-0.48-19.47
				c0,0,2.61-5.5,5.88-5.48C226.15,517.03,228.61,522.86,228.61,522.86z"/>
			<polygon class="st17" points="222.51,516.43 222.26,542.23 222.64,542.24 223.15,516.45 			"/>
			<polygon class="st17" points="217.14,526.94 228.65,527.16 229.19,527.85 217.13,527.65 			"/>
		</g>
		<linearGradient id="SVGID_17_" gradientUnits="userSpaceOnUse" x1="210.4749" y1="526.2458" x2="303.4568" y2="528.0113">
			<stop  offset="0" style="stop-color:#BF94C3"/>
			<stop  offset="1" style="stop-color:#DFAEBF"/>
		</linearGradient>
		<polygon class="st19" points="402.15,497.4 401.86,501.88 401.8,502.93 401.58,506.34 401.79,507.45 401.73,508.44 400.9,521.58 
			377.7,521.42 370.73,521.37 366.72,521.33 363.17,521.31 346.49,521.19 343.18,521.17 308.43,520.91 304.81,520.89 286.55,520.76 
			283.23,520.74 271.57,520.65 268.26,520.62 255.04,520.53 255.04,557.33 237.17,557.63 192.29,558.38 192.01,558.38 
			191.65,553.12 191.93,553.12 188.83,508.44 188.56,508.44 188.41,506.34 188.41,506.33 187.79,497.4 		"/>
		<polygon class="st20" points="189.33,557.93 186.06,558.38 185.26,553.12 178.49,508.44 178.18,506.34 178.18,506.33 
			177.78,503.71 181.05,503.25 181.52,506.33 181.52,506.34 181.84,508.44 188.61,553.12 		"/>
		<g>
			<polygon class="st21" points="412.76,503.71 412.36,506.34 409.97,522.11 404.48,558.38 401.21,557.93 406.63,522.11 
				409.02,506.34 409.49,503.25 			"/>
			<linearGradient id="SVGID_18_" gradientUnits="userSpaceOnUse" x1="406.874" y1="514.2141" x2="410.6416" y2="514.2245">
				<stop  offset="0" style="stop-color:#BF94C3"/>
				<stop  offset="1" style="stop-color:#DFAEBF"/>
			</linearGradient>
			<polygon class="st22" points="412.36,506.34 409.97,522.11 406.63,522.11 409.02,506.34 			"/>
		</g>
		<g>
			<polygon class="st21" points="338.78,503.24 338.67,505.89 338.03,521.83 336.54,558.49 333.24,558.4 334.71,522.2 
				335.35,506.26 335.48,503.15 			"/>
			
				<linearGradient id="SVGID_19_" gradientUnits="userSpaceOnUse" x1="97.8944" y1="321.4864" x2="101.6615" y2="321.4968" gradientTransform="matrix(0.994 -0.1095 0.1095 0.994 201.5736 205.488)">
				<stop  offset="0" style="stop-color:#BF94C3"/>
				<stop  offset="1" style="stop-color:#DFAEBF"/>
			</linearGradient>
			<polygon class="st23" points="338.67,505.89 338.03,521.83 334.71,522.2 335.35,506.26 			"/>
		</g>
		<g>
			<polygon class="st21" points="257.44,501.67 257.56,504.33 258.26,520.26 259.87,556.92 263.17,556.81 261.58,520.62 
				260.88,504.68 260.74,501.57 			"/>
			
				<linearGradient id="SVGID_20_" gradientUnits="userSpaceOnUse" x1="3143.2075" y1="649.9055" x2="3146.9749" y2="649.916" gradientTransform="matrix(-0.9944 -0.1061 -0.1061 0.9944 3456.7378 199.9706)">
				<stop  offset="0" style="stop-color:#BF94C3"/>
				<stop  offset="1" style="stop-color:#DFAEBF"/>
			</linearGradient>
			<polygon class="st24" points="257.56,504.33 258.26,520.26 261.58,520.62 260.88,504.68 			"/>
		</g>
		<g>
			
				<linearGradient id="SVGID_21_" gradientUnits="userSpaceOnUse" x1="516.7434" y1="617.8434" x2="515.4186" y2="642.1321" gradientTransform="matrix(-0.9998 0.0183 0.0183 0.9998 876.3381 -114.6415)">
				<stop  offset="0" style="stop-color:#BF94C3"/>
				<stop  offset="1" style="stop-color:#DFAEBF"/>
			</linearGradient>
			<path class="st25" d="M363.21,522.21L363.21,522.21l1.06,20.81h14.82l1.59-20.81l0,0c0,0-2.12-11.15-9-11.15
				C365.32,511.07,363.21,522.21,363.21,522.21z"/>
			<path class="st17" d="M363.5,522.59l0.63,18.67v0.01l0.06,1.72l11.63-0.29l0.39-0.01l0.94-20.35c0,0-2.87-6.75-6.9-6.67
				C366.37,515.74,363.5,522.59,363.5,522.59z"/>
			
				<linearGradient id="SVGID_22_" gradientUnits="userSpaceOnUse" x1="518.1014" y1="647.7825" x2="517.4865" y2="622.9791" gradientTransform="matrix(-0.9998 0.0183 0.0183 0.9998 876.3381 -114.6415)">
				<stop  offset="0" style="stop-color:#6E3B65"/>
				<stop  offset="1" style="stop-color:#1E1739"/>
			</linearGradient>
			<path class="st26" d="M364.64,522.86l0.29,7.89l0.19,5.13l0.23,6.2l0.06,0l0.56-0.01l9.57-0.12l0.48-19.47
				c0,0-2.61-5.5-5.88-5.48C367.1,517.03,364.64,522.86,364.64,522.86z"/>
			<polygon class="st17" points="370.74,516.43 370.99,542.23 370.61,542.24 370.1,516.45 			"/>
			<polygon class="st17" points="376.11,526.94 364.6,527.16 364.06,527.85 376.12,527.65 			"/>
		</g>
		<polygon class="st21" points="443.78,506.34 155.16,506.34 170.79,493.33 171.43,492.81 186.87,479.97 187.49,479.46 
			191.84,475.84 407.1,475.84 416.55,483.7 417.2,484.24 425.85,491.43 426.48,491.95 		"/>
		<polygon class="st27" points="443.78,506.34 439.05,508.44 156.73,508.44 155.16,506.34 		"/>
		<polygon class="st28" points="417.2,484.24 251.41,481.16 186.87,479.97 187.49,479.46 251.5,480.64 416.55,483.7 		"/>
		<polygon class="st28" points="426.48,491.95 252.28,492.89 170.79,493.33 171.43,492.81 252.34,492.37 425.85,491.43 		"/>
		<linearGradient id="SVGID_23_" gradientUnits="userSpaceOnUse" x1="204.964" y1="492.7042" x2="212.9096" y2="480.1942">
			<stop  offset="0" style="stop-color:#BF94C3"/>
			<stop  offset="1" style="stop-color:#DFAEBF"/>
		</linearGradient>
		<polygon class="st29" points="206.09,493.33 205.61,493.11 211.78,479.57 212.26,479.78 		"/>
		<rect x="306.8" y="481.51" class="st28" width="0.53" height="10.58"/>
		<linearGradient id="SVGID_24_" gradientUnits="userSpaceOnUse" x1="248.1496" y1="504.6679" x2="254.9366" y2="493.9819">
			<stop  offset="0" style="stop-color:#BF94C3"/>
			<stop  offset="1" style="stop-color:#DFAEBF"/>
		</linearGradient>
		<polygon class="st30" points="251.27,506.36 250.74,506.32 251.82,492.29 252.34,492.33 		"/>
		
			<rect x="329.88" y="492.05" transform="matrix(0.9945 -0.1048 0.1048 0.9945 -50.5366 37.3362)" class="st28" width="0.53" height="15.38"/>
		<polygon class="st28" points="403.59,506.46 395.93,491.36 396.39,491.09 404.05,506.19 		"/>
		
			<rect x="381.59" y="475.32" transform="matrix(0.8731 -0.4875 0.4875 0.8731 -185.2588 246.9527)" class="st28" width="0.53" height="8.19"/>
		<polygon class="st20" points="249.53,492.06 252.34,492.34 252.34,492.37 252.28,492.89 250.74,506.31 155.16,506.34 
			170.79,493.33 171.43,492.81 186.87,479.97 187.49,479.46 191.84,475.84 252.34,475.72 252.32,475.84 251.5,480.64 251.41,481.16 
					"/>
		<linearGradient id="SVGID_25_" gradientUnits="userSpaceOnUse" x1="177.023" y1="437.885" x2="215.5333" y2="492.1633">
			<stop  offset="0" style="stop-color:#A84444"/>
			<stop  offset="1" style="stop-color:#D3693E"/>
		</linearGradient>
		<polygon class="st31" points="226.69,472.71 226.69,474.98 209.48,509.94 209.19,510.54 203.61,510.54 203.61,506.06 
			223.76,472.71 		"/>
		<linearGradient id="SVGID_26_" gradientUnits="userSpaceOnUse" x1="242.7368" y1="490.7947" x2="257.4258" y2="490.3299">
			<stop  offset="0" style="stop-color:#A84444"/>
			<stop  offset="1" style="stop-color:#D3693E"/>
		</linearGradient>
		<path class="st32" d="M208.78,505.95c0,0,0.4,1.19,0.7,3.99l-0.29,0.6h-5.58v-4.49l20.15-33.35h2.93L208.78,505.95z"/>
		<linearGradient id="SVGID_27_" gradientUnits="userSpaceOnUse" x1="394.0687" y1="469.5343" x2="407.7297" y2="448.0254">
			<stop  offset="0" style="stop-color:#A84444"/>
			<stop  offset="1" style="stop-color:#D3693E"/>
		</linearGradient>
		<polygon class="st33" points="368.16,473.76 368.16,475.97 385.37,509.96 385.67,510.54 391.24,510.54 391.24,506.18 
			371.1,473.76 		"/>
		<linearGradient id="SVGID_28_" gradientUnits="userSpaceOnUse" x1="338.6506" y1="597.1834" x2="360.8215" y2="540.4604">
			<stop  offset="0" style="stop-color:#A84444"/>
			<stop  offset="1" style="stop-color:#D3693E"/>
		</linearGradient>
		<path class="st34" d="M386.08,506.08c0,0-0.4,1.15-0.7,3.88l0.29,0.58h5.58v-4.36l-20.15-32.42h-2.93L386.08,506.08z"/>
		<polygon class="st35" points="391.24,506.18 386.08,506.08 385.37,509.96 385.67,510.54 391.24,510.54 		"/>
		<g>
			<linearGradient id="SVGID_29_" gradientUnits="userSpaceOnUse" x1="295.893" y1="633.725" x2="294.5751" y2="682.9255">
				<stop  offset="0" style="stop-color:#BF94C3"/>
				<stop  offset="1" style="stop-color:#DFAEBF"/>
			</linearGradient>
			<path class="st36" d="M311.01,516.85l1.72,37.85h-29.44l3.06-38.43c0,0,1.19-1.59,3.6-3.09c2.17-1.35,5.32-2.64,9.46-2.64
				C308.14,510.54,311.01,516.85,311.01,516.85z"/>
			<linearGradient id="SVGID_30_" gradientUnits="userSpaceOnUse" x1="298.7241" y1="585.6553" x2="295.5026" y2="446.0597">
				<stop  offset="0" style="stop-color:#6E3B65"/>
				<stop  offset="1" style="stop-color:#1E1739"/>
			</linearGradient>
			<path class="st37" d="M307.71,521.19l1.28,33.51h-21.96l2.28-34.02c0,0,0.89-1.41,2.68-2.74c1.62-1.2,3.97-2.34,7.05-2.34
				C305.57,515.61,307.71,521.19,307.71,521.19z"/>
			<path class="st38" d="M306.05,523.07l1.04,29h-17.76l1.85-29.44c0,0,0.72-1.22,2.17-2.37c1.31-1.04,3.21-2.03,5.7-2.03
				C304.32,518.24,306.05,523.07,306.05,523.07z"/>
			<linearGradient id="SVGID_31_" gradientUnits="userSpaceOnUse" x1="300.375" y1="580.5288" x2="297.4445" y2="453.5428">
				<stop  offset="0" style="stop-color:#6E3B65"/>
				<stop  offset="1" style="stop-color:#1E1739"/>
			</linearGradient>
			<rect x="298.79" y="516.85" class="st39" width="1.05" height="35.75"/>
			<linearGradient id="SVGID_32_" gradientUnits="userSpaceOnUse" x1="298.8348" y1="528.6822" x2="298.7168" y2="523.5715">
				<stop  offset="0" style="stop-color:#6E3B65"/>
				<stop  offset="1" style="stop-color:#1E1739"/>
			</linearGradient>
			<rect x="290.38" y="526.31" class="st40" width="16.82" height="1.05"/>
			<linearGradient id="SVGID_33_" gradientUnits="userSpaceOnUse" x1="298.0628" y1="540.7049" x2="297.8988" y2="533.5991">
				<stop  offset="0" style="stop-color:#6E3B65"/>
				<stop  offset="1" style="stop-color:#1E1739"/>
			</linearGradient>
			<rect x="288.8" y="537.35" class="st41" width="18.4" height="1.58"/>
		</g>
		<rect x="170.93" y="553.12" class="st21" width="252.35" height="5.26"/>
		<rect x="170.93" y="553.12" class="st20" width="66.24" height="5.26"/>
		<linearGradient id="SVGID_34_" gradientUnits="userSpaceOnUse" x1="62.6055" y1="550.5259" x2="339.4803" y2="555.2587">
			<stop  offset="0" style="stop-color:#BF94C3"/>
			<stop  offset="1" style="stop-color:#DFAEBF"/>
		</linearGradient>
		<rect x="346.51" y="553.12" class="st42" width="43.83" height="5.26"/>
		<linearGradient id="SVGID_35_" gradientUnits="userSpaceOnUse" x1="390.7524" y1="555.6521" x2="396.1265" y2="555.744">
			<stop  offset="0" style="stop-color:#BF94C3"/>
			<stop  offset="1" style="stop-color:#DFAEBF"/>
		</linearGradient>
		<rect x="396.31" y="553.12" class="st43" width="0.76" height="5.26"/>
	</g>
	<g class="st44">
		<linearGradient id="SVGID_36_" gradientUnits="userSpaceOnUse" x1="234.9184" y1="398.0779" x2="254.3697" y2="562.1003">
			<stop  offset="0" style="stop-color:#BF94C3"/>
			<stop  offset="1" style="stop-color:#DFAEBF"/>
		</linearGradient>
		<rect x="233.49" y="461.42" class="st45" width="18.53" height="5.49"/>
		<linearGradient id="SVGID_37_" gradientUnits="userSpaceOnUse" x1="247.2672" y1="396.6106" x2="266.7194" y2="560.6395">
			<stop  offset="0" style="stop-color:#BF94C3"/>
			<stop  offset="1" style="stop-color:#DFAEBF"/>
		</linearGradient>
		<rect x="248.59" y="455.24" class="st46" width="11.67" height="3.43"/>
		<linearGradient id="SVGID_38_" gradientUnits="userSpaceOnUse" x1="292.2993" y1="391.2724" x2="311.7508" y2="555.2955">
			<stop  offset="0" style="stop-color:#BF94C3"/>
			<stop  offset="1" style="stop-color:#DFAEBF"/>
		</linearGradient>
		<rect x="286.34" y="430.53" class="st47" width="21.96" height="6.18"/>
		<linearGradient id="SVGID_39_" gradientUnits="userSpaceOnUse" x1="311.9115" y1="388.9474" x2="331.3628" y2="552.9689">
			<stop  offset="0" style="stop-color:#BF94C3"/>
			<stop  offset="1" style="stop-color:#DFAEBF"/>
		</linearGradient>
		<rect x="308.99" y="448.37" class="st48" width="20.59" height="5.49"/>
		<linearGradient id="SVGID_40_" gradientUnits="userSpaceOnUse" x1="321.0541" y1="387.8609" x2="340.5061" y2="551.8888">
			<stop  offset="0" style="stop-color:#BF94C3"/>
			<stop  offset="1" style="stop-color:#DFAEBF"/>
		</linearGradient>
		<rect x="319.28" y="442.88" class="st49" width="17.16" height="4.8"/>
		<linearGradient id="SVGID_41_" gradientUnits="userSpaceOnUse" x1="341.2108" y1="385.4702" x2="360.6629" y2="549.4983">
			<stop  offset="0" style="stop-color:#BF94C3"/>
			<stop  offset="1" style="stop-color:#DFAEBF"/>
		</linearGradient>
		<rect x="341.93" y="452.49" class="st50" width="15.1" height="5.49"/>
	</g>
	<g class="st44">
		
			<linearGradient id="SVGID_42_" gradientUnits="userSpaceOnUse" x1="3426.1865" y1="-4588.7134" x2="3445.189" y2="-4428.4756" gradientTransform="matrix(-1 0 0 -1 3775 -4201.8086)">
			<stop  offset="0" style="stop-color:#BF94C3"/>
			<stop  offset="1" style="stop-color:#DFAEBF"/>
		</linearGradient>
		<polygon class="st51" points="332.64,319.6 349.67,319.6 349.67,325.09 332.64,325.09 		"/>
		
			<linearGradient id="SVGID_43_" gradientUnits="userSpaceOnUse" x1="3437.5779" y1="-4590.2993" x2="3456.5767" y2="-4430.0923" gradientTransform="matrix(-1 0 0 -1 3775 -4201.8086)">
			<stop  offset="0" style="stop-color:#BF94C3"/>
			<stop  offset="1" style="stop-color:#DFAEBF"/>
		</linearGradient>
		<polygon class="st52" points="325.07,327.84 335.8,327.84 335.8,331.27 325.07,331.27 		"/>
		
			<linearGradient id="SVGID_44_" gradientUnits="userSpaceOnUse" x1="3479.095" y1="-4596.0298" x2="3498.0808" y2="-4435.9346" gradientTransform="matrix(-1 0 0 -1 3775 -4201.8086)">
			<stop  offset="0" style="stop-color:#BF94C3"/>
			<stop  offset="1" style="stop-color:#DFAEBF"/>
		</linearGradient>
		<polygon class="st53" points="280.91,349.8 301.1,349.8 301.1,355.98 280.91,355.98 		"/>
		
			<linearGradient id="SVGID_45_" gradientUnits="userSpaceOnUse" x1="3505.4238" y1="-4599.0737" x2="3524.408" y2="-4438.9917" gradientTransform="matrix(-1 0 0 -1 3775 -4201.8086)">
			<stop  offset="0" style="stop-color:#BF94C3"/>
			<stop  offset="1" style="stop-color:#DFAEBF"/>
		</linearGradient>
		<polygon class="st54" points="255.04,338.82 270.82,338.82 270.82,343.62 255.04,343.62 		"/>
		
			<linearGradient id="SVGID_46_" gradientUnits="userSpaceOnUse" x1="3523.8337" y1="-4601.4561" x2="3542.8982" y2="-4440.6953" gradientTransform="matrix(-1 0 0 -1 3775 -4201.8086)">
			<stop  offset="0" style="stop-color:#BF94C3"/>
			<stop  offset="1" style="stop-color:#DFAEBF"/>
		</linearGradient>
		<polygon class="st55" points="236.12,328.52 250,328.52 250,334.01 236.12,334.01 		"/>
	</g>
	<g class="st44">
		
			<linearGradient id="SVGID_47_" gradientUnits="userSpaceOnUse" x1="3433.8828" y1="-4462.4956" x2="3452.8684" y2="-4302.4004" gradientTransform="matrix(-1 0 0 -1 3775 -4201.8086)">
			<stop  offset="0" style="stop-color:#BF94C3"/>
			<stop  offset="1" style="stop-color:#DFAEBF"/>
		</linearGradient>
		<polygon class="st56" points="326.12,216.27 346.31,216.27 346.31,222.44 326.12,222.44 		"/>
		
			<linearGradient id="SVGID_48_" gradientUnits="userSpaceOnUse" x1="3451.7822" y1="-4464.2896" x2="3470.7502" y2="-4304.3442" gradientTransform="matrix(-1 0 0 -1 3775 -4201.8086)">
			<stop  offset="0" style="stop-color:#BF94C3"/>
			<stop  offset="1" style="stop-color:#DFAEBF"/>
		</linearGradient>
		<polygon class="st57" points="306.56,199.11 325.49,199.11 325.49,204.6 306.56,204.6 		"/>
		
			<linearGradient id="SVGID_49_" gradientUnits="userSpaceOnUse" x1="3460.2119" y1="-4465.5376" x2="3479.1951" y2="-4305.4624" gradientTransform="matrix(-1 0 0 -1 3775 -4201.8086)">
			<stop  offset="0" style="stop-color:#BF94C3"/>
			<stop  offset="1" style="stop-color:#DFAEBF"/>
		</linearGradient>
		<polygon class="st58" points="300.26,205.29 316.03,205.29 316.03,210.09 300.26,210.09 		"/>
		
			<linearGradient id="SVGID_50_" gradientUnits="userSpaceOnUse" x1="3478.6211" y1="-4467.9248" x2="3497.6863" y2="-4307.1577" gradientTransform="matrix(-1 0 0 -1 3775 -4201.8086)">
			<stop  offset="0" style="stop-color:#BF94C3"/>
			<stop  offset="1" style="stop-color:#DFAEBF"/>
		</linearGradient>
		<polygon class="st59" points="281.33,194.99 295.21,194.99 295.21,200.48 281.33,200.48 		"/>
	</g>
	<g>
		<path class="st21" d="M371.48,167.91l-147.45,3.54c0,0,0.33-0.44,0.94-1.25c2.08-2.72,7.48-9.6,14.86-17.54
			c4.43-4.76,9.56-9.9,15.12-14.76l0.06-0.06c0,0,0.01,0,0.01-0.01c9.05-7.9,19.22-15.01,29.21-18.43c1.46-0.5,2.92-0.92,4.36-1.26
			c2.53-0.58,5.04-0.9,7.51-0.9c0.57,0,1.14,0.02,1.71,0.05c1.26,0.07,2.54,0.21,3.83,0.42c1.6,0.26,3.21,0.62,4.84,1.08
			c7.9,2.2,16.08,6.57,23.86,11.83c0.86,0.58,1.7,1.17,2.55,1.77h0.01c8.14,5.77,15.73,12.38,22.01,18.32l0.01,0.01
			c0.05,0.05,0.11,0.1,0.16,0.15C364.95,160.24,371.48,167.91,371.48,167.91z"/>
		<path class="st60" d="M226.65,171.45l1.9,0.53l140.95-0.58l1.97-3.48C371.47,167.91,303.54,164.23,226.65,171.45z"/>
		<path class="st28" d="M332.9,132.39c-20.9,0.26-48.56,1.55-77.95,5.51c-0.1,0.02-0.21,0.03-0.3,0.04c0,0,0.12-0.04,0.36-0.1
			c0,0,0.01,0,0.01-0.01c2.4-0.64,16.83-4.11,54.5-6.42c7.7-0.47,14.64-0.72,20.84-0.79C331.21,131.2,332.05,131.8,332.9,132.39z"/>
		<linearGradient id="SVGID_51_" gradientUnits="userSpaceOnUse" x1="286.1277" y1="118.4847" x2="299.2946" y2="118.6433">
			<stop  offset="0" style="stop-color:#BF94C3"/>
			<stop  offset="1" style="stop-color:#DFAEBF"/>
		</linearGradient>
		<path class="st61" d="M306.49,118.8c-6.3,0.01-13.87,0.16-22.26,0.62c1.46-0.5,2.92-0.92,4.36-1.26c4.85-0.27,9.19-0.4,13.05-0.44
			C303.24,117.98,304.86,118.34,306.49,118.8z"/>
		<linearGradient id="SVGID_52_" gradientUnits="userSpaceOnUse" x1="251.0159" y1="159.8313" x2="256.169" y2="159.7527">
			<stop  offset="0" style="stop-color:#BF94C3"/>
			<stop  offset="1" style="stop-color:#DFAEBF"/>
		</linearGradient>
		<polygon class="st62" points="257.51,150.02 250.42,169.53 252.39,169.53 258.84,150.02 		"/>
		<path class="st28" d="M239.82,152.66c0,0,13.35-3.61,55.03-5.03c41.68-1.42,61.13,3.31,61.13,3.31S301.89,145.97,239.82,152.66z"
			/>
		<path class="st20" d="M297.81,117.3c-0.68,0.23-1.67,0.47-3,0.73c-14.08,2.74-25.35,18.24-30.3,31.34
			c-0.11,0.29,2.35,0.36,2.24,0.65c-3.75,10.18-5.24,18.81-5.24,18.81s-21.77,0.91-36.55,1.38c2.08-2.72,7.48-9.6,14.86-17.54
			c4.43-4.76,9.56-9.9,15.12-14.76l0.06-0.06c0,0,0.01,0,0.01-0.01c9.05-7.9,19.22-15.01,29.21-18.43c1.46-0.5,2.92-0.92,4.36-1.26
			c2.53-0.58,5.04-0.9,7.51-0.9C296.67,117.26,297.24,117.27,297.81,117.3z"/>
	</g>
	<g>
		<g>
			<polygon class="st63" points="460,383.65 479.32,366.76 367.48,246.78 344.93,268.06 			"/>
			<polygon class="st63" points="136.77,63.74 117.46,76.26 225.93,201.66 250.3,174.4 			"/>
			<polygon class="st1" points="134.35,61.98 134.53,64.78 455.02,386.23 458.61,386.23 			"/>
			<linearGradient id="SVGID_53_" gradientUnits="userSpaceOnUse" x1="128.8928" y1="68.1249" x2="218.8829" y2="185.5033">
				<stop  offset="0" style="stop-color:#A84444"/>
				<stop  offset="1" style="stop-color:#D3693E"/>
			</linearGradient>
			<polygon class="st64" points="125.11,86.03 123.77,84.43 145.23,66.49 145.83,67.22 			"/>
			<linearGradient id="SVGID_54_" gradientUnits="userSpaceOnUse" x1="130.2975" y1="67.0475" x2="220.2895" y2="184.4283">
				<stop  offset="0" style="stop-color:#A84444"/>
				<stop  offset="1" style="stop-color:#D3693E"/>
			</linearGradient>
			<polygon class="st65" points="136.77,98.57 134.53,96.37 157.38,78.59 158.66,80.24 			"/>
			<linearGradient id="SVGID_55_" gradientUnits="userSpaceOnUse" x1="131.963" y1="65.7733" x2="221.9505" y2="183.1482">
				<stop  offset="0" style="stop-color:#A84444"/>
				<stop  offset="1" style="stop-color:#D3693E"/>
			</linearGradient>
			<polygon class="st66" points="151.5,115.16 150.16,113.56 172.57,94.83 173.91,96.43 			"/>
			<linearGradient id="SVGID_56_" gradientUnits="userSpaceOnUse" x1="133.3924" y1="64.6782" x2="223.3802" y2="182.0535">
				<stop  offset="0" style="stop-color:#A84444"/>
				<stop  offset="1" style="stop-color:#D3693E"/>
			</linearGradient>
			<polygon class="st67" points="163.43,129.3 162.09,127.71 185.86,107.67 187.21,109.27 			"/>
			<linearGradient id="SVGID_57_" gradientUnits="userSpaceOnUse" x1="134.8866" y1="63.5293" x2="224.8775" y2="180.9087">
				<stop  offset="0" style="stop-color:#A84444"/>
				<stop  offset="1" style="stop-color:#D3693E"/>
			</linearGradient>
			<polygon class="st68" points="179,147.53 177.64,145.95 202.2,124.87 203.56,126.45 			"/>
			<linearGradient id="SVGID_58_" gradientUnits="userSpaceOnUse" x1="135.6129" y1="62.9747" x2="225.6026" y2="180.3524">
				<stop  offset="0" style="stop-color:#A84444"/>
				<stop  offset="1" style="stop-color:#D3693E"/>
			</linearGradient>
			<polygon class="st69" points="191.46,162.9 190.01,161.4 214.06,138.22 215.51,139.72 			"/>
			<linearGradient id="SVGID_59_" gradientUnits="userSpaceOnUse" x1="137.4411" y1="61.5727" x2="227.431" y2="178.9508">
				<stop  offset="0" style="stop-color:#A84444"/>
				<stop  offset="1" style="stop-color:#D3693E"/>
			</linearGradient>
			<polygon class="st70" points="206.43,179.37 204.2,177.15 230.15,154.24 231.53,155.8 			"/>
			<linearGradient id="SVGID_60_" gradientUnits="userSpaceOnUse" x1="139.8009" y1="59.7627" x2="229.7914" y2="177.1416">
				<stop  offset="0" style="stop-color:#A84444"/>
				<stop  offset="1" style="stop-color:#D3693E"/>
			</linearGradient>
			<polygon class="st71" points="225.93,201.66 223.38,198.54 250.3,174.4 251.69,175.95 			"/>
			<linearGradient id="SVGID_61_" gradientUnits="userSpaceOnUse" x1="116.5725" y1="140.0593" x2="229.6925" y2="140.0593">
				<stop  offset="0" style="stop-color:#A84444"/>
				<stop  offset="1" style="stop-color:#D3693E"/>
			</linearGradient>
			<polygon class="st72" points="227.05,205.23 116.57,76.28 117.27,74.89 229.69,202.96 			"/>
			<linearGradient id="SVGID_62_" gradientUnits="userSpaceOnUse" x1="491.1515" y1="241.1339" x2="449.2773" y2="417.4152">
				<stop  offset="0" style="stop-color:#A84444"/>
				<stop  offset="1" style="stop-color:#D3693E"/>
			</linearGradient>
			<polygon class="st73" points="470.58,357.19 471.96,358.76 450.88,377.15 450.26,376.43 			"/>
			<linearGradient id="SVGID_63_" gradientUnits="userSpaceOnUse" x1="476.9888" y1="237.7693" x2="435.1144" y2="414.0514">
				<stop  offset="0" style="stop-color:#A84444"/>
				<stop  offset="1" style="stop-color:#D3693E"/>
			</linearGradient>
			<polygon class="st74" points="458.66,344.9 460.95,347.05 438.48,365.31 437.16,363.69 			"/>
			<linearGradient id="SVGID_64_" gradientUnits="userSpaceOnUse" x1="458.3652" y1="233.3466" x2="416.4912" y2="409.6269">
				<stop  offset="0" style="stop-color:#A84444"/>
				<stop  offset="1" style="stop-color:#D3693E"/>
			</linearGradient>
			<polygon class="st75" points="443.58,328.63 444.96,330.2 422.95,349.39 421.57,347.82 			"/>
			<linearGradient id="SVGID_65_" gradientUnits="userSpaceOnUse" x1="443.1853" y1="229.7394" x2="401.3109" y2="406.0216">
				<stop  offset="0" style="stop-color:#A84444"/>
				<stop  offset="1" style="stop-color:#D3693E"/>
			</linearGradient>
			<polygon class="st76" points="431.35,314.73 432.73,316.3 409.39,336.84 408.01,335.27 			"/>
			<linearGradient id="SVGID_66_" gradientUnits="userSpaceOnUse" x1="423.8251" y1="225.1419" x2="381.9512" y2="401.4218">
				<stop  offset="0" style="stop-color:#A84444"/>
				<stop  offset="1" style="stop-color:#D3693E"/>
			</linearGradient>
			<polygon class="st77" points="415.4,296.84 416.8,298.4 392.68,319.99 391.29,318.43 			"/>
			<linearGradient id="SVGID_67_" gradientUnits="userSpaceOnUse" x1="408.859" y1="221.586" x2="366.9847" y2="397.8679">
				<stop  offset="0" style="stop-color:#A84444"/>
				<stop  offset="1" style="stop-color:#D3693E"/>
			</linearGradient>
			<polygon class="st78" points="402.62,281.74 404.1,283.21 380.54,306.89 379.06,305.42 			"/>
			<linearGradient id="SVGID_68_" gradientUnits="userSpaceOnUse" x1="390.7383" y1="217.2818" x2="348.8642" y2="393.5627">
				<stop  offset="0" style="stop-color:#A84444"/>
				<stop  offset="1" style="stop-color:#D3693E"/>
			</linearGradient>
			<polygon class="st79" points="387.31,265.59 389.58,267.76 364.13,291.22 362.71,289.68 			"/>
			<linearGradient id="SVGID_69_" gradientUnits="userSpaceOnUse" x1="367.1306" y1="211.6742" x2="325.2565" y2="387.955">
				<stop  offset="0" style="stop-color:#A84444"/>
				<stop  offset="1" style="stop-color:#D3693E"/>
			</linearGradient>
			<polygon class="st80" points="367.34,243.72 369.95,246.78 343.55,271.49 342.13,269.96 			"/>
			<linearGradient id="SVGID_70_" gradientUnits="userSpaceOnUse" x1="439.4362" y1="228.8497" x2="397.5622" y2="405.1301">
				<stop  offset="0" style="stop-color:#A84444"/>
				<stop  offset="1" style="stop-color:#D3693E"/>
			</linearGradient>
			<polygon class="st81" points="366.14,240.17 479.32,366.76 478.66,368.17 363.55,242.49 			"/>
			<linearGradient id="SVGID_71_" gradientUnits="userSpaceOnUse" x1="134.3522" y1="222.3836" x2="462.0533" y2="222.3836">
				<stop  offset="0" style="stop-color:#A84444"/>
				<stop  offset="1" style="stop-color:#D3693E"/>
			</linearGradient>
			<polygon class="st82" points="458.61,386.23 134.35,61.98 137.8,58.53 462.05,382.79 			"/>
		</g>
		<g>
			<polygon class="st63" points="462.27,60.92 445.38,41.6 325.4,153.44 346.68,175.99 			"/>
			<polygon class="st63" points="142.36,384.14 154.89,403.46 280.28,294.98 253.02,270.62 			"/>
			<polygon class="st35" points="140.6,386.57 143.4,386.39 464.88,64.53 464.86,62.31 			"/>
			
				<linearGradient id="SVGID_72_" gradientUnits="userSpaceOnUse" x1="-2150.1736" y1="-2196.1667" x2="-2060.1895" y2="-2078.7961" gradientTransform="matrix(0 -1 1 0 2342.915 -1758.1493)">
				<stop  offset="0" style="stop-color:#A84444"/>
				<stop  offset="1" style="stop-color:#D3693E"/>
			</linearGradient>
			<polygon class="st83" points="164.66,395.81 163.05,397.15 145.12,375.68 145.85,375.09 			"/>
			
				<linearGradient id="SVGID_73_" gradientUnits="userSpaceOnUse" x1="-2148.7693" y1="-2197.2446" x2="-2058.7773" y2="-2079.8638" gradientTransform="matrix(0 -1 1 0 2342.915 -1758.1493)">
				<stop  offset="0" style="stop-color:#A84444"/>
				<stop  offset="1" style="stop-color:#D3693E"/>
			</linearGradient>
			<polygon class="st84" points="177.19,384.14 174.99,386.39 157.21,363.54 158.86,362.26 			"/>
			
				<linearGradient id="SVGID_74_" gradientUnits="userSpaceOnUse" x1="-2147.1038" y1="-2198.5188" x2="-2057.1162" y2="-2081.144" gradientTransform="matrix(0 -1 1 0 2342.915 -1758.1493)">
				<stop  offset="0" style="stop-color:#A84444"/>
				<stop  offset="1" style="stop-color:#D3693E"/>
			</linearGradient>
			<polygon class="st85" points="193.78,369.42 192.18,370.76 173.45,348.35 175.06,347.01 			"/>
			
				<linearGradient id="SVGID_75_" gradientUnits="userSpaceOnUse" x1="-2145.6746" y1="-2199.614" x2="-2055.6865" y2="-2082.2385" gradientTransform="matrix(0 -1 1 0 2342.915 -1758.1493)">
				<stop  offset="0" style="stop-color:#A84444"/>
				<stop  offset="1" style="stop-color:#D3693E"/>
			</linearGradient>
			<polygon class="st86" points="207.93,357.48 206.33,358.83 186.29,335.06 187.89,333.71 			"/>
			
				<linearGradient id="SVGID_76_" gradientUnits="userSpaceOnUse" x1="-2144.1802" y1="-2200.7627" x2="-2054.1892" y2="-2083.3833" gradientTransform="matrix(0 -1 1 0 2342.915 -1758.1493)">
				<stop  offset="0" style="stop-color:#A84444"/>
				<stop  offset="1" style="stop-color:#D3693E"/>
			</linearGradient>
			<polygon class="st87" points="226.16,341.92 224.57,343.28 203.49,318.71 205.08,317.35 			"/>
			
				<linearGradient id="SVGID_77_" gradientUnits="userSpaceOnUse" x1="-2143.4539" y1="-2201.3174" x2="-2053.4641" y2="-2083.9397" gradientTransform="matrix(0 -1 1 0 2342.915 -1758.1493)">
				<stop  offset="0" style="stop-color:#A84444"/>
				<stop  offset="1" style="stop-color:#D3693E"/>
			</linearGradient>
			<polygon class="st88" points="241.52,329.46 240.02,330.91 216.84,306.85 218.34,305.4 			"/>
			
				<linearGradient id="SVGID_78_" gradientUnits="userSpaceOnUse" x1="-2141.6279" y1="-2202.7227" x2="-2051.6355" y2="-2085.3411" gradientTransform="matrix(0 -1 1 0 2342.915 -1758.1493)">
				<stop  offset="0" style="stop-color:#A84444"/>
				<stop  offset="1" style="stop-color:#D3693E"/>
			</linearGradient>
			<polygon class="st89" points="257.99,314.49 255.77,316.71 232.86,290.77 234.43,289.39 			"/>
			
				<linearGradient id="SVGID_79_" gradientUnits="userSpaceOnUse" x1="-2139.2659" y1="-2204.5295" x2="-2049.2754" y2="-2087.1506" gradientTransform="matrix(0 -1 1 0 2342.915 -1758.1493)">
				<stop  offset="0" style="stop-color:#A84444"/>
				<stop  offset="1" style="stop-color:#D3693E"/>
			</linearGradient>
			<polygon class="st90" points="280.28,294.98 277.16,297.53 253.02,270.62 254.58,269.22 			"/>
			
				<linearGradient id="SVGID_80_" gradientUnits="userSpaceOnUse" x1="-2162.4944" y1="-2124.2327" x2="-2049.374" y2="-2124.2327" gradientTransform="matrix(0 -1 1 0 2342.915 -1758.1493)">
				<stop  offset="0" style="stop-color:#A84444"/>
				<stop  offset="1" style="stop-color:#D3693E"/>
			</linearGradient>
			<polygon class="st91" points="283.86,293.87 154.9,404.35 153.51,403.65 281.59,291.22 			"/>
			
				<linearGradient id="SVGID_81_" gradientUnits="userSpaceOnUse" x1="2869.4246" y1="-2233.3945" x2="2959.4417" y2="-2115.9812" gradientTransform="matrix(0.0211 0.9998 -0.9998 0.0211 -1839.6964 -2767.9871)">
				<stop  offset="0" style="stop-color:#A84444"/>
				<stop  offset="1" style="stop-color:#D3693E"/>
			</linearGradient>
			<polygon class="st92" points="435.81,50.33 437.39,48.96 455.77,70.04 455.05,70.65 			"/>
			
				<linearGradient id="SVGID_82_" gradientUnits="userSpaceOnUse" x1="2870.8274" y1="-2234.4753" x2="2960.8408" y2="-2117.0667" gradientTransform="matrix(0.0211 0.9998 -0.9998 0.0211 -1839.6964 -2767.9871)">
				<stop  offset="0" style="stop-color:#A84444"/>
				<stop  offset="1" style="stop-color:#D3693E"/>
			</linearGradient>
			<polygon class="st93" points="423.52,62.26 425.67,59.97 443.93,82.44 442.31,83.76 			"/>
			
				<linearGradient id="SVGID_83_" gradientUnits="userSpaceOnUse" x1="2872.4907" y1="-2235.7534" x2="2962.4971" y2="-2118.354" gradientTransform="matrix(0.0211 0.9998 -0.9998 0.0211 -1839.6964 -2767.9871)">
				<stop  offset="0" style="stop-color:#A84444"/>
				<stop  offset="1" style="stop-color:#D3693E"/>
			</linearGradient>
			<polygon class="st94" points="407.25,77.33 408.82,75.96 428.02,97.97 426.44,99.34 			"/>
			
				<linearGradient id="SVGID_84_" gradientUnits="userSpaceOnUse" x1="2873.9155" y1="-2236.8552" x2="2963.927" y2="-2119.4492" gradientTransform="matrix(0.0211 0.9998 -0.9998 0.0211 -1839.6964 -2767.9871)">
				<stop  offset="0" style="stop-color:#A84444"/>
				<stop  offset="1" style="stop-color:#D3693E"/>
			</linearGradient>
			<polygon class="st95" points="393.36,89.57 394.93,88.19 415.46,111.53 413.89,112.91 			"/>
			
				<linearGradient id="SVGID_85_" gradientUnits="userSpaceOnUse" x1="2875.4067" y1="-2238.0088" x2="2965.4202" y2="-2120.6001" gradientTransform="matrix(0.0211 0.9998 -0.9998 0.0211 -1839.6964 -2767.9871)">
				<stop  offset="0" style="stop-color:#A84444"/>
				<stop  offset="1" style="stop-color:#D3693E"/>
			</linearGradient>
			<polygon class="st96" points="375.46,105.51 377.02,104.12 398.61,128.23 397.06,129.63 			"/>
			
				<linearGradient id="SVGID_86_" gradientUnits="userSpaceOnUse" x1="2876.137" y1="-2238.5598" x2="2966.1406" y2="-2121.1638" gradientTransform="matrix(0.0211 0.9998 -0.9998 0.0211 -1839.6964 -2767.9871)">
				<stop  offset="0" style="stop-color:#A84444"/>
				<stop  offset="1" style="stop-color:#D3693E"/>
			</linearGradient>
			<polygon class="st97" points="360.36,118.3 361.83,116.81 385.52,140.37 384.04,141.86 			"/>
			
				<linearGradient id="SVGID_87_" gradientUnits="userSpaceOnUse" x1="2877.9624" y1="-2239.9661" x2="2967.967" y2="-2122.5688" gradientTransform="matrix(0.0211 0.9998 -0.9998 0.0211 -1839.6964 -2767.9871)">
				<stop  offset="0" style="stop-color:#A84444"/>
				<stop  offset="1" style="stop-color:#D3693E"/>
			</linearGradient>
			<polygon class="st98" points="344.21,133.61 346.38,131.34 369.84,156.79 368.3,158.21 			"/>
			
				<linearGradient id="SVGID_88_" gradientUnits="userSpaceOnUse" x1="2880.322" y1="-2241.7773" x2="2970.3247" y2="-2124.3826" gradientTransform="matrix(0.0211 0.9998 -0.9998 0.0211 -1839.6964 -2767.9871)">
				<stop  offset="0" style="stop-color:#A84444"/>
				<stop  offset="1" style="stop-color:#D3693E"/>
			</linearGradient>
			<polygon class="st99" points="322.34,153.58 325.4,150.97 350.11,177.36 348.58,178.79 			"/>
			
				<linearGradient id="SVGID_89_" gradientUnits="userSpaceOnUse" x1="2857.1064" y1="-2161.4602" x2="2970.2278" y2="-2161.4602" gradientTransform="matrix(0.0211 0.9998 -0.9998 0.0211 -1839.6964 -2767.9871)">
				<stop  offset="0" style="stop-color:#A84444"/>
				<stop  offset="1" style="stop-color:#D3693E"/>
			</linearGradient>
			<polygon class="st100" points="318.79,154.77 445.38,41.6 446.79,42.26 321.11,157.37 			"/>
			
				<linearGradient id="SVGID_90_" gradientUnits="userSpaceOnUse" x1="-2144.7146" y1="-2041.9083" x2="-1817.0134" y2="-2041.9083" gradientTransform="matrix(0 -1 1 0 2342.915 -1758.1493)">
				<stop  offset="0" style="stop-color:#A84444"/>
				<stop  offset="1" style="stop-color:#D3693E"/>
			</linearGradient>
			<polygon class="st101" points="464.86,62.31 140.6,386.57 137.16,383.12 461.41,58.86 			"/>
		</g>
		<g>
			<path class="st35" d="M314.64,222.64c0,7.21-5.87,13.05-13.12,13.05c-7.24,0-13.12-5.84-13.12-13.05s5.87-13.05,13.12-13.05
				C308.77,209.59,314.64,215.43,314.64,222.64z"/>
			<linearGradient id="SVGID_91_" gradientUnits="userSpaceOnUse" x1="306.373" y1="178.2486" x2="296.4512" y2="250.3118">
				<stop  offset="0" style="stop-color:#A84444"/>
				<stop  offset="1" style="stop-color:#D3693E"/>
			</linearGradient>
			<path class="st102" d="M313.34,222.88c0,7.07-5.87,12.81-13.12,12.81c-7.24,0-13.12-5.73-13.12-12.81
				c0-7.07,5.87-12.81,13.12-12.81C307.47,210.07,313.34,215.81,313.34,222.88z"/>
			<linearGradient id="SVGID_92_" gradientUnits="userSpaceOnUse" x1="305.146" y1="223.4297" x2="364.9326" y2="222.7042">
				<stop  offset="0" style="stop-color:#A84444"/>
				<stop  offset="1" style="stop-color:#D3693E"/>
			</linearGradient>
			<path class="st103" d="M306.35,223.48c0,3.41-2.54,6.18-5.68,6.18c-0.78,0-1.51-0.17-2.19-0.47c-2.05-0.93-3.5-3.13-3.5-5.7
				s1.44-4.78,3.5-5.7c0.67-0.31,1.41-0.47,2.19-0.47C303.8,217.31,306.35,220.07,306.35,223.48z"/>
			<path class="st1" d="M305.35,224.57c0,2.68-2,4.85-4.46,4.85c-0.61,0-1.19-0.13-1.71-0.37c-1.61-0.73-2.74-2.46-2.74-4.47
				s1.13-3.75,2.74-4.47c0.53-0.24,1.1-0.37,1.71-0.37C303.35,219.72,305.35,221.89,305.35,224.57z"/>
		</g>
	</g>
</g>
<path class="st60" d="M471.62-47.76"/>
</svg>
